<svg version="1.2" baseProfile="tiny-ps" xmlns="http://www.w3.org/2000/svg" viewBox="0 0 541 362" width="541" height="362">
	<title>Vector Smart Object</title>
	<style>
		tspan { white-space:pre }
		.shp0 { opacity: 0.102;fill: #2f495e } 
		.shp1 { fill: #00c58e } 
		.shp2 { fill: #2f495e } 
		.shp3 { fill: #18315b } 
		.shp4 { fill: #000b29 } 
		.shp5 { fill: #f97853 } 
		.shp6 { fill: #ea5143 } 
		.shp7 { fill: #ffa681 } 
		.shp8 { fill: #ffffff } 
		.shp9 { fill: #035194 } 
		.shp10 { fill: #264cbe } 
		.shp11 { fill: #e3e3e3 } 
		.shp12 { fill: #009cf8 } 
		.shp13 { fill: #00af79 } 
		.shp14 { fill: #1d567e } 
	</style>
	<g id="Vector Smart Object">
		<g id="Group 288">
			<path id="Path 735" class="shp0" d="M234.76 64.93C216.51 -0.99 134.29 -22.22 87.17 27.04C86.49 27.75 85.82 28.47 85.14 29.2C17.58 102.33 49.5 282.56 190.48 328.23C331.47 373.91 478.11 290.5 486.35 215.93C494.59 141.37 429.55 117.94 328.61 138.79C271.58 150.57 246.12 105.97 234.76 64.93Z" />
			<path id="Path 736" class="shp0" d="M352.04 76.2C333.17 79.26 327.95 95.91 342.51 107.71C347.33 111.62 354.2 114.86 363.99 116.48C401.3 122.64 421.1 106.2 406.15 84.89C396.92 71.73 370.73 73.17 352.04 76.2Z" />
			<path id="Path 737" class="shp0" d="M51.27 209.39C39.54 194.37 22.37 197.76 18.93 216.15C17.8 222.23 18.23 229.79 21.49 239.13C33.92 274.7 57.89 284.14 69.52 260.86C76.7 246.49 62.89 224.29 51.27 209.39Z" />
			<path id="Path 738" class="shp1" d="M499.65 224.6C497.91 233.66 505.42 240.08 513.93 236.58C516.75 235.43 519.58 233.21 522.11 229.3C531.73 214.4 526.85 201.62 513.47 202.93C505.2 203.74 501.37 215.62 499.65 224.6Z" />
			<path id="Path 739" class="shp0" d="M451.96 129C461.03 130.88 467.6 123.51 464.24 114.98C463.13 112.16 460.94 109.29 457.06 106.71C442.26 96.88 429.35 101.52 430.44 114.87C431.11 123.11 442.98 127.13 451.96 129Z" />
			<path id="Path 740" class="shp0" d="M231.61 32.05C238.79 37.88 248.02 34.35 248.99 25.23C249.3 22.22 248.69 18.67 246.43 14.6C237.84 -0.9 224.23 -2.71 219.03 9.65C215.82 17.27 224.49 26.28 231.61 32.05Z" />
		</g>
		<path id="Path 741" class="shp0" d="M522.13 269.92C536.52 255.51 547.48 239.22 536.58 236.68C525.66 234.14 507.33 262.52 504.13 288.36L500.94 296.89C503.6 278.1 497.13 255.22 487.67 254.27C478.27 253.34 483.96 268.18 491.43 280.87C497.11 290.54 498.61 298.16 498.98 302.1L483.88 342.38C488.01 312.62 477.77 276.51 462.8 275.02C447.87 273.53 456.91 297.09 468.76 317.23C477.71 332.45 480.12 344.49 480.74 350.78L477.73 358.81C479.04 359.55 480.37 360.28 481.69 361L499.65 313.07C503.12 310.5 508.38 307.38 515.87 304.86C529.87 300.15 543.93 292.65 536.21 287.22C529.51 282.51 513.76 291.58 502.91 304.37L509.13 287.8C511.93 283 515.91 276.14 522.13 269.92Z" />
		<g id="Group 292">
			<g id="Group 290" style="opacity: 0.102">
				<g id="Group 289">
					<path id="Path 742" class="shp2" d="M424.95 317.79C425.14 318.78 425.35 319.86 425.6 321L425.6 321C428.19 333.01 434.55 352.65 448.87 356.52C448.87 356.52 441.07 316.05 468.85 305.51C496.63 294.97 493.56 284.93 491.97 267.07C490.38 249.2 484.24 245.8 503.52 229.06C522.79 212.33 519.1 187.41 519.1 187.41C519.1 187.41 500.86 215.86 481.38 216.52C461.9 217.18 458.49 233.75 459.32 246.06C460.15 258.38 443.61 259.77 434.65 266.92C425.7 274.06 424.01 311.58 424.01 311.58C424.01 311.58 424.26 314.03 424.95 317.79Z" />
				</g>
			</g>
			<g id="Group 291">
				<path id="Path 743" class="shp2" d="M424.95 317.79C425.14 318.78 425.35 319.86 425.6 321C427.59 314.98 430.4 309.92 433.03 306.04C439.26 296.85 448.04 289.29 455.93 286.33C468.5 281.61 474.63 269.34 475.82 246.53C476.51 233.29 490.42 225.47 490.56 225.39C490.97 225.17 491.12 224.66 490.89 224.25C490.66 223.85 490.15 223.7 489.74 223.92C489.14 224.26 474.87 232.26 474.14 246.44C472.99 268.49 467.19 280.31 455.34 284.76C447.01 287.89 438.15 295.49 431.63 305.1C429.33 308.5 426.89 312.77 424.95 317.79Z" />
			</g>
		</g>
		<g id="Group 296">
			<g id="Group 294" style="opacity: 0.102">
				<g id="Group 293">
					<path id="Path 744" class="shp1" d="M117.5 356.3L137.02 356.3C126.47 354.56 100.32 343.38 97.99 320.96C95.04 292.57 84.88 292.92 67.78 289.96C50.67 286.99 45.96 291.83 35.1 269.79C24.23 247.75 0 244.97 0 244.97C0 244.97 22.09 268.97 17.86 287.21C13.63 305.45 28.28 312.73 40.01 315.03C51.74 317.32 48.93 333.02 53.38 343.1C55.42 347.7 63.74 352.47 72.2 356.3L117.5 356.3Z" />
				</g>
			</g>
			<g id="Group 295">
				<path id="Path 745" class="shp1" d="M75.22 328.35C76.07 336.85 80.98 346.96 88.35 355.4C88.61 355.69 88.88 355.99 89.16 356.3L91.38 356.3C90.74 355.63 90.14 354.97 89.58 354.33C82.53 346.26 77.65 336.24 76.84 328.19C75.55 315.35 65.59 306.61 44.55 299.83C32.33 295.9 28.48 281.05 28.44 280.9C28.33 280.47 27.89 280.2 27.46 280.31C27.02 280.42 26.75 280.86 26.86 281.29C27.02 281.94 30.96 297.16 44.05 301.37C64.39 307.92 74.01 316.24 75.22 328.35Z" />
			</g>
		</g>
		<g id="Group 331">
			<g id="Group 297">
				<path id="Path 746" class="shp3" d="M143.1 342.74C143.16 347.12 143.24 351.68 143.34 356.3L185.79 356.3C185.87 351.25 185.93 346.41 185.98 341.87C186.11 329.56 186.12 319.43 186.11 313.14C186.11 308.67 186.09 306.14 186.09 306.14L142.8 305.69C142.8 305.69 142.8 309.41 142.83 315.5C142.86 322.27 142.94 331.96 143.1 342.74Z" />
				<path id="Path 747" class="shp4" d="M142.83 315.5C142.86 322.27 142.94 331.96 143.1 342.74C156.43 343.75 171.05 343.76 185.98 341.87C186.11 329.56 186.12 319.43 186.11 313.14L142.83 315.5Z" />
			</g>
			<g id="Group 298">
				<path id="Path 748" class="shp3" d="M89.59 333.02C89.64 339.91 89.73 347.8 89.86 356.3L132.32 356.3C132.42 351.32 132.51 346.41 132.58 341.72C132.72 331.64 132.8 322.57 132.84 316.05C132.87 309.63 132.87 305.69 132.87 305.69L89.56 306.14C89.56 306.14 89.53 310.72 89.54 318.41C89.54 322.48 89.56 327.42 89.59 333.02Z" />
				<path id="Path 749" class="shp4" d="M89.54 318.41C89.54 322.48 89.56 327.42 89.59 333.02C98.22 335.55 113.65 339.49 132.58 341.72C132.72 331.64 132.8 322.57 132.84 316.05L89.54 318.41Z" />
			</g>
			<g id="Group 307">
				<path id="Path 750" class="shp3" d="M160.71 78.86C160.71 78.86 167.53 72.31 167.51 65.85C167.48 59.39 163.07 61.3 160.71 55.28C158.34 49.26 151.31 45.58 147.45 46.32C143.59 47.05 135.45 32.07 124.41 34.72C113.36 37.36 114.33 51.46 109.57 53.52C104.81 55.57 106.14 63.94 108.65 65.85C111.15 67.76 112.21 75.43 113.62 75.26C115.04 75.09 160.71 78.86 160.71 78.86Z" />
				<g id="Group 301">
					<path id="Path 751" class="shp5" d="M114.79 78.7C114.79 78.7 110.5 73.01 107.31 77.72C104.13 82.42 108.63 96.33 116.44 92.94L114.79 78.7Z" />
					<g id="Group 299">
						<path id="Path 752" class="shp6" d="M114.74 88.64C114.45 88.64 114.18 88.45 114.1 88.16C112.89 83.87 108.42 82.13 108.38 82.11C108.04 81.98 107.87 81.6 108 81.26C108.13 80.92 108.51 80.75 108.85 80.88C109.06 80.96 113.98 82.86 115.37 87.81C115.47 88.15 115.27 88.52 114.92 88.62C114.86 88.63 114.8 88.64 114.74 88.64Z" />
					</g>
					<g id="Group 300">
						<path id="Path 753" class="shp6" d="M110.23 86.48C110.11 86.48 109.98 86.44 109.87 86.37C109.57 86.18 109.48 85.77 109.67 85.46C109.71 85.41 110.5 84.21 112.15 83.48C112.48 83.33 112.87 83.48 113.02 83.81C113.17 84.14 113.02 84.53 112.69 84.68C111.41 85.25 110.79 86.17 110.78 86.18C110.66 86.37 110.44 86.48 110.23 86.48Z" />
					</g>
				</g>
				<g id="Group 305">
					<path id="Path 754" class="shp5" d="M158.99 78.7C158.99 78.7 163.28 73.01 166.47 77.72C169.66 82.42 165.15 96.33 157.35 92.94L158.99 78.7Z" />
					<g id="Group 302">
						<path id="Path 755" class="shp6" d="M159.05 88.64C159.34 88.64 159.6 88.45 159.68 88.16C160.89 83.87 165.36 82.13 165.41 82.11C165.75 81.98 165.92 81.6 165.79 81.26C165.66 80.92 165.28 80.75 164.94 80.88C164.73 80.96 159.81 82.86 158.41 87.81C158.32 88.15 158.52 88.52 158.87 88.62C158.93 88.63 158.99 88.64 159.05 88.64Z" />
					</g>
					<g id="Group 304">
						<g id="Group 303">
							<path id="Path 756" class="shp6" d="M163.56 86.48C163.68 86.48 163.81 86.44 163.92 86.37C164.22 86.18 164.31 85.77 164.11 85.46C164.08 85.41 163.29 84.21 161.64 83.48C161.31 83.33 160.91 83.48 160.76 83.81C160.62 84.14 160.76 84.53 161.1 84.68C162.38 85.25 163 86.17 163 86.18C163.13 86.37 163.34 86.48 163.56 86.48Z" />
						</g>
					</g>
				</g>
				<path id="Path 757" class="shp7" d="M147.45 104.74L147.45 118.57C147.45 118.57 143.31 125.61 137.71 126.09C132.11 126.58 127.14 120.03 127.14 120.03L127.14 105.71L147.45 104.74Z" />
				<path id="Path 758" class="shp5" d="M147.45 104.74L147.45 110.87C143.69 115.03 137.02 116.07 127.14 114.61L127.14 105.71L147.45 104.74Z" />
				<path id="Path 759" class="shp7" d="M162.1 69.21C161.84 74.59 161.32 81.31 160.29 86.69C160.04 88.03 159.75 89.29 159.42 90.42C156.5 100.61 149.19 118.09 128.72 110.81C119.68 107.6 115.49 97.57 113.62 87.37C112.36 80.44 112.16 73.44 112.26 68.44C112.36 63.34 115.15 58.67 119.61 56.15C131.7 49.33 144.44 51.88 152.84 55.09C158.66 57.32 162.39 63.02 162.1 69.21Z" />
				<path id="Path 760" fill-rule="evenodd" class="shp3" d="M116.44 86.8C116.98 89.46 118.17 91.97 119.64 94.2C122.03 88.5 134.12 92.28 134.12 92.28L136.47 93.02L138.75 92.28C138.75 92.28 150.71 88.34 153.19 93.76C155.66 89.94 157.35 86.48 157.35 86.48L160.3 86.68C160.3 86.68 157.57 96.54 157.35 100.07C157.12 103.59 154.4 107.85 148.9 111.71C145.69 113.97 145.95 116.88 140.23 118.96C133.34 121.46 129.16 117.36 126.41 112.18C124.49 108.55 119.37 107.74 117.49 103.45C115.61 99.15 113.62 87.37 113.62 87.37L116.44 86.8ZM124.94 100.35C126.46 101.74 127.85 102.74 128.78 103.26C131.76 104.92 134.7 105.55 136.84 105.45C138.93 105.36 139.51 105.79 144.82 102.93C145.76 102.43 146.71 101.69 147.64 100.8L147.64 100.8L147.64 100.8C147.73 100.51 150.18 92.51 136.47 94.86C122.78 93.02 124.94 100.35 124.94 100.35Z" />
				<path id="Path 761" class="shp3" d="M128.23 80.51C128.23 81.98 127.46 83.18 126.52 83.18C125.58 83.18 124.81 81.98 124.81 80.51C124.81 79.03 125.58 77.83 126.52 77.83C127.46 77.83 128.23 79.03 128.23 80.51Z" />
				<path id="Path 762" class="shp3" d="M148.52 80.51C148.52 81.98 147.75 83.18 146.81 83.18C145.87 83.18 145.1 81.98 145.1 80.51C145.1 79.03 145.87 77.83 146.81 77.83C147.75 77.83 148.52 79.03 148.52 80.51Z" />
				<path id="Path 763" class="shp3" d="M153.53 71.7C153.53 71.7 146.48 68.93 141.05 71.26L141.59 74.27C141.59 74.27 149.56 73.6 153.57 75.22C153.93 74.06 153.99 72.89 153.53 71.7Z" />
				<path id="Path 764" class="shp3" d="M119.99 71.72C119.99 71.72 127.1 68.92 132.57 71.27L132.02 74.3C132.02 74.3 123.99 73.63 119.95 75.26C119.59 74.09 119.53 72.91 119.99 71.72Z" />
				<g id="Group 306">
					<path id="Path 765" class="shp5" d="M137.12 91.71C138.24 91.71 139.34 91.28 139.51 91.21C139.85 91.07 140.01 90.69 139.87 90.35C139.74 90.02 139.35 89.86 139.01 89.99C138.42 90.23 136.99 90.61 136.37 90.24C136.25 90.17 136.08 90.03 136.04 89.63C135.8 87.34 136.43 79.64 136.44 79.57C136.47 79.2 136.2 78.89 135.84 78.86C135.47 78.83 135.16 79.1 135.12 79.46C135.1 79.78 134.48 87.35 134.73 89.77C134.82 90.68 135.3 91.14 135.69 91.37C136.11 91.62 136.62 91.71 137.12 91.71Z" />
				</g>
				<path id="Path 766" class="shp8" d="M128.71 96.17C129.21 98.68 130.88 103.3 136.49 103.3C142.11 103.3 143.69 99.08 144.23 96.17L128.71 96.17Z" />
				<path id="Path 767" class="shp3" d="M162.1 69.21C161.84 74.59 161.32 81.31 160.29 86.69L157.35 86.48C157.35 86.48 158.06 81.94 158.39 78.98C158.72 76.02 159.28 70.5 156.75 69.81C154.22 69.12 155.7 62.82 152.18 60.08C148.67 57.34 140.86 54.93 135.67 58.11C130.48 61.29 124.58 59.53 122.19 60.08C119.8 60.63 116.55 63.92 117.43 66.98C118.31 70.05 115.68 71.91 115.04 75.09C114.39 78.26 116.44 86.8 116.44 86.8L113.62 87.37C112.36 80.44 112.16 73.44 112.26 68.44C112.36 63.34 115.15 58.67 119.61 56.15C131.7 49.33 144.44 51.88 152.84 55.09C158.66 57.32 162.39 63.02 162.1 69.21Z" />
			</g>
			<g id="Group 328">
				<g id="Group 308">
					<path id="Path 768" class="shp9" d="M195.06 326.93C181.71 330.3 168.36 332.47 155 333.47C154.39 333.52 153.79 333.56 153.18 333.6C151.35 333.73 149.51 333.83 147.68 333.91C138.59 334.3 129.5 334.15 120.41 333.45C118.57 333.31 116.74 333.15 114.91 332.96C114.32 332.9 113.74 332.84 113.15 332.77C102.3 331.6 91.45 329.65 80.59 326.93C80.48 316.96 80.6 285.46 81.22 251.3C81.29 247.19 81.37 243.05 81.46 238.9C82.42 193.88 84.28 148.17 87.62 143.59C90.82 139.21 100.47 133.64 109.69 128.62C110.24 128.32 110.79 128.02 111.34 127.73C113.41 126.6 115.44 125.52 117.35 124.49C121.44 122.27 124.96 120.3 127.14 118.78L127.14 120.03C127.14 120.03 132.11 126.58 137.71 126.1C142.81 125.66 146.69 119.79 147.35 118.74C149.76 120.42 154.08 122.75 159.09 125.39C160.49 126.12 161.93 126.88 163.4 127.65C163.94 127.94 164.49 128.23 165.03 128.52C175.24 133.9 186.24 139.98 189.54 144.5C189.79 144.83 190.02 145.39 190.25 146.16C192.2 152.75 193.41 174.61 194.15 201.08L194.16 201.37C194.19 202.44 194.22 203.52 194.24 204.6C194.25 204.74 194.25 204.89 194.26 205.03C194.5 214.32 194.68 224.1 194.82 233.92C194.83 234.7 194.85 235.48 194.86 236.26C194.86 236.65 194.87 237.04 194.87 237.43C194.9 239.37 194.92 241.3 194.94 243.22C194.96 244.65 194.98 246.06 194.99 247.49C195.36 282.99 195.21 316.49 195.06 326.93Z" />
				</g>
				<g id="Group 309">
					<path id="Path 769" class="shp10" d="M194.24 204.6C191.03 199.38 187.58 194.04 184.33 189.33C184.32 189.31 184.32 189.3 184.31 189.29C182.94 187.31 181.62 185.44 180.35 183.73C180.33 183.7 180.31 183.67 180.29 183.65C179.89 183.11 179.5 182.59 179.12 182.08C179.06 181.99 179.01 181.9 178.98 181.8L178.98 181.8C178.88 181.46 178.99 181.08 179.29 180.85C179.69 180.55 180.24 180.63 180.54 181.02C184.44 186.17 189.43 193.57 194.15 201.08L194.16 201.37C194.19 202.44 194.22 203.52 194.24 204.6Z" />
				</g>
				<path id="Path 770" class="shp1" d="M189.68 143.77C189.68 143.77 209.81 180.51 222.08 199.13C222.08 199.13 229.06 192.74 238.14 184.2C247.98 174.93 261.45 159.45 261.45 159.45L268.89 168.25C268.89 168.25 238.65 222.46 225.08 229.27C211.52 236.08 186.52 187.86 186.52 187.86L189.68 143.77Z" />
				<g id="Group 310">
					<path id="Path 771" class="shp10" d="M104.42 288.56L104.39 288.56C103.89 288.54 103.49 288.12 103.51 287.62C104.57 257.95 89.12 248.34 88.96 248.25C88.53 247.99 88.39 247.43 88.65 247C88.91 246.57 89.47 246.43 89.9 246.69C90.07 246.79 94.15 249.26 98.11 255.59C101.72 261.37 105.9 271.63 105.33 287.69C105.32 288.17 104.91 288.56 104.42 288.56Z" />
				</g>
				<g id="Group 311">
					<path id="Path 772" class="shp10" d="M170.33 260.61C169.85 260.61 169.46 260.25 169.42 259.77C168.93 253.53 171 248.97 173.61 243.2C174.38 241.51 175.17 239.77 175.98 237.81C181.06 225.54 178.51 211.52 178.48 211.38C178.39 210.89 178.71 210.41 179.21 210.32C179.7 210.23 180.18 210.56 180.27 211.05C180.38 211.64 182.94 225.74 177.66 238.5C176.84 240.48 176.04 242.24 175.27 243.94C172.66 249.69 170.78 253.85 171.23 259.63C171.27 260.13 170.9 260.57 170.4 260.61C170.37 260.61 170.35 260.61 170.33 260.61Z" />
				</g>
				<g id="Group 324">
					<path id="Path 773" class="shp1" d="M117.35 124.49C117.74 127.41 118.31 131.2 118.93 135.5C119.12 136.78 119.31 138.1 119.51 139.46C120.14 143.91 120.8 148.75 121.35 153.64C121.5 154.95 121.65 156.27 121.78 157.58C122.27 162.42 122.64 167.23 122.77 171.71C122.82 173.06 122.83 174.38 122.83 175.66C122.82 179.08 122.63 182.21 122.21 184.9C121.95 186.59 121.71 188.25 121.5 189.87C121.33 191.21 121.18 192.54 121.04 193.84C120.51 198.88 120.24 203.58 120.17 208.01C120.14 209.35 120.14 210.67 120.15 211.96C120.19 216.98 120.48 221.67 120.9 226.13C121.02 227.46 121.16 228.77 121.3 230.07C121.84 234.94 122.51 239.58 123.13 244.17C123.31 245.48 123.49 246.79 123.66 248.1C123.93 250.19 124.19 252.29 124.41 254.4C124.64 256.64 124.79 259.26 124.87 262.16C124.9 263.43 124.92 264.76 124.92 266.12C124.94 270.47 124.83 275.27 124.63 280.3C124.57 281.61 124.52 282.94 124.45 284.29C124.22 288.96 123.93 293.76 123.6 298.5C123.5 299.83 123.4 301.16 123.3 302.48C122.93 307.42 122.53 312.22 122.11 316.69C121.99 318.05 121.87 319.38 121.74 320.66C121.27 325.59 120.81 329.96 120.41 333.45C129.5 334.15 138.59 334.3 147.68 333.91C147.89 330.19 148.47 324.2 149.04 317.15C149.14 315.86 149.25 314.53 149.35 313.17C149.69 308.69 150 303.89 150.2 299.05C150.26 297.73 150.31 296.4 150.34 295.07C150.48 290.24 150.48 285.44 150.28 280.95C150.21 279.58 150.14 278.25 150.03 276.95C149.92 275.62 149.79 274.32 149.64 273.07C149.2 269.54 149.03 266.14 149.06 262.79C149.06 261.46 149.09 260.13 149.16 258.81C149.36 254.21 149.87 249.6 150.45 244.71C150.61 243.41 150.77 242.08 150.94 240.74C151.46 236.38 152.01 231.77 152.44 226.71C152.56 225.42 152.66 224.09 152.76 222.73C153.06 218.4 153.26 213.74 153.29 208.67C153.3 207.36 153.3 206.02 153.28 204.66C153.23 200.26 153.05 195.56 152.69 190.5C152.66 190.05 152.63 189.6 152.59 189.14C152.52 188.25 152.47 187.36 152.43 186.47C152.19 181.85 152.25 177.1 152.51 172.36C152.59 171.03 152.67 169.7 152.78 168.37C153.14 163.63 153.68 158.93 154.3 154.43C154.48 153.09 154.67 151.77 154.86 150.46C155.61 145.53 156.41 140.88 157.14 136.73C157.39 135.37 157.62 134.05 157.84 132.8C158.34 130 158.77 127.5 159.09 125.39C154.08 122.75 149.76 120.42 147.35 118.74C146.69 119.79 142.81 125.66 137.7 126.09C132.11 126.58 127.14 120.03 127.14 120.03L127.14 118.78C124.96 120.3 121.44 122.27 117.35 124.49Z" />
					<g id="Group 323">
						<g id="Group 312">
							<path id="Path 774" class="shp11" d="M118.93 135.5C119.12 136.78 119.31 138.1 119.51 139.46C124.53 139.58 130.43 138.83 137.53 137.2C145.14 135.45 151.85 135.76 157.14 136.73C157.39 135.37 157.62 134.05 157.84 132.8C152.11 131.75 144.87 131.45 136.64 133.34C129.63 134.95 123.79 135.68 118.93 135.5Z" />
						</g>
						<g id="Group 313">
							<path id="Path 775" class="shp11" d="M121.35 153.64C121.5 154.95 121.65 156.27 121.78 157.58C126.28 157.46 131.47 156.71 137.53 155.32C143.83 153.87 149.52 153.84 154.3 154.43C154.48 153.09 154.67 151.77 154.86 150.46C149.68 149.82 143.51 149.88 136.64 151.45C130.75 152.81 125.69 153.55 121.35 153.64Z" />
						</g>
						<g id="Group 314">
							<path id="Path 776" class="shp11" d="M122.77 171.71C122.82 173.06 122.83 174.38 122.83 175.66C127.09 175.46 131.93 174.72 137.53 173.44C143.06 172.17 148.12 171.99 152.51 172.36C152.59 171.03 152.67 169.7 152.78 168.37C148.05 167.98 142.61 168.2 136.64 169.57C131.39 170.78 126.79 171.5 122.77 171.71Z" />
						</g>
						<g id="Group 315">
							<path id="Path 777" class="shp11" d="M121.04 193.84C125.72 193.78 131.13 193.03 137.53 191.56C143.13 190.27 148.25 190.1 152.69 190.5C152.66 190.05 152.63 189.6 152.59 189.14C152.52 188.25 152.47 187.36 152.43 186.47C147.78 186.12 142.46 186.36 136.64 187.69C130.82 189.03 125.81 189.76 121.5 189.87C121.33 191.21 121.18 192.54 121.04 193.84Z" />
						</g>
						<g id="Group 316">
							<path id="Path 778" class="shp11" d="M120.15 211.96C125.03 212 130.73 211.24 137.53 209.68C143.4 208.33 148.73 208.2 153.29 208.67C153.3 207.36 153.3 206.02 153.28 204.66C148.44 204.21 142.82 204.4 136.64 205.81C130.21 207.29 124.77 208.04 120.17 208.01C120.14 209.35 120.14 210.67 120.15 211.96Z" />
						</g>
						<g id="Group 317">
							<path id="Path 779" class="shp11" d="M120.9 226.13C121.02 227.46 121.16 228.77 121.3 230.07C125.92 229.99 131.25 229.24 137.53 227.8C143.04 226.54 148.08 226.34 152.44 226.71C152.56 225.42 152.66 224.09 152.76 222.73C148.03 222.35 142.6 222.57 136.64 223.94C130.55 225.33 125.34 226.08 120.9 226.13Z" />
						</g>
						<g id="Group 318">
							<path id="Path 780" class="shp11" d="M123.13 244.17C123.31 245.48 123.49 246.79 123.66 248.1C127.72 247.85 132.29 247.12 137.53 245.92C142.22 244.84 146.57 244.55 150.45 244.71C150.61 243.41 150.77 242.08 150.94 240.74C146.65 240.54 141.84 240.86 136.64 242.06C131.54 243.22 127.06 243.94 123.13 244.17Z" />
						</g>
						<g id="Group 319">
							<path id="Path 781" class="shp11" d="M124.87 262.16C124.9 263.43 124.92 264.76 124.92 266.12C128.66 265.81 132.83 265.12 137.53 264.04C141.67 263.09 145.54 262.75 149.06 262.79C149.06 261.46 149.09 260.13 149.16 258.81C145.34 258.77 141.14 259.14 136.64 260.18C132.28 261.18 128.36 261.84 124.87 262.16Z" />
						</g>
						<g id="Group 320">
							<path id="Path 782" class="shp11" d="M124.45 284.29C128.31 283.99 132.63 283.28 137.53 282.16C142.15 281.1 146.43 280.8 150.28 280.95C150.21 279.58 150.14 278.25 150.03 276.95C145.98 276.83 141.48 277.18 136.64 278.29C132.17 279.32 128.19 279.99 124.63 280.3C124.57 281.61 124.52 282.94 124.45 284.29Z" />
						</g>
						<g id="Group 321">
							<path id="Path 783" class="shp11" d="M123.3 302.48C127.44 302.25 132.14 301.52 137.53 300.28C142.12 299.23 146.38 298.92 150.2 299.05C150.26 297.73 150.31 296.4 150.34 295.07C146.21 294.93 141.61 295.27 136.64 296.42C131.74 297.54 127.41 298.24 123.6 298.5C123.5 299.83 123.4 301.16 123.3 302.48Z" />
						</g>
						<g id="Group 322">
							<path id="Path 784" class="shp11" d="M121.74 320.66C126.26 320.55 131.45 319.8 137.53 318.4C141.66 317.45 145.52 317.1 149.04 317.15C149.14 315.86 149.25 314.53 149.35 313.17C145.48 313.11 141.21 313.48 136.64 314.53C131.09 315.81 126.28 316.54 122.11 316.69C121.99 318.05 121.87 319.38 121.74 320.66Z" />
						</g>
					</g>
				</g>
				<g id="Group 327">
					<g id="Group 325">
						<path id="Path 785" class="shp10" d="M153.18 333.6C153.79 333.56 154.39 333.52 155 333.48C158.58 312.5 156.51 281.7 155.74 272.26C154.95 262.46 156.48 249.86 159.94 237.7C162.63 228.26 160.98 206.36 159.66 188.76C159.29 183.82 158.93 179.16 158.73 175.32C158.05 162.93 162.55 140.01 165.03 128.52C164.49 128.23 163.94 127.94 163.4 127.65C160.92 139.03 156.25 162.48 156.96 175.42C157.17 179.27 157.52 183.94 157.89 188.89C159.21 206.35 160.85 228.08 158.24 237.22C154.72 249.58 153.17 262.4 153.98 272.4C154.75 281.85 156.83 312.84 153.18 333.6Z" />
					</g>
					<g id="Group 326">
						<path id="Path 786" class="shp10" d="M116.48 248.24C118.58 261.14 117.92 269.52 117.15 279.21C116.9 282.35 116.65 285.59 116.46 289.17C115.9 300.39 114 323 113.15 332.78C113.74 332.84 114.32 332.9 114.91 332.96C115.76 323.18 117.67 300.52 118.23 289.25C118.41 285.7 118.67 282.47 118.92 279.36C119.69 269.54 120.36 261.07 118.22 247.96C117.77 245.14 117.28 242.29 116.8 239.44C114.41 225.39 111.94 210.85 113.11 203.88C113.39 202.18 113.76 200.25 114.15 198.21C115.73 189.8 117.71 179.34 117.08 170.27C116.46 161.27 112.76 136.91 111.34 127.73C110.79 128.02 110.24 128.32 109.69 128.62C111.17 138.22 114.72 161.65 115.32 170.38C115.93 179.24 113.97 189.58 112.41 197.88C112.02 199.93 111.65 201.87 111.36 203.59C110.15 210.85 112.53 224.88 115.05 239.74C115.54 242.58 116.02 245.43 116.48 248.24Z" />
					</g>
				</g>
			</g>
			<g id="Group 330">
				<path id="Path 787" class="shp7" d="M81.66 158.56C81.66 158.56 63.63 218.41 59.17 239.75C54.7 261.08 54.36 305.43 54.36 305.43C54.36 305.43 46.48 321.72 46.29 328.97C46.09 336.69 50.17 342.84 49.7 347.9C49.24 352.96 55.42 350.21 53.68 339.97C51.93 329.72 56.88 320.45 59.02 320.74C61.16 321.04 57.25 331.93 59.15 335.85C61.05 339.78 63.51 332.15 65.95 327.53C68.49 322.73 68.34 312.25 67.19 304.77C66.03 297.29 79.65 251.87 79.71 238.7L96.95 180.69C96.95 180.69 91.25 156.48 81.66 158.56Z" />
				<path id="Path 788" class="shp1" d="M99.16 179.24C98.55 183.08 96.41 189.69 93.65 197.99L93.65 198C93.42 198.7 93.18 199.41 92.94 200.14C92.92 200.17 92.91 200.21 92.9 200.24C92.21 202.31 91.49 204.47 90.75 206.71L90.73 206.75C87.68 215.99 84.29 226.57 81.45 237.43C80.48 241.15 79.56 244.91 78.76 248.65C77.72 253.43 76.84 258.2 76.2 262.87C73.9 279.67 69.49 300.96 69.49 300.96C63.03 303.61 52.92 300.12 52.92 300.12C52.92 300.12 52.66 269.46 54.1 257.54C55.89 242.81 58.16 232.33 60.97 220.29C68.71 187.17 82.34 154.75 86.08 146.16C86.37 145.47 86.61 144.94 86.77 144.57L89.99 144.57C96.32 148.57 100.81 168.87 99.16 179.24Z" />
				<path id="Path 789" class="shp12" d="M52.4 293.98L52.9 301.03C52.9 301.03 62.51 304.14 69.71 301.95L71.62 295.66C64.68 296.02 58.28 295.85 52.4 293.98Z" />
				<g id="Group 329">
					<path id="Path 790" class="shp10" d="M93.65 197.99L93.65 198C93.65 198.1 93.63 198.2 93.6 198.3C93.38 198.9 93.16 199.51 92.94 200.14C92.92 200.17 92.91 200.21 92.9 200.24C92.19 202.24 91.47 204.42 90.75 206.71L90.73 206.75C86.97 218.66 83.14 233.65 81.38 243.22C81.4 241.3 81.42 239.36 81.45 237.43C80.48 241.15 79.56 244.91 78.76 248.65C79.12 245.14 80.13 239.88 81.5 233.92C84.28 221.86 88.55 206.92 91.93 197.7C92.1 197.24 92.61 197.01 93.07 197.18C93.43 197.31 93.65 197.64 93.65 197.99Z" />
				</g>
			</g>
		</g>
		<g id="Group 370">
			<g id="Group 335">
				<g id="Group 333">
					<g id="Group 332">
						<path id="Path 791" class="shp3" d="M416.07 356.3L458.64 356.3C458.5 353.35 458.36 350.54 458.22 347.87C457.48 333.35 456.85 323.47 456.85 323.47L422.23 325L419.35 325.13L414.26 325.36C414.26 325.36 414.75 334.2 415.52 347.15C415.69 350.01 415.87 353.08 416.07 356.3Z" />
					</g>
				</g>
				<path id="Path 792" class="shp4" d="M419.35 325.13L414.26 325.36C414.26 325.36 414.75 334.2 415.52 347.15C428.82 348.25 443.35 348.7 458.22 347.87C457.48 333.35 456.85 323.47 456.85 323.47L422.23 325L419.35 325.13Z" />
				<g id="Group 334">
					<path id="Path 793" class="shp4" d="M423.99 356.3C423.21 342.86 422.57 331.38 422.22 325L419.35 325.13C419.7 331.48 420.34 342.9 421.11 356.3L423.99 356.3Z" />
				</g>
			</g>
			<g id="Group 339">
				<g id="Group 337">
					<g id="Group 336">
						<path id="Path 794" class="shp3" d="M403.57 356.3C403.79 352.66 404 349.2 404.19 346.02C404.92 333.68 405.38 325.36 405.38 325.36L399.85 325.11L396.99 324.98L362.79 323.47C362.79 323.47 362.41 329.36 361.9 338.73C361.62 343.72 361.31 349.7 361 356.3L403.57 356.3Z" />
					</g>
				</g>
				<path id="Path 795" class="shp4" d="M361.9 338.73C371.18 340.9 386.15 343.95 404.19 346.02C404.92 333.68 405.38 325.36 405.38 325.36L399.85 325.11L396.99 324.98L362.79 323.47C362.79 323.47 362.41 329.36 361.9 338.73Z" />
				<g id="Group 338">
					<path id="Path 796" class="shp4" d="M398.09 356.3C398.87 342.89 399.5 331.45 399.85 325.11L396.98 324.98C396.63 331.35 396 342.84 395.22 356.3L398.09 356.3Z" />
				</g>
			</g>
			<g id="Group 348">
				<g id="Group 343">
					<g id="Group 342">
						<g id="Group 341">
							<g id="Group 340">
								<path id="Path 797" class="shp1" d="M463.03 330.08C454.36 332.45 445.69 334.25 437.02 335.45C434 335.88 430.99 336.23 427.97 336.5C423.91 336.88 419.84 337.13 415.78 337.26C409.06 337.46 402.35 337.31 395.63 336.82C382.63 335.87 369.64 333.61 356.65 330.08C356.53 318.01 356.71 274.74 357.62 233.01C357.66 231.14 357.7 229.27 357.75 227.4C357.76 227.01 357.77 226.61 357.78 226.22C357.79 225.78 357.8 225.35 357.81 224.93C357.84 223.6 357.88 222.28 357.91 220.97C357.98 218.29 358.05 215.63 358.12 213C358.17 211.42 358.22 209.86 358.26 208.31C358.27 207.99 358.28 207.67 358.29 207.35C358.33 206.32 358.36 205.31 358.39 204.3L358.39 204.29C358.4 203.98 358.41 203.67 358.42 203.35C358.45 202.42 358.48 201.49 358.51 200.58C358.54 199.79 358.57 199.03 358.6 198.25C359.6 170.1 361.07 147.89 363.18 144.76C366.75 139.46 378.92 132.41 388.71 126.68C392.2 124.64 396.36 122.51 398.74 120.94C402.22 123.73 404.74 126.24 409.89 126.07C415.66 125.88 417.08 122.42 419.28 119.46C420.62 120.33 424.03 123.12 425.8 124.15C427.32 125.04 428.96 125.98 430.67 126.96C433.32 128.47 436.13 130.08 438.93 131.71C443.06 134.14 447.13 136.64 450.52 139.03C453.89 141.41 456.57 143.7 457.9 145.67C459.81 148.53 461.05 167.05 461.85 191.43C461.88 192.28 461.9 193.14 461.94 194.01C461.94 194.12 461.94 194.22 461.94 194.33C461.97 195.22 462 196.13 462.02 197.03C462.1 199.78 462.17 202.58 462.25 205.43C462.26 206.03 462.28 206.64 462.29 207.24C462.3 207.69 462.31 208.15 462.32 208.6C462.34 209.77 462.37 210.95 462.4 212.13C462.4 212.37 462.41 212.61 462.41 212.85C462.48 215.97 462.54 219.14 462.59 222.34C462.61 223.28 462.63 224.21 462.64 225.15C463.37 269.03 463.2 317.11 463.03 330.08Z" />
							</g>
						</g>
					</g>
				</g>
				<path id="Path 798" class="shp13" d="M462.64 225.15L448.91 239.02L436.11 226.11L423.32 239.02L410.48 226.05L397.63 239.02L384.7 225.97L371.77 239.02L357.81 224.93C357.84 223.6 357.88 222.28 357.91 220.97C357.98 218.29 358.05 215.63 358.12 213L371.77 199.21L384.7 212.27L397.63 199.21L410.48 212.18L423.32 199.21L436.11 212.13L448.91 199.21L462.41 212.85C462.48 215.97 462.54 219.14 462.59 222.34C462.61 223.28 462.63 224.21 462.64 225.15Z" />
				<g id="Group 344">
					<path id="Path 799" class="shp8" d="M438.93 296.66L438.93 296.66C420.54 296.58 404.85 288.24 394.92 281.27C384.18 273.72 377.67 266.08 377.61 266C377.29 265.63 377.34 265.07 377.71 264.76C378.09 264.45 378.65 264.49 378.96 264.87C379.02 264.94 385.41 272.44 395.98 279.86C405.69 286.67 421.03 294.82 438.94 294.9C439.43 294.9 439.82 295.29 439.82 295.78C439.82 296.27 439.42 296.66 438.93 296.66Z" />
				</g>
				<g id="Group 345">
					<path id="Path 800" class="shp8" d="M427.46 285.83C411.81 282.76 397.95 270.82 397.32 270.27C396.95 269.95 396.91 269.39 397.23 269.03C397.56 268.66 398.11 268.63 398.48 268.94C398.65 269.09 414.96 283.13 431.58 284.64C432.07 284.68 432.42 285.12 432.38 285.6C432.33 286.08 431.9 286.44 431.42 286.4C430.09 286.28 428.77 286.08 427.46 285.83Z" />
				</g>
				<g id="Group 346">
					<path id="Path 801" class="shp8" d="M396.11 150.31C395.69 150.31 395.32 150.01 395.24 149.59C395.15 149.11 395.46 148.65 395.94 148.56C418.36 144.32 425.12 129.96 425.19 129.81C425.39 129.37 425.91 129.17 426.36 129.37C426.8 129.57 427 130.1 426.8 130.54C426.51 131.16 419.59 145.88 396.27 150.29C396.22 150.3 396.16 150.31 396.11 150.31Z" />
				</g>
				<g id="Group 347">
					<path id="Path 802" class="shp10" d="M368.75 188.97L368.75 188.98C368.73 189.07 368.69 189.17 368.63 189.26C368.3 189.79 367.95 190.35 367.6 190.91C367.58 190.95 367.56 190.97 367.54 191.01C366.42 192.81 365.25 194.78 364.05 196.87C364.05 196.88 364.04 196.89 364.03 196.9C362.15 200.18 360.2 203.74 358.29 207.35C358.33 206.32 358.36 205.31 358.39 204.3L358.39 204.29C358.4 203.98 358.41 203.67 358.42 203.35C361.5 197.67 364.56 192.35 367.14 188.32C367.4 187.9 367.95 187.79 368.36 188.04C368.68 188.25 368.83 188.62 368.75 188.97Z" />
				</g>
			</g>
			<g id="Group 351">
				<path id="Path 803" class="shp7" d="M481.73 156.31C481.73 156.31 510.4 147.13 518.88 128.4C521.33 122.97 501.12 67.88 501.12 67.88L491.36 68.35C491.36 68.35 494.14 87.47 495.83 98.29C497.21 107.19 499.45 117.82 500.21 121.32C500.37 122.08 500.46 122.5 500.46 122.5C499.99 122.59 499.51 122.68 499.02 122.78C485.62 125.48 468.52 134.17 468.52 134.17L481.73 156.31Z" />
				<g id="Group 350">
					<g id="Group 349">
						<path id="Path 804" class="shp5" d="M507.67 127.78C508.07 128.08 508.66 127.99 508.95 127.58C509.26 127.17 509.16 126.6 508.75 126.31C506.66 124.8 503.51 123.03 500.21 121.32C500.37 122.08 500.46 122.5 500.46 122.5C499.99 122.59 499.51 122.68 499.02 122.78C502.38 124.5 505.6 126.29 507.67 127.78Z" />
					</g>
				</g>
				<path id="Path 805" class="shp1" d="M437.86 131.11C437.86 131.11 429.19 151.37 451.26 162.66C466.54 170.47 501.35 150.08 501.35 150.08L488.94 123.84C488.94 123.84 457.09 136.92 437.86 131.11Z" />
				<path id="Path 806" class="shp7" d="M496.12 36.91C495.26 37.51 495.44 41.23 495.82 44.74C495.69 44.76 495.57 44.78 495.44 44.8C494.42 40.12 492.38 32.16 490.63 33.68C489.48 34.67 491.02 41.54 492.06 45.64C491.84 45.71 491.63 45.77 491.41 45.84C490.1 40.97 487.26 31.59 485.37 33.41C484.11 34.63 486.53 42.89 487.87 47.11C487.68 47.18 487.5 47.25 487.32 47.32C486.04 43.24 483.29 35.5 481.41 37.32C479.71 38.96 484.59 50.66 484.59 50.66L484.59 50.66L485.87 55.25C485.87 55.25 484.35 55.9 481.98 53.23C479.61 50.56 476.77 50.09 478.74 53.95C480.97 58.32 484.26 61.45 485.71 64.54C487.16 67.64 491.72 68.66 491.72 68.66L500.89 68.22C500.89 68.22 502.66 52.79 499.25 45.44L499.25 45.44C498.66 41.07 497.63 35.86 496.12 36.91Z" />
			</g>
			<g id="Group 368">
				<path id="Path 807" class="shp3" d="M382.76 72.47C382.76 88.02 392.37 98.72 407.97 98.72C423.58 98.72 434.45 87.21 434.45 71.67C434.45 67.38 433.75 63.38 432.4 59.84C432.32 59.63 432.24 59.42 432.16 59.21C431.99 58.81 431.82 58.41 431.63 58.02C431.36 57.42 431.06 56.83 430.74 56.26C426.68 48.99 419.39 44.36 409.61 44.36C390.89 44.36 382.76 56.93 382.76 72.47Z" />
				<g id="Group 354">
					<path id="Path 808" class="shp5" d="M386.27 79.16C386.27 79.16 381.93 73.41 378.71 78.17C375.48 82.93 380.04 96.99 387.93 93.56L386.27 79.16Z" />
					<g id="Group 352">
						<path id="Path 809" class="shp6" d="M386.21 89.21C385.92 89.21 385.65 89.02 385.57 88.73C384.35 84.39 379.83 82.63 379.78 82.61C379.44 82.48 379.27 82.09 379.4 81.75C379.53 81.41 379.91 81.24 380.26 81.37C380.47 81.45 385.44 83.37 386.85 88.37C386.95 88.72 386.74 89.09 386.39 89.19C386.33 89.2 386.27 89.21 386.21 89.21Z" />
					</g>
					<g id="Group 353">
						<path id="Path 810" class="shp6" d="M381.65 87.02C381.53 87.02 381.4 86.99 381.29 86.92C380.98 86.72 380.89 86.31 381.09 86C381.13 85.95 381.92 84.73 383.6 83.99C383.93 83.84 384.33 83.99 384.48 84.33C384.63 84.66 384.48 85.05 384.14 85.2C382.85 85.78 382.22 86.71 382.21 86.72C382.09 86.92 381.87 87.02 381.65 87.02Z" />
					</g>
				</g>
				<g id="Group 359">
					<path id="Path 811" class="shp5" d="M430.95 79.16C430.95 79.16 435.28 73.41 438.51 78.17C441.73 82.93 437.17 96.99 429.28 93.56L430.95 79.16Z" />
					<g id="Group 355">
						<path id="Path 812" class="shp6" d="M431 89.21C431.29 89.21 431.56 89.02 431.64 88.73C432.87 84.39 437.38 82.63 437.43 82.61C437.77 82.48 437.94 82.09 437.82 81.75C437.68 81.41 437.3 81.24 436.96 81.37C436.74 81.45 431.77 83.37 430.36 88.37C430.26 88.72 430.47 89.09 430.82 89.19C430.88 89.2 430.94 89.21 431 89.21Z" />
					</g>
					<g id="Group 358">
						<g id="Group 357">
							<g id="Group 356">
								<path id="Path 813" class="shp6" d="M435.56 87.02C435.68 87.02 435.81 86.99 435.92 86.92C436.23 86.72 436.32 86.31 436.12 86C436.09 85.95 435.29 84.73 433.62 83.99C433.28 83.84 432.89 83.99 432.74 84.33C432.59 84.66 432.74 85.05 433.07 85.2C434.36 85.78 434.99 86.71 435 86.72C435.13 86.92 435.34 87.02 435.56 87.02Z" />
							</g>
						</g>
					</g>
				</g>
				<path id="Path 814" class="shp7" d="M419.28 105.48L419.28 119.46C419.28 119.46 415.09 126.58 409.43 127.07C403.77 127.56 398.75 120.94 398.75 120.94L398.75 106.47L419.28 105.48Z" />
				<path id="Path 815" class="shp5" d="M419.28 105.48L419.28 111.69C415.48 115.88 408.73 116.93 398.75 115.47L398.75 106.47L419.28 105.48Z" />
				<path id="Path 816" class="shp7" d="M434.08 69.57C433.82 75.01 433.3 81.8 432.26 87.23C432 88.59 431.71 89.87 431.38 91.01C428.43 101.31 421.03 118.98 400.34 111.62C391.21 108.37 386.97 98.23 385.08 87.93C383.8 80.92 383.61 73.85 383.7 68.79C383.8 63.63 386.63 58.92 391.14 56.37C403.35 49.48 416.24 52.05 424.72 55.3C430.61 57.55 434.38 63.31 434.08 69.57Z" />
				<path id="Path 817" class="shp3" d="M399.73 80.99C399.73 82.48 398.96 83.69 398.01 83.69C397.06 83.69 396.28 82.48 396.28 80.99C396.28 79.5 397.06 78.29 398.01 78.29C398.96 78.29 399.73 79.5 399.73 80.99Z" />
				<path id="Path 818" class="shp3" d="M420.07 80.93C420.07 82.43 419.3 83.64 418.34 83.64C417.39 83.64 416.62 82.43 416.62 80.93C416.62 79.44 417.39 78.23 418.34 78.23C419.3 78.23 420.07 79.44 420.07 80.93Z" />
				<path id="Path 819" class="shp3" d="M423.97 71.65C423.97 71.65 418.53 69.5 414.33 71.31L414.75 73.63C414.75 73.63 420.9 73.11 424 74.36C424.28 73.47 424.32 72.56 423.97 71.65Z" />
				<path id="Path 820" class="shp3" d="M392.25 71.65C392.25 71.65 397.7 69.5 401.89 71.31L401.47 73.63C401.47 73.63 395.32 73.11 392.22 74.36C391.94 73.47 391.9 72.56 392.25 71.65Z" />
				<g id="Group 360">
					<path id="Path 821" class="shp5" d="M408.84 92.32C409.96 92.32 411.08 91.88 411.25 91.81C411.59 91.67 411.76 91.28 411.62 90.94C411.48 90.6 411.09 90.44 410.75 90.58C410.15 90.82 408.7 91.2 408.07 90.83C407.95 90.76 407.79 90.62 407.75 90.21C407.5 87.89 408.14 80.12 408.15 80.04C408.18 79.67 407.91 79.35 407.54 79.32C407.17 79.29 406.85 79.56 406.82 79.93C406.79 80.25 406.16 87.91 406.42 90.35C406.51 91.27 407 91.74 407.39 91.97C407.82 92.23 408.33 92.32 408.84 92.32Z" />
				</g>
				<path id="Path 822" class="shp8" d="M399.88 95.69C400.99 99.52 404.14 103.34 408.48 103.4C412.82 103.34 415.97 99.52 417.08 95.69L399.88 95.69Z" />
				<g id="Group 361">
					<path id="Path 823" class="shp5" d="M408.11 107.56C409.84 107.56 411.3 106.69 411.36 106.65C411.68 106.46 411.78 106.05 411.59 105.74C411.4 105.43 410.99 105.33 410.67 105.52C410.66 105.52 409.46 106.23 408.11 106.23C406.88 106.23 405.7 105.53 405.69 105.52C405.37 105.33 404.96 105.42 404.77 105.74C404.57 106.05 404.67 106.46 404.98 106.65C405.04 106.69 406.48 107.56 408.11 107.56Z" />
				</g>
				<path id="Path 824" class="shp3" d="M433.38 79.28L430.35 79.28C430.69 76.26 431.17 70.94 428.67 70.17C420.8 67.76 431 62.22 427.45 59.46C423.89 56.69 415.04 57.87 408.89 57.68C402.7 57.48 392.75 57.56 390.33 58.12C387.91 58.67 389.24 62.68 390.13 65.78C391.02 68.87 387.16 72.3 386.51 75.51C386.32 76.43 386.36 77.8 386.51 79.28L383.99 79.28C383.69 75.38 383.65 71.74 383.7 68.79C383.8 63.63 386.63 58.92 391.14 56.37C403.35 49.48 416.24 52.05 424.72 55.3C430.61 57.55 434.38 63.31 434.08 69.57C433.94 72.55 433.72 75.94 433.38 79.28Z" />
				<g id="Group 367">
					<g id="Group 362">
						<path id="Path 825" fill-rule="evenodd" class="shp8" d="M397.71 88.81C393.54 88.81 390.15 85.44 390.15 81.29C390.15 77.15 393.54 73.77 397.71 73.77C401.87 73.77 405.26 77.15 405.26 81.29C405.26 85.44 401.87 88.81 397.71 88.81ZM397.71 74.95C394.19 74.95 391.33 77.79 391.33 81.29C391.33 84.79 394.19 87.64 397.71 87.64C401.22 87.64 404.08 84.79 404.08 81.29C404.08 77.79 401.22 74.95 397.71 74.95Z" />
					</g>
					<g id="Group 363">
						<path id="Path 826" fill-rule="evenodd" class="shp8" d="M418.34 88.81C414.18 88.81 410.79 85.44 410.79 81.29C410.79 77.15 414.18 73.77 418.34 73.77C422.51 73.77 425.9 77.15 425.9 81.29C425.9 85.44 422.51 88.81 418.34 88.81ZM418.34 74.95C414.83 74.95 411.97 77.79 411.97 81.29C411.97 84.79 414.83 87.64 418.34 87.64C421.86 87.64 424.72 84.79 424.72 81.29C424.72 77.79 421.86 74.95 418.34 74.95Z" />
					</g>
					<g id="Group 364">
						<path id="Path 827" class="shp8" d="M391.43 78.87C391.28 78.87 391.13 78.82 391.02 78.7L391.02 78.7C390.98 78.67 387.55 75.35 383.05 76.4C382.74 76.47 382.42 76.28 382.35 75.96C382.27 75.65 382.47 75.33 382.78 75.26C387.93 74.06 391.69 77.72 391.85 77.87C392.08 78.1 392.08 78.47 391.85 78.7C391.73 78.82 391.58 78.87 391.43 78.87Z" />
					</g>
					<g id="Group 365">
						<path id="Path 828" class="shp8" d="M424.76 78.87C424.57 78.87 424.38 78.78 424.27 78.61C424.09 78.34 424.16 77.97 424.44 77.8C424.66 77.65 430 74.22 434.55 74.96C434.87 75.02 435.09 75.32 435.04 75.64C434.98 75.95 434.68 76.17 434.36 76.12C430.27 75.45 425.13 78.74 425.08 78.78C424.98 78.84 424.87 78.87 424.76 78.87Z" />
					</g>
					<g id="Group 366">
						<path id="Path 829" class="shp8" d="M411.21 79.61C411.2 79.59 409.8 77.7 407.96 77.7C406.14 77.7 404.87 79.58 404.86 79.6L403.88 78.96C403.94 78.86 405.49 76.53 407.96 76.53C410.4 76.53 412.09 78.82 412.16 78.92L411.21 79.61Z" />
					</g>
				</g>
			</g>
			<g id="Group 369">
				<path id="Path 830" class="shp7" d="M366.27 187.86C366.27 187.86 358.31 203.2 348.94 215.35C346.18 218.94 343.3 222.24 340.45 224.8C335.85 228.94 331.36 231.1 327.7 229.27C314.13 222.46 283.89 168.25 283.89 168.25L291.34 159.45C291.34 159.45 304.8 174.93 314.64 184.2C323.72 192.74 330.7 199.13 330.7 199.13C331.96 197.22 333.3 195.14 334.69 192.93C336.17 190.58 337.71 188.1 339.27 185.55C350.6 167.01 363.18 144.76 363.18 144.76L366.27 187.86Z" />
				<path id="Path 831" class="shp5" d="M348.94 215.35C346.18 218.94 343.3 222.24 340.45 224.8L334.69 192.93C336.17 190.58 337.71 188.1 339.27 185.55L348.94 215.35Z" />
				<path id="Path 832" class="shp1" d="M363.18 144.76L335.99 187.35L345.12 224.8L367.62 188.32C367.62 188.32 370.34 163.36 363.18 144.76Z" />
			</g>
		</g>
		<g id="Group 376">
			<path id="Path 833" class="shp1" d="M329 356.3C327.06 345.58 325.14 333.49 323.4 321.76C323.02 319.16 322.65 316.59 322.28 314.05C320.88 304.33 319.64 295.14 318.64 287.52C318.26 284.62 317.91 281.95 317.6 279.56C316.63 271.95 316.06 267.22 316.06 267.22L273.13 268.84L230.07 267.22C230.07 267.22 228.96 276.58 227.18 290.14C226.86 292.61 226.51 295.21 226.15 297.93C225.19 305.05 224.1 312.91 222.92 320.96C222.9 321.08 222.89 321.19 222.87 321.31C222.5 323.82 222.13 326.35 221.74 328.87C221.74 328.91 221.73 328.94 221.72 328.97L221.72 328.98C220.8 335.08 219.84 341.17 218.86 347.04C218.45 349.46 218.04 351.84 217.63 354.15C217.5 354.87 217.38 355.59 217.25 356.3L329 356.3Z" />
			<g id="Group 371">
				<path id="Path 834" class="shp10" d="M239.96 280.06C239.96 282.29 238.15 284.09 235.92 284.09C233.68 284.09 231.87 282.29 231.87 280.06C231.87 277.84 233.68 276.04 235.92 276.04C238.15 276.04 239.96 277.84 239.96 280.06Z" />
				<path id="Path 835" class="shp10" d="M250.01 295.68C250.01 297.9 248.19 299.7 245.96 299.7C243.73 299.7 241.91 297.9 241.91 295.68C241.91 293.45 243.73 291.65 245.96 291.65C248.19 291.65 250.01 293.45 250.01 295.68Z" />
				<path id="Path 836" class="shp10" d="M269.76 287.62C269.76 289.84 267.95 291.65 265.71 291.65C263.48 291.65 261.67 289.84 261.67 287.62C261.67 285.39 263.48 283.59 265.71 283.59C267.95 283.59 269.76 285.39 269.76 287.62Z" />
				<path id="Path 837" class="shp10" d="M238.58 312.25C238.58 314.48 236.77 316.29 234.54 316.29C232.3 316.29 230.49 314.48 230.49 312.25C230.49 310.03 232.3 308.23 234.54 308.23C236.77 308.23 238.58 310.03 238.58 312.25Z" />
				<path id="Path 838" class="shp10" d="M263.27 310.53C263.27 312.76 261.46 314.56 259.22 314.56C256.99 314.56 255.17 312.76 255.17 310.53C255.17 308.31 256.99 306.5 259.22 306.5C261.46 306.5 263.27 308.31 263.27 310.53Z" />
				<path id="Path 839" class="shp10" d="M229.81 293.92C229.81 296.02 228.21 297.74 226.15 297.93C226.51 295.21 226.86 292.61 227.18 290.14C228.72 290.71 229.81 292.19 229.81 293.92Z" />
				<path id="Path 840" class="shp2" d="M303.49 334.21C303.49 336.43 301.68 338.24 299.45 338.24C297.21 338.24 295.4 336.43 295.4 334.21C295.4 331.98 297.21 330.18 299.45 330.18C301.68 330.18 303.49 331.98 303.49 334.21Z" />
				<path id="Path 841" class="shp10" d="M301.58 312.25C301.58 314.48 299.77 316.29 297.54 316.29C295.3 316.29 293.49 314.48 293.49 312.25C293.49 310.03 295.3 308.23 297.54 308.23C299.77 308.23 301.58 310.03 301.58 312.25Z" />
				<path id="Path 842" class="shp10" d="M323.4 321.76C322.92 321.96 322.38 322.08 321.81 322.08C319.58 322.08 317.77 320.27 317.77 318.05C317.77 315.82 319.58 314.02 321.81 314.02C321.97 314.02 322.13 314.03 322.28 314.05C322.65 316.59 323.02 319.16 323.4 321.76Z" />
				<path id="Path 843" class="shp2" d="M305.63 350.29C305.63 352.52 303.82 354.32 301.58 354.32C299.35 354.32 297.54 352.52 297.54 350.29C297.54 348.07 299.35 346.26 301.58 346.26C303.82 346.26 305.63 348.07 305.63 350.29Z" />
				<path id="Path 844" class="shp2" d="M322.94 343.86C322.94 346.09 321.12 347.89 318.89 347.89C316.65 347.89 314.84 346.09 314.84 343.86C314.84 341.63 316.65 339.83 318.89 339.83C321.12 339.83 322.94 341.63 322.94 343.86Z" />
				<path id="Path 845" class="shp10" d="M286.92 356.3C286.19 355.24 284.97 354.54 283.59 354.54C282.2 354.54 280.98 355.24 280.25 356.3L286.92 356.3Z" />
				<path id="Path 846" class="shp2" d="M235.92 337.71C235.92 339.94 234.11 341.74 231.87 341.74C229.64 341.74 227.83 339.94 227.83 337.71C227.83 335.48 229.64 333.68 231.87 333.68C234.11 333.68 235.92 335.48 235.92 337.71Z" />
				<path id="Path 847" class="shp10" d="M225.24 324.98C225.24 327.03 223.71 328.72 221.72 328.97C221.73 328.94 221.74 328.91 221.74 328.87C222.13 326.35 222.5 323.82 222.87 321.31C224.27 321.95 225.24 323.35 225.24 324.98Z" />
				<path id="Path 848" class="shp2" d="M220.51 350.29C220.51 352.11 219.3 353.65 217.63 354.15C218.04 351.84 218.45 349.46 218.86 347.04C219.86 347.77 220.51 348.96 220.51 350.29Z" />
				<path id="Path 849" class="shp2" d="M245.96 352C245.96 354.22 244.15 356.02 241.91 356.02C239.68 356.02 237.87 354.22 237.87 352C237.87 349.77 239.68 347.97 241.91 347.97C244.15 347.97 245.96 349.77 245.96 352Z" />
				<path id="Path 850" class="shp10" d="M267.31 348.84C267.31 351.07 265.5 352.87 263.27 352.87C261.03 352.87 259.22 351.07 259.22 348.84C259.22 346.61 261.03 344.81 263.27 344.81C265.5 344.81 267.31 346.61 267.31 348.84Z" />
				<path id="Path 851" class="shp2" d="M252.08 329.03C252.08 331.25 250.27 333.06 248.03 333.06C245.8 333.06 243.99 331.25 243.99 329.03C243.99 326.8 245.8 325 248.03 325C250.27 325 252.08 326.8 252.08 329.03Z" />
				<path id="Path 852" class="shp10" d="M273.81 325C273.81 327.22 271.99 329.03 269.76 329.03C267.53 329.03 265.71 327.22 265.71 325C265.71 322.77 267.53 320.97 269.76 320.97C271.99 320.97 273.81 322.77 273.81 325Z" />
				<path id="Path 853" class="shp10" d="M283.59 303.74C283.59 305.96 281.78 307.76 279.54 307.76C277.31 307.76 275.5 305.96 275.5 303.74C275.5 301.51 277.31 299.7 279.54 299.7C281.78 299.7 283.59 301.51 283.59 303.74Z" />
				<path id="Path 854" class="shp10" d="M318.64 287.52C318.36 287.58 318.07 287.62 317.77 287.62C315.53 287.62 313.72 285.81 313.72 283.59C313.72 281.42 315.44 279.65 317.6 279.56C317.91 281.95 318.26 284.62 318.64 287.52Z" />
				<path id="Path 855" class="shp10" d="M297.54 287.62C297.54 289.84 295.72 291.65 293.49 291.65C291.26 291.65 289.44 289.84 289.44 287.62C289.44 285.39 291.26 283.59 293.49 283.59C295.72 283.59 297.54 285.39 297.54 287.62Z" />
				<path id="Path 856" class="shp10" d="M312.36 301.98C312.36 304.2 310.54 306.01 308.31 306.01C306.07 306.01 304.26 304.2 304.26 301.98C304.26 299.75 306.07 297.95 308.31 297.95C310.54 297.95 312.36 299.75 312.36 301.98Z" />
				<path id="Path 857" class="shp2" d="M287.63 337.71C287.63 339.94 285.82 341.74 283.59 341.74C281.35 341.74 279.54 339.94 279.54 337.71C279.54 335.48 281.35 333.68 283.59 333.68C285.82 333.68 287.63 335.48 287.63 337.71Z" />
			</g>
			<path id="Path 858" class="shp2" d="M318.67 268.28C296.03 283 254.44 281.85 228.31 268.28C230.81 252.8 234.09 237.29 233.39 216.68C233.31 214.42 233.21 212.18 233.1 209.95C233 208.02 232.88 206.1 232.76 204.19C230.5 169.91 224.63 141.88 227.52 138.25C228.78 136.67 230.88 134.95 233.47 133.2C234.49 132.51 235.58 131.81 236.73 131.11C239.44 129.47 242.45 127.81 245.48 126.19C252.66 122.37 259.95 118.83 263.61 116.41C267.23 117.98 270.12 118.84 273.23 118.82C273.31 118.82 273.4 118.82 273.5 118.81C273.58 118.82 273.67 118.82 273.76 118.82C276.87 118.84 279.75 117.98 283.38 116.41C286.77 118.65 293.16 121.78 299.67 125.2C304.46 127.71 309.32 130.38 313.1 132.97C315.57 134.66 317.59 136.32 318.83 137.87C320.26 139.67 319.66 147.54 318.44 159.21C317.23 170.69 315.41 185.84 314.32 202.5C314.01 207.13 313.76 211.87 313.6 216.68C312.9 237.29 316.18 252.8 318.67 268.28Z" />
			<g id="Group 372">
				<path id="Path 859" class="shp8" d="M304.82 251.16L304.82 251.16C286.58 251.08 271.02 242.81 261.17 235.89C250.52 228.41 244.07 220.83 244 220.75C243.69 220.38 243.74 219.83 244.11 219.52C244.48 219.21 245.03 219.26 245.34 219.63C245.41 219.7 251.74 227.14 262.22 234.49C271.85 241.25 287.06 249.33 304.83 249.41C305.31 249.41 305.7 249.8 305.7 250.29C305.7 250.77 305.31 251.16 304.82 251.16Z" />
			</g>
			<g id="Group 373">
				<path id="Path 860" class="shp8" d="M292.75 240.58C277.22 237.54 263.48 225.7 262.85 225.16C262.49 224.84 262.45 224.29 262.77 223.92C263.09 223.56 263.64 223.52 264.01 223.84C264.17 223.98 280.34 237.91 296.83 239.41C297.32 239.45 297.67 239.88 297.62 240.36C297.58 240.84 297.15 241.19 296.67 241.15C295.35 241.03 294.04 240.84 292.75 240.58Z" />
			</g>
			<g id="Group 374">
				<path id="Path 861" class="shp8" d="M269.76 160.58C269.35 160.58 268.98 160.28 268.9 159.86C268.81 159.39 269.12 158.93 269.6 158.84C291.83 154.64 298.53 140.4 298.6 140.25C298.8 139.81 299.32 139.62 299.76 139.82C300.2 140.01 300.4 140.53 300.2 140.97C299.92 141.59 293.05 156.19 269.92 160.56C269.87 160.57 269.81 160.58 269.76 160.58Z" />
			</g>
			<path id="Path 862" class="shp7" d="M299.67 125.2C295.26 135.23 284.41 145.61 270.3 143.18C256.64 140.83 250.16 133.63 245.48 126.19C252.66 122.37 259.95 118.83 263.61 116.41C267.23 117.98 270.12 118.84 273.23 118.82C273.31 118.82 273.41 118.82 273.5 118.81C273.58 118.82 273.67 118.82 273.76 118.82C276.87 118.84 279.75 117.98 283.38 116.41C286.77 118.65 293.16 121.78 299.67 125.2Z" />
			<g id="Group 375">
				<path id="Path 863" class="shp8" d="M287.88 117.14C287.49 117.14 287.18 117.45 287.17 117.83C287.17 118.39 286.94 131.65 274.99 132.67C263.91 133.63 259.33 123.07 257.91 118.69C257.83 118.43 257.59 118.26 257.32 118.26L257.19 118.26C256.76 118.26 256.46 118.67 256.59 119.07C258.11 123.6 262.93 134.51 274.22 134.11C274.51 134.1 274.81 134.08 275.11 134.06C288.33 132.92 288.57 117.99 288.57 117.84C288.57 117.46 288.26 117.14 287.88 117.14Z" />
			</g>
		</g>
		<g id="Group 386">
			<path id="Path 864" class="shp3" d="M296.32 46.7C296.32 46.7 306.99 63.17 305.82 80.32C304.65 97.48 307.4 117.28 291.99 116.41C276.58 115.54 249.09 122.56 240.35 109.2C231.61 95.84 296.32 46.7 296.32 46.7Z" />
			<path id="Path 865" class="shp4" d="M300.27 76.98C300.27 76.98 303.05 101.85 291.2 108.69C279.35 115.54 270.78 107.89 270.78 107.89C270.78 107.89 295.75 73.24 300.27 76.98Z" />
			<g id="Group 385">
				<g id="Group 379">
					<path id="Path 866" class="shp5" d="M251.07 76.87C251.07 76.87 246.81 71.22 243.65 75.89C240.49 80.56 244.96 94.35 252.7 90.99L251.07 76.87Z" />
					<g id="Group 377">
						<path id="Path 867" class="shp6" d="M251.01 86.72C250.73 86.72 250.46 86.54 250.38 86.25C249.18 81.99 244.75 80.26 244.71 80.25C244.37 80.12 244.2 79.74 244.33 79.41C244.46 79.07 244.83 78.9 245.17 79.03C245.38 79.1 250.26 80.99 251.64 85.9C251.74 86.24 251.54 86.6 251.19 86.7C251.13 86.72 251.07 86.72 251.01 86.72Z" />
					</g>
					<g id="Group 378">
						<path id="Path 868" class="shp6" d="M246.54 84.58C246.42 84.58 246.3 84.55 246.19 84.48C245.88 84.28 245.8 83.88 245.99 83.57C246.02 83.52 246.81 82.33 248.45 81.6C248.78 81.45 249.16 81.6 249.31 81.93C249.46 82.26 249.31 82.65 248.98 82.79C247.71 83.36 247.1 84.27 247.09 84.28C246.97 84.47 246.76 84.58 246.54 84.58Z" />
					</g>
				</g>
				<g id="Group 382">
					<path id="Path 869" class="shp5" d="M294.91 76.87C294.91 76.87 299.16 71.22 302.32 75.89C305.48 80.56 301.01 94.35 293.27 90.99L294.91 76.87Z" />
					<g id="Group 380">
						<path id="Path 870" class="shp6" d="M294.96 86.72C295.25 86.72 295.51 86.54 295.59 86.25C296.79 81.99 301.22 80.26 301.26 80.25C301.6 80.12 301.77 79.74 301.64 79.41C301.52 79.07 301.14 78.9 300.8 79.03C300.59 79.1 295.71 80.99 294.33 85.9C294.23 86.24 294.43 86.6 294.78 86.7C294.84 86.72 294.9 86.72 294.96 86.72Z" />
					</g>
					<g id="Group 381">
						<path id="Path 871" class="shp6" d="M299.43 84.58C299.55 84.58 299.68 84.55 299.79 84.48C300.09 84.28 300.18 83.88 299.98 83.57C299.95 83.52 299.16 82.33 297.53 81.6C297.2 81.45 296.81 81.6 296.66 81.93C296.51 82.26 296.66 82.65 296.99 82.79C298.26 83.36 298.87 84.27 298.88 84.28C299.01 84.47 299.22 84.58 299.43 84.58Z" />
					</g>
				</g>
				<path id="Path 872" class="shp7" d="M283.46 102.69L283.46 116.41C283.46 116.41 279.35 123.39 273.79 123.87C268.24 124.35 263.31 117.85 263.31 117.85L263.31 103.65L283.46 102.69Z" />
				<path id="Path 873" class="shp5" d="M283.46 102.69L283.46 108.78C279.73 112.9 273.11 114.35 263.31 112.91L263.31 103.65L283.46 102.69Z" />
				<path id="Path 874" class="shp7" d="M297.98 67.46C297.72 72.79 297.21 79.45 296.19 84.79C295.94 86.12 295.65 87.37 295.33 88.49C292.43 98.6 285.18 115.93 264.88 108.71C255.91 105.52 251.76 95.58 249.91 85.46C248.65 78.59 248.46 71.65 248.55 66.69C248.65 61.63 251.43 57 255.85 54.51C267.83 47.74 280.47 50.26 288.8 53.45C294.58 55.66 298.27 61.31 297.98 67.46Z" />
				<path id="Path 875" class="shp3" d="M264.05 77.67C264.05 79.14 263.29 80.32 262.35 80.32C261.42 80.32 260.66 79.14 260.66 77.67C260.66 76.21 261.42 75.02 262.35 75.02C263.29 75.02 264.05 76.21 264.05 77.67Z" />
				<path id="Path 876" class="shp3" d="M284.95 77.67C284.95 79.14 284.19 80.32 283.26 80.32C282.32 80.32 281.56 79.14 281.56 77.67C281.56 76.21 282.32 75.02 283.26 75.02C284.19 75.02 284.95 76.21 284.95 77.67Z" />
				<path id="Path 877" class="shp3" d="M259 69.78C260.41 69.38 263.25 68.71 266.24 68.7C267.03 68.7 267.63 69.39 267.49 70.17L267.49 70.18C267.38 70.8 266.83 71.24 266.2 71.21C264.16 71.12 258.81 71.4 256.28 72.42C256.23 71.98 256.49 71.5 256.86 71.08C257.42 70.43 258.18 70.01 259 69.78Z" />
				<path id="Path 878" class="shp3" d="M286.35 69.83C284.94 69.44 282.11 68.76 279.11 68.75C278.32 68.75 277.72 69.45 277.86 70.22L277.86 70.24C277.97 70.86 278.53 71.29 279.16 71.26C281.19 71.17 286.54 71.45 289.07 72.47C289.12 72.04 288.86 71.56 288.49 71.13C287.94 70.49 287.17 70.06 286.35 69.83Z" />
				<g id="Group 383">
					<path id="Path 879" class="shp5" d="M273.21 89.77C272.71 89.77 272.21 89.68 271.79 89.43C271.41 89.2 270.93 88.74 270.84 87.84C270.59 85.45 271.21 77.94 271.23 77.62C271.26 77.26 271.58 76.99 271.94 77.02C272.3 77.05 272.57 77.37 272.54 77.73C272.53 77.8 271.9 85.43 272.14 87.71C272.18 88.1 272.34 88.24 272.46 88.31C273.08 88.68 274.5 88.31 275.09 88.07C275.42 87.93 275.8 88.09 275.94 88.42C276.08 88.76 275.92 89.14 275.58 89.27C275.41 89.34 274.32 89.77 273.21 89.77Z" />
				</g>
				<path id="Path 880" class="shp8" d="M264.9 93.88C265.4 96.36 267.04 100.93 272.58 100.93C278.14 100.93 279.69 96.76 280.23 93.88L264.9 93.88Z" />
				<g id="Group 384">
					<path id="Path 881" class="shp5" d="M272.5 104.73C270.9 104.73 269.49 103.87 269.43 103.83C269.12 103.65 269.03 103.24 269.22 102.94C269.41 102.63 269.81 102.54 270.12 102.72L270.12 102.72C270.13 102.73 271.28 103.42 272.5 103.42C273.82 103.42 275 102.73 275.02 102.72C275.33 102.54 275.73 102.64 275.91 102.94C276.1 103.25 276 103.65 275.69 103.84C275.63 103.87 274.2 104.73 272.5 104.73Z" />
				</g>
			</g>
			<path id="Path 882" class="shp3" d="M300.62 66.39C300.4 66.99 299.82 67.37 299.04 67.6C299.1 69.03 298.94 70.76 298.8 72.42C298 81.84 295.61 83.49 295.07 81.16C294.71 79.62 294.74 70.75 294.91 67.85C293.04 67.73 291.44 67.42 291.44 67.42L289.25 58.28L288.48 67.31C285.19 68.45 277.51 66.62 277.51 66.62L274.94 57.61L273.34 66.28C268.41 68.67 262.24 67.08 262.24 67.08L260.82 57.72L257.55 67.08C257.55 67.08 247.02 70.84 246.9 67.08C246.83 64.89 248.44 58.73 249.8 53.95C251.29 48.74 254.72 44.34 259.37 41.86C272.43 34.88 286.24 38.59 290.98 41.41C301.03 47.38 300.62 66.39 300.62 66.39Z" />
			<path id="Path 883" class="shp3" d="M252.7 47.4C252.7 47.4 244.03 57.67 241.18 76.01C238.33 94.34 234.38 107.89 245.48 113.95C257.49 120.5 256.45 107.06 256.28 103.41C256.1 99.76 245.89 89.77 252.7 61.65C254.9 52.57 252.7 47.4 252.7 47.4Z" />
			<path id="Path 884" class="shp4" d="M250.68 85.3L250.68 85.32C250.68 85.45 250.69 86.18 250.74 87.32C250.77 88.03 250.81 88.89 250.88 89.87C251.29 96.05 252.49 106.72 256.04 110.42C257.44 111.88 260.14 112.62 263.31 112.91L263.31 108.06C259.97 106.48 257.36 103.88 255.33 100.68C254.08 97.98 251.93 93.76 250.92 87.13L250.68 85.3Z" />
			<path id="Path 885" class="shp8" d="M298.14 91.3C298.14 92.14 297.45 92.82 296.6 92.82C295.76 92.82 295.07 92.14 295.07 91.3C295.07 90.45 295.76 89.77 296.6 89.77C297.45 89.77 298.14 90.45 298.14 91.3Z" />
		</g>
		<g id="Group 392">
			<path id="Path 886" class="shp2" d="M329.38 206.32C325.04 218.7 305.59 217.8 283.44 211.03C283.41 211.02 283.38 211.01 283.34 211C283.27 210.98 283.21 210.96 283.14 210.94L280.09 209.97C279.67 209.84 279.25 209.7 278.83 209.55C276.44 208.76 274.03 207.9 271.62 206.98C263.7 203.99 255.73 200.44 248.21 196.66L248.26 196.53L250.52 190.67L251.3 188.67C251.3 188.67 292.36 193.13 313.01 188.83C313.36 188.76 313.7 188.68 314.04 188.61C313.96 188.15 313.93 187.68 313.8 187.25C302.86 150.16 314.83 143.04 318.83 137.87C318.83 137.87 337.58 182.95 329.38 206.32Z" />
			<g id="Group 387">
				<path id="Path 887" class="shp8" d="M322.69 194.84C322.57 194.9 322.44 194.93 322.31 194.93C321.98 194.93 321.67 194.75 321.52 194.44C319.96 191.25 314.64 189.35 313.01 188.83C313.36 188.76 313.7 188.68 314.04 188.61C313.96 188.15 313.88 187.7 313.8 187.25C315.88 187.93 321.3 190.01 323.09 193.68C323.31 194.11 323.12 194.63 322.69 194.84Z" />
			</g>
			<g id="Group 388">
				<path id="Path 888" class="shp8" d="M265.17 193.29C256.79 193.29 249.99 192.81 249.39 192.76C248.91 192.73 248.55 192.31 248.58 191.83C248.62 191.35 249.04 190.99 249.52 191.03C249.83 191.05 280.63 193.22 292.78 188.31C293.23 188.13 293.74 188.34 293.92 188.79C294.1 189.24 293.89 189.75 293.44 189.93C286.71 192.64 274.89 193.29 265.17 193.29Z" />
			</g>
			<g id="Group 389">
				<path id="Path 889" class="shp8" d="M280.09 209.97L280.09 209.97C287.12 208.04 293.51 206.16 297.2 204.98C302.32 203.35 306.56 198.19 308.48 193.81C308.68 193.37 309.19 193.17 309.64 193.36C310.08 193.55 310.28 194.07 310.09 194.51C308 199.25 303.37 204.84 297.73 206.65C295.05 207.5 290.96 208.72 286.24 210.07C284.23 210.64 282.08 210.61 280.09 209.97L280.09 209.97Z" />
			</g>
			<g id="Group 391">
				<path id="Path 890" class="shp2" d="M299.03 203.98C235.57 225.26 216.04 211.33 216.04 211.33C211.77 172.85 227.52 138.25 227.52 138.25C232.17 145.89 237.43 159.22 237.43 159.22L238.82 188.72L238.71 189.54L238.66 189.92L238.4 191.94L238.39 191.98C238.53 192.01 238.66 192.04 238.8 192.07C258 196.1 293.11 191.59 293.11 191.59L299.03 203.98Z" />
				<g id="Group 390">
					<path id="Path 891" class="shp8" d="M238.8 192.07C235.37 194.93 232.12 198.22 229.22 202.01C228.93 202.39 228.38 202.47 227.99 202.18C227.61 201.89 227.53 201.34 227.82 200.96L227.83 200.95C231.08 196.69 234.78 193.04 238.66 189.92L238.4 191.94L238.39 191.98C238.53 192.01 238.66 192.04 238.8 192.07Z" />
				</g>
				<path id="Path 892" class="shp7" d="M293.11 191.59C293.11 191.59 300.13 175.7 310.82 177.11L314.04 188.61C308.19 191.08 307.34 201.07 299.03 203.98L293.11 191.59Z" />
			</g>
			<path id="Path 893" class="shp7" d="M251.3 188.67C251.3 188.67 246.86 178.3 235.18 175.29C223.51 172.28 216.07 177.76 215.28 179.83C214.5 181.9 219.69 179.92 219.69 179.92C219.69 179.92 216.31 180.87 214.37 184.03C212.43 187.2 219.09 183.78 219.09 183.78C219.09 183.78 214.31 185.87 213.71 187.8C213.1 189.73 219.4 186.47 220.58 186.53C220.58 186.53 214.96 188.75 215 190.75C215.03 192.74 221.45 189.49 226.25 189.75C231.04 190.01 238.39 191.98 238.39 191.98C242.31 192.73 246.06 193.28 249.46 193.43L251.3 188.67Z" />
		</g>
		<g id="Group 393">
			<path id="Rectangle 5" class="shp8" d="M193.3 246.46C193.3 243 196.1 240.19 199.57 240.19L344.82 240.19C348.29 240.19 351.09 243 351.09 246.46L351.09 322.11C351.09 325.57 348.29 328.38 344.82 328.38L199.57 328.38C196.1 328.38 193.3 325.57 193.3 322.11L193.3 246.46Z" />
			<path id="Rectangle 6" class="shp4" d="M259.98 328.28L284.41 328.28L284.41 356.02L259.98 356.02L259.98 328.28Z" />
			<path id="Ellipse 80" class="shp14" d="M271.92 297.45C265.21 297.45 259.79 292.05 259.79 285.37C259.79 278.69 265.21 273.29 271.92 273.29C278.63 273.29 284.05 278.69 284.05 285.37C284.05 292.05 278.63 297.45 271.92 297.45Z" />
			<path id="Rectangle 7" class="shp3" d="M240.29 353.92C240.29 349.65 243.75 346.18 248.03 346.18L295.58 346.18C299.85 346.18 303.32 349.65 303.32 353.92L303.32 356.02L240.29 356.02L240.29 353.92Z" />
		</g>
	</g>
</svg>