<svg id="Outline" xmlns="http://www.w3.org/2000/svg" viewBox="0 0 128 128"><title>Aesthetic, Medicine, Doctor, woman, female, avatar</title><path d="M64,67.038a5.862,5.862,0,0,1-3.82-1.588,1.5,1.5,0,0,1,1.956-2.275,2.462,2.462,0,0,0,3.728,0A1.5,1.5,0,0,1,67.82,65.45,5.862,5.862,0,0,1,64,67.038Z"/><path d="M71.5,71.76a1.962,1.962,0,0,0-1.983-.631A12.171,12.171,0,0,1,65.742,71,7.729,7.729,0,0,0,64,70.882,7.68,7.68,0,0,0,62.258,71a12.187,12.187,0,0,1-3.778.129,1.959,1.959,0,0,0-1.98.632,1.938,1.938,0,0,0-.312,2.029,10.1,10.1,0,0,0,5.761,5.785,9.8,9.8,0,0,0,4.1,0h0a10.1,10.1,0,0,0,5.761-5.785A1.938,1.938,0,0,0,71.5,71.76Zm-6.38,4.963a7.765,7.765,0,0,1-2.216.007,5.63,5.63,0,0,1-2.95-2.311.052.052,0,0,1,.037-.085c.648-.032,2.59-.338,2.873-.4a11.349,11.349,0,0,1,2.272,0c.283.059,2.213.366,2.873.4a.052.052,0,0,1,.037.085A5.56,5.56,0,0,1,65.12,76.723Z"/><path d="M37.738,72.639c-5.12,0-10.355-5.48-11.174-10.412-.548-3.309.169-6.238,2.019-8.247a9.018,9.018,0,0,1,7.581-2.58,1.5,1.5,0,0,1-.247,2.991,6.02,6.02,0,0,0-5.127,1.622,6.668,6.668,0,0,0-1.266,5.723c.629,3.785,5.207,8.452,8.845,7.852a1.5,1.5,0,1,1,.483,2.961A6.955,6.955,0,0,1,37.738,72.639Z"/><path d="M36.6,63.5a1.5,1.5,0,0,1-1.359-.864c-.661-1.411-1.559-1.324-1.854-1.3a1.5,1.5,0,1,1-.289-2.986,4.748,4.748,0,0,1,4.86,3.01,1.5,1.5,0,0,1-.723,1.994A1.482,1.482,0,0,1,36.6,63.5Z"/><path d="M16.616,126.924a1.5,1.5,0,0,1-1.388-2.068c1.454-3.556,3.792-8.658,7.288-11.895,3.352-3.106,9.714-5.519,15.867-7.852,3.182-1.207,6.188-2.347,8.355-3.447,5.722-2.9,5.894-6.564,6.061-10.106.024-.508.047-1,.085-1.485a1.5,1.5,0,0,1,2.991.237c-.036.449-.057.913-.08,1.388-.177,3.777-.42,8.949-7.7,12.642-2.31,1.172-5.389,2.34-8.648,3.576-5.61,2.128-11.968,4.539-14.893,7.248C21.5,118,19.351,122.7,18,125.991A1.5,1.5,0,0,1,16.616,126.924Z"/><path d="M72.338,46.8a7.868,7.868,0,0,1,3.753-1.978,11.807,11.807,0,0,1,3.9-.351,22.208,22.208,0,0,1,7.347,1.869.694.694,0,0,1-.409,1.316l-.021,0a29.7,29.7,0,0,0-3.467-.47,20.927,20.927,0,0,0-3.42.078c-1.118.127-2.218.24-3.279.441a11.452,11.452,0,0,0-2.832.866l-.2.1a1.175,1.175,0,0,1-1.376-1.87Z"/><path d="M74.47,53.675a5.1,5.1,0,0,1,2.73-2.1,8,8,0,0,1,3.23-.342,8.2,8.2,0,0,1,3.078.868,6.33,6.33,0,0,1,1.667,1.222l.718,1.031a.1.1,0,0,1-.006.117,1.826,1.826,0,0,1-1.067.557,3.307,3.307,0,0,1-.971.01,10.255,10.255,0,0,1-1.47-.385,12.837,12.837,0,0,0-2.22-.406,8.24,8.24,0,0,0-2.193.069,4.821,4.821,0,0,0-1.853.732l-.128.084a1.077,1.077,0,0,1-1.515-1.455Z"/><path d="M64,94.931a5.349,5.349,0,0,1-1.035-.1c-8.586-1.7-13.98-6.033-18.124-10.049-6.658-6.451-10.317-17.73-10.3-31.759a1.506,1.506,0,0,1,.359-.973c5.253-6.15,7.609-12.251,9.687-17.634,2.044-5.3,3.809-9.867,7.756-12.96a1.5,1.5,0,1,1,1.85,2.361c-3.3,2.583-4.846,6.6-6.807,11.679-2.118,5.485-4.512,11.687-9.843,18.075.076,12.953,3.4,23.258,9.387,29.057,4.022,3.9,8.82,7.717,16.62,9.261a2.39,2.39,0,0,0,.9,0c7.8-1.545,12.6-5.365,16.622-9.262,3.916-3.793,6.764-9.693,8.237-17.063a1.5,1.5,0,0,1,2.942.588c-1.593,7.969-4.736,14.411-9.091,18.629-4.144,4.016-9.538,8.35-18.126,10.05A5.313,5.313,0,0,1,64,94.931Z"/><path d="M76.387,101.43a1.5,1.5,0,0,1-.072-3c14.254-.7,21.753-5.262,25.073-15.247,5.568-16.749.38-43.812-5.507-56.908C92.2,18.308,83.333,8.785,71.847,5.507A26.822,26.822,0,0,0,49.146,9a1.5,1.5,0,0,1-.6.23c-6.926,1.038-13.026,9.485-16.424,17.045-5.887,13.1-11.075,40.159-5.507,56.908,3.32,9.985,10.819,14.545,25.073,15.247A1.5,1.5,0,0,1,53.109,100a1.518,1.518,0,0,1-1.571,1.425c-15.484-.762-24.049-6.1-27.772-17.3-5.809-17.474-.471-45.541,5.617-59.085C33.055,16.878,39.791,7.735,47.767,6.32a29.709,29.709,0,0,1,24.9-3.7c10.736,3.065,21.161,12.07,25.941,22.411,6.094,13.558,11.432,41.625,5.623,59.1-3.723,11.2-12.288,16.534-27.772,17.3Z"/><path d="M58.914,126.924a1.5,1.5,0,0,1-1.2-.606c-.265-.356-6.528-8.918-9.434-24.455a1.5,1.5,0,1,1,2.95-.55c2.768,14.8,8.833,23.135,8.894,23.217a1.5,1.5,0,0,1-1.2,2.394Z"/><path d="M44.646,126.924a1.5,1.5,0,0,1-1.163-.551L39.9,121.987a7.27,7.27,0,0,1-1.52-6.016,54.448,54.448,0,0,1,4.178-12.033,1.5,1.5,0,1,1,2.724,1.257,51.506,51.506,0,0,0-3.959,11.356,4.281,4.281,0,0,0,.9,3.539l3.582,4.385a1.5,1.5,0,0,1-1.16,2.449Z"/><path d="M111.384,126.924a1.5,1.5,0,0,1-1.388-.933c-1.347-3.292-3.491-8-6.55-10.829-2.925-2.709-9.283-5.12-14.893-7.248-3.259-1.236-6.338-2.4-8.648-3.576-7.28-3.693-7.523-8.865-7.7-12.642-.023-.475-.044-.939-.08-1.388a1.5,1.5,0,0,1,2.991-.237c.038.481.061.977.085,1.485.167,3.542.339,7.2,6.061,10.106,2.167,1.1,5.173,2.24,8.355,3.447,6.153,2.333,12.515,4.746,15.867,7.852,3.5,3.237,5.834,8.339,7.288,11.895a1.5,1.5,0,0,1-1.388,2.068Z"/><path d="M69.086,126.924a1.5,1.5,0,0,1-1.2-2.394c.061-.082,6.126-8.413,8.894-23.217a1.5,1.5,0,1,1,2.95.55c-2.906,15.537-9.169,24.1-9.434,24.455A1.5,1.5,0,0,1,69.086,126.924Z"/><path d="M83.354,126.924a1.5,1.5,0,0,1-1.16-2.449l3.582-4.386a4.278,4.278,0,0,0,.9-3.538A51.506,51.506,0,0,0,82.718,105.2a1.5,1.5,0,1,1,2.724-1.257,54.448,54.448,0,0,1,4.178,12.033,7.267,7.267,0,0,1-1.52,6.015l-3.583,4.387A1.5,1.5,0,0,1,83.354,126.924Z"/><rect x="75.667" y="53.789" width="5.739" height="6.086" rx="2.747" ry="2.747"/><path d="M54.088,48.571a11.452,11.452,0,0,0-2.832-.866c-1.061-.2-2.161-.314-3.279-.441a20.927,20.927,0,0,0-3.42-.078,29.7,29.7,0,0,0-3.467.47l-.021,0a.694.694,0,0,1-.409-1.315,22.208,22.208,0,0,1,7.347-1.869,11.807,11.807,0,0,1,3.9.351A7.868,7.868,0,0,1,55.662,46.8a1.174,1.174,0,0,1-1.374,1.871Z"/><path d="M51.887,55.046a4.821,4.821,0,0,0-1.853-.732,8.24,8.24,0,0,0-2.193-.069,12.837,12.837,0,0,0-2.22.406,10.255,10.255,0,0,1-1.47.385,3.307,3.307,0,0,1-.971-.01,1.826,1.826,0,0,1-1.067-.557.1.1,0,0,1-.006-.117l.718-1.031A6.33,6.33,0,0,1,44.492,52.1a8.2,8.2,0,0,1,3.078-.868,8,8,0,0,1,3.23.342,5.1,5.1,0,0,1,2.73,2.1,1.077,1.077,0,0,1-1.515,1.456Z"/><rect x="46.594" y="53.789" width="5.739" height="6.086" rx="2.747" ry="2.747" transform="translate(98.926 113.664) rotate(180)"/><path d="M55.507,64.82h-12.1a4.955,4.955,0,0,1-5.037-4.335l-.5-4.757a4.615,4.615,0,0,1,1.191-3.6,5.178,5.178,0,0,1,3.847-1.682H56a5.178,5.178,0,0,1,3.847,1.682,4.615,4.615,0,0,1,1.191,3.6l-.5,4.756A4.956,4.956,0,0,1,55.507,64.82ZM42.91,53.442a2.167,2.167,0,0,0-1.618.69,1.654,1.654,0,0,0-.437,1.285l.5,4.757a2,2,0,0,0,2.054,1.646h12.1a2,2,0,0,0,2.054-1.647l.5-4.756a1.654,1.654,0,0,0-.437-1.285A2.167,2.167,0,0,0,56,53.442Z"/><path d="M84.594,64.82h-12.1a4.955,4.955,0,0,1-5.037-4.335l-.5-4.757a4.615,4.615,0,0,1,1.191-3.6A5.178,5.178,0,0,1,72,50.442H85.09a5.178,5.178,0,0,1,3.847,1.682,4.615,4.615,0,0,1,1.191,3.6l-.5,4.756A4.956,4.956,0,0,1,84.594,64.82ZM72,53.442a2.167,2.167,0,0,0-1.618.69,1.654,1.654,0,0,0-.437,1.285l.5,4.757a1.994,1.994,0,0,0,2.054,1.646h12.1a2,2,0,0,0,2.054-1.647l.5-4.756a1.654,1.654,0,0,0-.437-1.285,2.168,2.168,0,0,0-1.618-.69Z"/><path d="M59.345,58.938a1.5,1.5,0,0,1-.536-2.9,13.988,13.988,0,0,1,10.394,0,1.5,1.5,0,1,1-1.1,2.793,10.925,10.925,0,0,0-8.227,0A1.5,1.5,0,0,1,59.345,58.938Z"/><path d="M74.105,117.342H53.9a1.5,1.5,0,1,1,0-3h20.21a1.5,1.5,0,0,1,0,3Z"/><path d="M31.669,55.068l-.074,0A1.5,1.5,0,0,1,30.17,53.5a27.049,27.049,0,0,1,2.136-8.57,37.433,37.433,0,0,0,2.8-12.173,1.5,1.5,0,1,1,2.995.163,40.017,40.017,0,0,1-2.986,13.061,24.337,24.337,0,0,0-1.95,7.666A1.5,1.5,0,0,1,31.669,55.068Z"/><path d="M92.032,79.6a3.6,3.6,0,0,1-1.062-.163A3.379,3.379,0,0,1,88.6,75.6c2.241-14.129-1.787-28.252-4.336-32.338-8.135-13.039-15.846-14.3-22.042-15.317-4.107-.673-7.987-1.308-10.73-5.159a1.5,1.5,0,1,1,2.443-1.74c2.019,2.832,4.851,3.3,8.772,3.938,6.435,1.054,15.248,2.5,24.1,16.69,2.838,4.55,7.147,19.309,4.754,34.4a.4.4,0,0,0,.3.5.409.409,0,0,0,.544-.249c11.019-23.247-.832-46.63-7.929-53.727a1.5,1.5,0,1,1,2.121-2.121c7.566,7.566,20.216,32.457,8.519,57.133A3.387,3.387,0,0,1,92.032,79.6Z"/></svg>