<svg xmlns="http://www.w3.org/2000/svg" viewBox="0 0 48 48"><defs><style>.cls-1{fill:#6fabe6;}.cls-2{fill:#82bcf4;}.cls-3{fill:#9fdbf3;}.cls-4{fill:#b2e5fb;}</style></defs><title>11. link</title><g id="_11._link" data-name="11. link"><path class="cls-1" d="M26.63,34.1l-12,12a3,3,0,0,1-4.25,0L1.88,37.64A3,3,0,0,1,1.41,34c.25-.47-.67.51,12.49-12.65a3,3,0,0,1,4.24,0L21,24.2,18.14,27,16,24.91,5.41,35.51l7.08,7.08L23.09,32,21,29.86,23.8,27l2.83,2.83A3,3,0,0,1,26.63,34.1Z"/><path class="cls-2" d="M27.11,30.48c-.29.5.64-.5-12.5,12.64a3,3,0,0,1-4.25,0C1.09,33.85,1.72,34.54,1.41,34c.25-.47-.67.51,12.49-12.65a3,3,0,0,1,4.24,0L21,24.2,18.14,27,16,24.91,5.41,35.51l7.08,7.08L23.09,32,21,29.86,23.8,27C26.88,30.11,26.84,30,27.11,30.48Z"/><path class="cls-1" d="M46.12,14.61l-12,12a3,3,0,0,1-4.24,0L27,23.8,29.86,21l1.41,1.41a1,1,0,0,0,1.42,0l9.19-9.18a1,1,0,0,0,0-1.42L36.22,6.12a1,1,0,0,0-1.42,0l-9.18,9.19a1,1,0,0,0,0,1.42L27,18.14,24.2,21l-2.83-2.83a3,3,0,0,1-.48-3.62c.29-.5-.64.5,12.5-12.64a3,3,0,0,1,4.25,0l8.48,8.48A3,3,0,0,1,46.12,14.61Z"/><path class="cls-2" d="M46.59,11c-.31.52.71-.56-12.49,12.64a3,3,0,0,1-4.24,0L28.53,22.3,29.86,21l1.41,1.41a1,1,0,0,0,1.42,0l9.19-9.18a1,1,0,0,0,0-1.42L36.22,6.12a1,1,0,0,0-1.42,0l-9.18,9.19a1,1,0,0,0,0,1.42L27,18.14,25.7,19.47c-4.83-4.83-4.54-4.49-4.81-4.95.29-.5-.64.5,12.5-12.64a3,3,0,0,1,4.25,0C46.85,11.09,46.32,10.49,46.59,11Z"/><path class="cls-3" d="M32.36,17.64c0,1.18.59.24-13.31,14.14a2,2,0,0,1-3.14-2.41c.19-.36-.74.63,13-13.15A2,2,0,0,1,32.36,17.64Z"/><path class="cls-4" d="M32.09,16.64c-.17.31.79-.69-13,13.14a2,2,0,0,1-3.14-.41c.19-.36-.73.62,13-13.15A2,2,0,0,1,32.09,16.64Z"/></g></svg>