<svg xmlns="http://www.w3.org/2000/svg" viewBox="0 0 48 48"><defs><style>.cls-1{fill:#7c7d7d;}.cls-2{fill:#919191;}</style></defs><title>8. chess piece</title><g id="_8._chess_piece" data-name="8. chess piece"><path class="cls-1" d="M37,44v3H11V44a3,3,0,0,1,3-3H34A3,3,0,0,1,37,44Z"/><path class="cls-2" d="M37,44v1H17a3,3,0,0,1-2.82-4H34A3,3,0,0,1,37,44Z"/><rect class="cls-1" x="14" y="37" width="20" height="4"/><path class="cls-2" d="M34,37v2H19a2,2,0,0,1-2-2Z"/><path class="cls-1" d="M34,37H14a24.94,24.94,0,0,0,6-16.22V19h8a26.59,26.59,0,0,0,1.55,10.43A25,25,0,0,0,34,37Z"/><path class="cls-2" d="M32.46,35A10.45,10.45,0,0,1,21.87,23.32,37.51,37.51,0,0,0,22,19h6C28,24.72,28.71,29.64,32.46,35Z"/><path class="cls-1" d="M31,8A7,7,0,1,1,20.78,1.78,7,7,0,0,1,31,8Z"/><path class="cls-2" d="M30.22,11.22a7,7,0,0,1-9.44-9.44A7,7,0,0,1,30.22,11.22Z"/><path class="cls-1" d="M32,17a2,2,0,0,1-2,2H18a2,2,0,0,1,0-4H30A2,2,0,0,1,32,17Z"/><path class="cls-2" d="M32,17H21a2,2,0,0,1-2-2H30A2,2,0,0,1,32,17Z"/></g></svg>