<svg xmlns="http://www.w3.org/2000/svg" viewBox="0 0 48 48"><defs><style>.cls-1{fill:#a87e6b;}.cls-2{fill:#be927c;}.cls-3{fill:#dad7e5;}.cls-4{fill:#edebf2;}.cls-5{fill:#f26674;}.cls-6{fill:#6fabe6;}.cls-7{fill:#82bcf4;}.cls-8{fill:#919191;}.cls-9{fill:#7c7d7d;}</style></defs><title>10. strategy</title><g id="_10._strategy" data-name="10. strategy"><rect class="cls-1" x="7" y="6" width="34" height="41" rx="2"/><path class="cls-2" d="M41,8c0,38.16-.1,37,0,37A31.09,31.09,0,0,1,10,14V6H39A2,2,0,0,1,41,8Z"/><rect class="cls-3" x="11" y="6" width="26" height="37"/><path class="cls-4" d="M37,6c0,36.15-.1,35,0,35A23,23,0,0,1,14,18V6Z"/><path class="cls-5" d="M16.59,18.41a1,1,0,0,1-.71-1.7l2.83-2.83a1,1,0,0,1,1.41,1.41C17.05,18.36,17.14,18.41,16.59,18.41Z"/><path class="cls-5" d="M19.41,18.41c-.55,0-.46,0-3.53-3.12a1,1,0,0,1,1.41-1.41l2.83,2.83A1,1,0,0,1,19.41,18.41Z"/><path class="cls-5" d="M28.59,32.41a1,1,0,0,1-.71-1.7l2.83-2.83a1,1,0,0,1,1.41,1.41C29.05,32.36,29.14,32.41,28.59,32.41Z"/><path class="cls-5" d="M31.41,32.41c-.55,0-.46,0-3.53-3.12a1,1,0,0,1,1.41-1.41l2.83,2.83A1,1,0,0,1,31.41,32.41Z"/><path class="cls-6" d="M20,27a2,2,0,1,1-2.82-1.82A2,2,0,0,1,20,27Z"/><path class="cls-7" d="M19.82,27.82a2,2,0,0,1-2.64-2.64A2,2,0,0,1,19.82,27.82Z"/><path class="cls-8" d="M28.72,21.39l.52-3.63-3.63.52a1,1,0,0,1-.29-2c7.32-1,6.42-1.91,5.38,5.38A1,1,0,0,1,28.72,21.39Z"/><path class="cls-8" d="M24.08,37.38a18.43,18.43,0,0,1,5.71-21.57A1,1,0,0,1,31,17.36a16.46,16.46,0,0,0-5.12,19.26A1,1,0,0,1,24.08,37.38Z"/><path class="cls-9" d="M27,4a3,3,0,0,0-6,0H17V8H31V4Z"/><path class="cls-8" d="M31,4V6H21a2,2,0,0,1-2-2h2a3,3,0,0,1,6,0Z"/></g></svg>