<svg version="1.2" baseProfile="tiny-ps" xmlns="http://www.w3.org/2000/svg" viewBox="0 0 1500 1500" width="1500" height="1500">
	<title>Vector Smart Object-ai</title>
	<style>
		tspan { white-space:pre }
		.shp0 { fill: #ebebeb } 
		.shp1 { fill: #e0e0e0 } 
		.shp2 { fill: #f5f5f5 } 
		.shp3 { fill: #fafafa } 
		.shp4 { fill: #6fc38e } 
		.shp5 { fill: #263238 } 
		.shp6 { fill: #3b4a5d } 
		.shp7 { fill: #000000 } 
		.shp8 { fill: #232f3d } 
		.shp9 { fill: #455a64 } 
		.shp10 { fill: #ff725e } 
		.shp11 { fill: #ffbe9d } 
		.shp12 { fill: #eb996e } 
		.shp13 { fill: #ffffff } 
	</style>
	<g id="Background Complete">
		<g id="&lt;Group&gt;">
			<g id="&lt;Group&gt;">
				<path id="&lt;Path&gt;" class="shp0" d="M276.25 558.99C276.68 558.99 277.03 574.2 277.03 592.96C277.03 611.73 276.68 626.94 276.25 626.94C275.82 626.94 275.47 611.73 275.47 592.96C275.47 574.2 275.82 558.99 276.25 558.99Z" />
			</g>
		</g>
		<g id="&lt;Group&gt;">
			<g id="&lt;Group&gt;">
				<g id="&lt;Group&gt;">
					<g id="&lt;Group&gt;">
						<g id="&lt;Group&gt;">
							<g id="&lt;Group&gt;">
								<path id="&lt;Path&gt;" class="shp0" d="M1021.81 1437.52L989.46 1437.52L989.46 1284.85L1021.81 1284.85L1021.81 1437.52Z" />
							</g>
						</g>
					</g>
					<g id="&lt;Group&gt;">
						<g id="&lt;Group&gt;">
							<g id="&lt;Group&gt;">
								<path id="&lt;Path&gt;" class="shp0" d="M1296.72 1437.52L1264.37 1437.52L1264.37 1284.85L1296.72 1284.85L1296.72 1437.52Z" />
							</g>
						</g>
					</g>
					<g id="&lt;Group&gt;">
						<g id="&lt;Group&gt;">
							<g id="&lt;Group&gt;">
								<path id="&lt;Path&gt;" class="shp0" d="M1344.07 1130.67L935.95 1130.67L935.95 1092.91L1344.07 1092.91L1344.07 1130.67Z" />
							</g>
						</g>
					</g>
					<g id="&lt;Group&gt;">
						<g id="&lt;Group&gt;">
							<g id="&lt;Group&gt;">
								<path id="&lt;Path&gt;" class="shp0" d="M1327.81 1286.77L960.79 1287.56L960.79 1130.67L1327.81 1130.67L1327.81 1286.77Z" />
							</g>
						</g>
					</g>
					<g id="&lt;Group&gt;">
						<g id="&lt;Group&gt;">
							<g id="&lt;Group&gt;">
								<g id="&lt;Group&gt;">
									<path id="&lt;Path&gt;" class="shp1" d="M1344.07 1130.67C1344.07 1131.07 1252.7 1131.4 1140.02 1131.4C1027.3 1131.4 935.95 1131.07 935.95 1130.67C935.95 1130.26 1027.3 1129.93 1140.02 1129.93C1252.7 1129.93 1344.07 1130.26 1344.07 1130.67Z" />
								</g>
							</g>
						</g>
					</g>
					<g id="&lt;Group&gt;">
						<g id="&lt;Group&gt;">
							<g id="&lt;Group&gt;">
								<g id="&lt;Group&gt;">
									<path id="&lt;Path&gt;" class="shp1" d="M1326.46 1287.56C1326.46 1287.97 1244.9 1288.29 1144.31 1288.29C1043.68 1288.29 962.14 1287.97 962.14 1287.56C962.14 1287.15 1043.68 1286.83 1144.31 1286.83C1244.9 1286.83 1326.46 1287.15 1326.46 1287.56Z" />
								</g>
							</g>
						</g>
					</g>
					<g id="&lt;Group&gt;">
						<g id="&lt;Group&gt;">
							<g id="&lt;Group&gt;">
								<g id="&lt;Group&gt;">
									<path id="&lt;Path&gt;" class="shp1" d="M1297.55 1255.77C1297.52 1255.35 1297.51 1254.75 1297.5 1253.97C1297.48 1252.75 1297.47 1251.02 1297.44 1248.75C1297.42 1244.14 1297.38 1237.4 1297.33 1228.68C1297.26 1211.2 1297.18 1185.81 1297.06 1153.96L1297.54 1154.44C1223.94 1154.5 1113.83 1154.59 991.07 1154.69L991.06 1154.69L991.79 1153.96C991.78 1189.33 991.77 1223.64 991.77 1255.77L991.06 1255.06C1079.21 1255.19 1155.73 1255.3 1210.26 1255.39C1237.54 1255.47 1259.32 1255.54 1274.32 1255.59C1281.79 1255.63 1287.57 1255.66 1291.53 1255.68C1293.47 1255.7 1294.95 1255.71 1296 1255.72C1296.67 1255.73 1297.19 1255.75 1297.55 1255.77C1297.23 1255.79 1296.74 1255.8 1296.09 1255.81C1295.06 1255.82 1293.6 1255.84 1291.7 1255.86C1287.78 1255.88 1282.05 1255.91 1274.65 1255.95C1259.68 1256 1237.96 1256.06 1210.75 1256.15C1156.1 1256.23 1079.41 1256.35 991.06 1256.48L990.34 1256.48L990.34 1255.77C990.34 1223.64 990.33 1189.33 990.32 1153.96L990.32 1153.22L991.06 1153.22L991.07 1153.22C1113.83 1153.32 1223.94 1153.41 1297.54 1153.47L1298.03 1153.48L1298.03 1153.96C1297.91 1185.94 1297.83 1211.42 1297.76 1228.97C1297.71 1237.65 1297.67 1244.35 1297.65 1248.94C1297.62 1251.16 1297.61 1252.87 1297.59 1254.06C1297.58 1254.83 1297.57 1255.4 1297.55 1255.77Z" />
								</g>
							</g>
						</g>
					</g>
					<g id="&lt;Group&gt;">
						<g id="&lt;Group&gt;">
							<g id="&lt;Group&gt;">
								<g id="&lt;Group&gt;">
									<path id="&lt;Path&gt;" class="shp1" d="M1003.2 1242.41C1003.5 1242.69 1001.12 1245.73 997.88 1249.2C994.65 1252.67 991.78 1255.26 991.49 1254.99C991.19 1254.71 993.57 1251.67 996.81 1248.2C1000.04 1244.73 1002.91 1242.14 1003.2 1242.41Z" />
								</g>
							</g>
						</g>
					</g>
					<g id="&lt;Group&gt;">
						<g id="&lt;Group&gt;">
							<g id="&lt;Group&gt;">
								<g id="&lt;Group&gt;">
									<path id="&lt;Path&gt;" class="shp1" d="M1003.2 1167.31C1002.9 1167.59 999.94 1164.82 996.59 1161.14C993.24 1157.46 990.76 1154.25 991.06 1153.98C991.36 1153.71 994.32 1156.47 997.67 1160.15C1001.03 1163.83 1003.5 1167.04 1003.2 1167.31Z" />
								</g>
							</g>
						</g>
					</g>
					<g id="&lt;Group&gt;">
						<g id="&lt;Group&gt;">
							<g id="&lt;Group&gt;">
								<g id="&lt;Group&gt;">
									<path id="&lt;Path&gt;" class="shp1" d="M1298.09 1154.28C1298.41 1154.58 1295.47 1157.86 1291.42 1161.34C1287.36 1164.83 1284.05 1167.57 1283.78 1167.31C1283.46 1167.01 1286.39 1163.73 1290.45 1160.24C1294.5 1156.75 1297.82 1154.02 1298.09 1154.28Z" />
								</g>
							</g>
						</g>
					</g>
					<g id="&lt;Group&gt;">
						<g id="&lt;Group&gt;">
							<g id="&lt;Group&gt;">
								<g id="&lt;Group&gt;">
									<path id="&lt;Path&gt;" class="shp1" d="M1297.55 1255.78C1297.27 1256.07 1293.96 1253.31 1290.16 1249.63C1286.36 1245.94 1283.5 1242.72 1283.78 1242.42C1284.07 1242.13 1287.38 1244.89 1291.18 1248.57C1294.98 1252.26 1297.84 1255.49 1297.55 1255.78Z" />
								</g>
							</g>
						</g>
					</g>
					<g id="&lt;Group&gt;">
						<g id="&lt;Group&gt;">
							<g id="&lt;Group&gt;">
								<g id="&lt;Group&gt;">
									<path id="&lt;Path&gt;" class="shp1" d="M1283.78 1242.42C1283.76 1242.11 1283.74 1241.67 1283.73 1241.09C1283.72 1240.19 1283.71 1238.92 1283.68 1237.28C1283.66 1233.88 1283.62 1228.95 1283.58 1222.54C1283.52 1209.68 1283.43 1190.97 1283.33 1167.31L1283.78 1167.76C1219.76 1167.82 1117.82 1167.93 1003.22 1168.04L1003.2 1168.04L1003.93 1167.31C1003.93 1193.12 1003.92 1218.3 1003.92 1242.42L1003.2 1241.7C1083.3 1241.83 1153.34 1241.94 1203.41 1242.03C1228.45 1242.11 1248.49 1242.18 1262.33 1242.23C1269.21 1242.27 1274.54 1242.3 1278.21 1242.32C1279.99 1242.34 1281.36 1242.36 1282.34 1242.37C1282.97 1242.38 1283.44 1242.4 1283.78 1242.42C1283.48 1242.44 1283.04 1242.45 1282.43 1242.46C1281.48 1242.47 1280.14 1242.49 1278.39 1242.51C1274.76 1242.53 1269.48 1242.56 1262.67 1242.6C1248.87 1242.65 1228.88 1242.72 1203.91 1242.81C1153.71 1242.89 1083.5 1243 1003.2 1243.13L1002.48 1243.14L1002.48 1242.42C1002.48 1218.3 1002.47 1193.12 1002.46 1167.31L1002.46 1166.57L1003.2 1166.57L1003.22 1166.57C1117.82 1166.69 1219.76 1166.79 1283.78 1166.86L1284.23 1166.86L1284.22 1167.31C1284.12 1191.08 1284.04 1209.89 1283.98 1222.81C1283.93 1229.17 1283.89 1234.07 1283.87 1237.44C1283.85 1239.06 1283.83 1240.29 1283.82 1241.18C1283.81 1241.74 1283.8 1242.15 1283.78 1242.42Z" />
								</g>
							</g>
						</g>
					</g>
					<g id="&lt;Group&gt;">
						<g id="&lt;Group&gt;">
							<g id="&lt;Group&gt;">
								<g id="&lt;Group&gt;">
									<path id="&lt;Path&gt;" class="shp1" d="M1171.29 1197.86C1168.98 1196.32 1166.4 1195.29 1163.75 1194.44C1161.35 1193.66 1158.83 1193.28 1156.31 1193.28L1135.65 1193.28C1129.57 1193.28 1123.61 1195.44 1119.2 1199.64C1118.11 1200.68 1117.24 1201.71 1116.74 1202.62C1114.97 1205.8 1114.89 1210.23 1117.54 1212.72C1120.2 1215.2 1125.62 1213.99 1126.07 1210.38C1125.94 1215.15 1130.82 1219.15 1135.58 1218.82C1140.34 1218.5 1144.39 1214.59 1145.74 1210.01C1145.68 1214.06 1149.15 1217.85 1153.19 1218.15C1157.22 1218.46 1161.22 1215.24 1161.78 1211.23C1164.33 1214.55 1168.1 1217.65 1172.45 1216.24C1174.93 1215.44 1176.77 1213.26 1177.4 1210.72C1178.69 1205.49 1175.47 1200.66 1171.29 1197.86Z" />
								</g>
							</g>
						</g>
						<g id="&lt;Group&gt;">
							<g id="&lt;Group&gt;">
								<g id="&lt;Group&gt;">
									<g id="&lt;Group&gt;">
										<path id="&lt;Path&gt;" class="shp0" d="M1139.33 1193.18C1139.55 1193.58 1134.57 1195.74 1130.85 1200.95C1127.03 1206.1 1126.51 1211.49 1126.07 1211.41C1125.9 1211.4 1125.76 1210.04 1126.18 1207.88C1126.6 1205.73 1127.68 1202.82 1129.66 1200.09C1131.65 1197.36 1134.09 1195.43 1136.01 1194.38C1137.93 1193.32 1139.27 1193.02 1139.33 1193.18Z" />
									</g>
								</g>
							</g>
						</g>
						<g id="&lt;Group&gt;">
							<g id="&lt;Group&gt;">
								<g id="&lt;Group&gt;">
									<g id="&lt;Group&gt;">
										<path id="&lt;Path&gt;" class="shp0" d="M1147.25 1194.04C1147.65 1194.11 1147.59 1197.78 1147.12 1202.25C1146.65 1206.72 1145.94 1210.33 1145.54 1210.31C1145.13 1210.29 1145.19 1206.61 1145.66 1202.1C1146.14 1197.59 1146.85 1193.98 1147.25 1194.04Z" />
									</g>
								</g>
							</g>
						</g>
						<g id="&lt;Group&gt;">
							<g id="&lt;Group&gt;">
								<g id="&lt;Group&gt;">
									<g id="&lt;Group&gt;">
										<path id="&lt;Path&gt;" class="shp0" d="M1157.21 1193.81C1157.3 1193.66 1158.38 1194.09 1159.6 1195.45C1160.83 1196.78 1162.04 1199.08 1162.5 1201.8C1162.97 1204.51 1162.77 1206.97 1162.54 1208.69C1162.3 1210.42 1162.02 1211.47 1161.82 1211.45C1161.62 1211.44 1161.53 1210.35 1161.51 1208.63C1161.47 1206.91 1161.49 1204.56 1161.06 1202.06C1160.63 1199.56 1159.7 1197.45 1158.78 1196.08C1157.88 1194.7 1157.07 1193.99 1157.21 1193.81Z" />
									</g>
								</g>
							</g>
						</g>
					</g>
				</g>
				<g id="&lt;Group&gt;">
					<path id="&lt;Path&gt;" class="shp0" d="M1269.73 1365.71L1018.25 1365.71L1018.25 1336.26L1269.73 1336.26L1269.73 1365.71Z" />
				</g>
			</g>
			<g id="&lt;Group&gt;">
				<g id="&lt;Group&gt;">
					<g id="&lt;Group&gt;">
						<g id="&lt;Group&gt;">
							<g id="&lt;Group&gt;">
								<g id="&lt;Group&gt;">
									<g id="&lt;Group&gt;">
										<path id="&lt;Path&gt;" class="shp1" d="M1206.5 1054.69L1206.5 1092.62L1043.4 1092.62C1032.93 1092.62 1024.43 1084.13 1024.43 1073.65L1024.43 1073.65C1024.43 1063.18 1032.93 1054.69 1043.4 1054.69" />
									</g>
								</g>
							</g>
						</g>
					</g>
					<g id="&lt;Group&gt;">
						<g id="&lt;Group&gt;">
							<g id="&lt;Group&gt;">
								<g id="&lt;Group&gt;">
									<g id="&lt;Group&gt;">
										<path id="&lt;Path&gt;" class="shp0" d="M1206.5 1084.67L1151.61 1084.67C1146.18 1084.67 1141.78 1080.27 1141.78 1074.84L1141.78 1072.46C1141.78 1067.04 1146.18 1062.64 1151.61 1062.64L1206.5 1062.64L1206.5 1084.67Z" />
									</g>
								</g>
							</g>
						</g>
					</g>
				</g>
				<g id="&lt;Group&gt;">
					<g id="&lt;Group&gt;">
						<g id="&lt;Group&gt;">
							<g id="&lt;Group&gt;">
								<g id="&lt;Group&gt;">
									<g id="&lt;Group&gt;">
										<path id="&lt;Path&gt;" class="shp0" d="M1206.5 1016.76L1206.5 1054.69L1043.4 1054.69C1032.93 1054.69 1024.43 1046.2 1024.43 1035.72L1024.43 1035.72C1024.43 1025.25 1032.93 1016.76 1043.4 1016.76L1206.5 1016.76Z" />
									</g>
								</g>
							</g>
						</g>
					</g>
					<g id="&lt;Group&gt;">
						<g id="&lt;Group&gt;">
							<g id="&lt;Group&gt;">
								<g id="&lt;Group&gt;">
									<g id="&lt;Group&gt;">
										<path id="&lt;Path&gt;" class="shp2" d="M1206.5 1046.74L1151.61 1046.74C1146.18 1046.74 1141.78 1042.34 1141.78 1036.91L1141.78 1034.53C1141.78 1029.11 1146.18 1024.71 1151.61 1024.71L1206.5 1024.71L1206.5 1046.74Z" />
									</g>
								</g>
							</g>
						</g>
					</g>
				</g>
				<g id="&lt;Group&gt;">
					<g id="&lt;Group&gt;">
						<g id="&lt;Group&gt;">
							<path id="&lt;Path&gt;" class="shp1" d="M1088.71 955.92L1062.81 1016.76L1079.48 1016.76L1090.99 984.26L1088.71 955.92Z" />
						</g>
					</g>
					<g id="&lt;Group&gt;">
						<g id="&lt;Group&gt;">
							<g id="&lt;Group&gt;">
								<g id="&lt;Group&gt;">
									<path id="&lt;Path&gt;" class="shp2" d="M1168.25 900.86L1178.26 1016.76L1093.59 1016.76L1084.29 900.86L1168.25 900.86Z" />
								</g>
							</g>
							<g id="&lt;Group&gt;">
								<g id="&lt;Group&gt;">
									<path id="&lt;Path&gt;" class="shp3" d="M1159.98 910.05L1168.75 1007.13L1105.2 1007.96L1096.61 909.49L1159.98 910.05Z" />
								</g>
							</g>
						</g>
						<g id="&lt;Group&gt;">
							<g id="&lt;Group&gt;">
								<path id="&lt;Path&gt;" class="shp1" d="M1146.5 923.49L1151.48 990.29L1117.58 990.29L1111.6 923.49L1146.5 923.49Z" />
							</g>
						</g>
					</g>
				</g>
			</g>
		</g>
		<g id="&lt;Group&gt;">
			<g id="&lt;Group&gt;">
				<path id="&lt;Path&gt;" class="shp0" d="M1153.92 793.47C1153.94 793.47 1153.97 793.8 1153.99 794.44C1154.01 795.15 1154.04 796.09 1154.07 797.27C1154.1 799.85 1154.15 803.51 1154.21 808.19C1154.27 817.8 1154.35 831.58 1154.45 848.7L1154.46 849.23L1153.92 849.23C1117.31 849.29 1064.98 849.38 1006.94 849.48C951.13 849.39 900.61 849.31 863.94 849.25C845.71 849.15 830.93 849.06 820.6 849C815.56 848.94 811.61 848.89 808.82 848.86C807.54 848.82 806.53 848.8 805.76 848.78C805.07 848.75 804.71 848.73 804.71 848.7C804.71 848.67 805.07 848.64 805.76 848.62C806.53 848.6 807.54 848.57 808.82 848.54C811.61 848.51 815.56 848.46 820.6 848.39C830.93 848.34 845.71 848.25 863.94 848.15C900.61 848.09 951.13 848.01 1006.94 847.92C1064.98 848.01 1117.31 848.1 1153.92 848.16L1153.38 848.7C1153.48 831.58 1153.57 817.8 1153.62 808.19C1153.69 803.51 1153.73 799.85 1153.77 797.27C1153.8 796.09 1153.82 795.15 1153.84 794.44C1153.87 793.8 1153.89 793.47 1153.92 793.47Z" />
			</g>
		</g>
	</g>
	<g id="Plant">
		<g id="&lt;Group&gt;">
			<g id="&lt;Group&gt;">
				<g id="&lt;Group&gt;">
					<g id="&lt;Group&gt;">
						<g id="&lt;Group&gt;">
							<path id="&lt;Path&gt;" class="shp4" d="M1279.28 1095.9C1255.76 1059.92 1259.19 1008.5 1287.29 975.96C1296.01 965.86 1308.2 957.08 1321.49 958.22C1335.11 959.39 1346.08 971.06 1350.22 984.08C1354.36 997.1 1352.92 1011.21 1350.49 1024.66C1347.08 1043.48 1341.38 1062.75 1328.32 1076.73C1315.26 1090.71 1296.07 1105.08 1279.28 1095.9Z" />
						</g>
					</g>
				</g>
				<g id="&lt;Group&gt;">
					<g id="&lt;Group&gt;">
						<g id="&lt;Group&gt;">
							<path id="&lt;Path&gt;" class="shp4" d="M1292.29 1269.11C1283.43 1248.44 1289.86 1222.26 1307.29 1208.04C1312.69 1203.63 1319.77 1200.21 1326.52 1202C1333.43 1203.84 1338.02 1210.85 1338.97 1217.93C1339.93 1225.01 1337.91 1232.15 1335.44 1238.86C1331.98 1248.25 1327.29 1257.66 1319.3 1263.68C1311.3 1269.7 1300.11 1275.36 1292.29 1269.11Z" />
						</g>
					</g>
				</g>
				<g id="&lt;Group&gt;">
					<g id="&lt;Group&gt;">
						<g id="&lt;Group&gt;">
							<path id="&lt;Path&gt;" class="shp4" d="M1235.56 1256.76C1242.03 1224.86 1225.21 1189.65 1196.33 1174.63C1187.37 1169.97 1176.34 1167.21 1167.3 1171.74C1158.05 1176.37 1153.61 1187.65 1154.34 1197.97C1155.07 1208.29 1160.04 1217.81 1165.51 1226.59C1173.18 1238.88 1182.59 1250.83 1195.69 1257.01C1208.8 1263.18 1226.32 1267.91 1235.56 1256.76Z" />
						</g>
					</g>
				</g>
				<g id="&lt;Group&gt;">
					<g id="&lt;Group&gt;">
						<g id="&lt;Group&gt;">
							<path id="&lt;Path&gt;" class="shp4" d="M1239.64 1170.49C1250.9 1134.14 1231.8 1090.07 1199.97 1069.21C1190.09 1062.74 1177.58 1058.23 1166.54 1062.44C1155.24 1066.74 1148.74 1079.35 1148.39 1091.44C1148.03 1103.53 1152.69 1115.18 1158.03 1126.03C1165.51 1141.23 1175.05 1156.23 1189.57 1164.95C1204.09 1173.67 1227.58 1182.38 1239.64 1170.49Z" />
						</g>
					</g>
				</g>
				<g id="&lt;Group&gt;">
					<g id="&lt;Group&gt;">
						<g id="&lt;Group&gt;">
							<path id="&lt;Path&gt;" class="shp5" d="M1262.26 1348.16C1262.21 1348.17 1262.08 1347.56 1261.89 1346.4C1261.69 1345.08 1261.44 1343.4 1261.13 1341.33C1260.98 1340.21 1260.81 1338.99 1260.62 1337.67C1260.37 1336.33 1260.09 1334.89 1259.79 1333.35C1259.2 1330.24 1258.59 1326.7 1257.57 1322.86C1257.1 1320.92 1256.62 1318.9 1256.11 1316.8C1255.5 1314.71 1254.86 1312.55 1254.21 1310.31C1252.99 1305.8 1251.2 1301.13 1249.52 1296.16C1245.8 1286.35 1241.17 1275.75 1235.49 1265.05C1229.71 1254.39 1223.44 1244.68 1217.31 1236.15C1214.1 1232 1211.2 1227.93 1208.11 1224.42C1206.61 1222.64 1205.15 1220.91 1203.75 1219.25C1202.28 1217.67 1200.87 1216.14 1199.51 1214.68C1196.87 1211.71 1194.26 1209.24 1192 1207.03C1190.88 1205.94 1189.83 1204.91 1188.86 1203.95C1187.86 1203.07 1186.93 1202.25 1186.09 1201.5C1184.53 1200.1 1183.27 1198.97 1182.28 1198.07C1181.42 1197.27 1180.98 1196.83 1181.02 1196.79C1181.05 1196.75 1181.55 1197.11 1182.48 1197.83C1183.52 1198.67 1184.85 1199.74 1186.48 1201.05C1187.36 1201.77 1188.31 1202.55 1189.35 1203.41C1190.36 1204.34 1191.44 1205.34 1192.59 1206.41C1194.92 1208.56 1197.6 1210.99 1200.3 1213.93C1201.69 1215.38 1203.13 1216.89 1204.64 1218.46C1206.07 1220.11 1207.55 1221.83 1209.09 1223.6C1212.24 1227.09 1215.19 1231.15 1218.46 1235.31C1224.68 1243.84 1231.03 1253.6 1236.85 1264.32C1242.56 1275.09 1247.18 1285.77 1250.86 1295.67C1252.51 1300.69 1254.26 1305.4 1255.43 1309.95C1256.06 1312.21 1256.67 1314.4 1257.26 1316.5C1257.74 1318.62 1258.19 1320.66 1258.63 1322.62C1259.59 1326.5 1260.13 1330.07 1260.64 1333.2C1260.89 1334.75 1261.13 1336.21 1261.35 1337.56C1261.49 1338.89 1261.61 1340.13 1261.73 1341.26C1261.92 1343.34 1262.08 1345.04 1262.2 1346.37C1262.29 1347.54 1262.31 1348.16 1262.26 1348.16Z" />
						</g>
					</g>
				</g>
				<g id="&lt;Group&gt;">
					<g id="&lt;Group&gt;">
						<g id="&lt;Group&gt;">
							<path id="&lt;Path&gt;" class="shp5" d="M1261.43 1354.7C1261.4 1354.69 1261.4 1354.45 1261.43 1353.97C1261.47 1353.41 1261.52 1352.71 1261.58 1351.86C1261.77 1349.89 1262.01 1347.2 1262.33 1343.79C1262.5 1342.02 1262.69 1340.08 1262.9 1337.96C1263.06 1335.82 1263.12 1333.5 1263.25 1331C1263.44 1326.01 1263.92 1320.33 1263.74 1314.03C1263.73 1310.89 1263.71 1307.59 1263.69 1304.16C1263.66 1300.73 1263.33 1297.17 1263.16 1293.48C1262.91 1286.08 1261.91 1278.24 1261.02 1269.98C1258.76 1253.51 1255.23 1235.54 1249.87 1217.12C1244.32 1198.74 1237.48 1181.75 1230.4 1166.71C1226.64 1159.3 1223.2 1152.18 1219.38 1145.84C1217.51 1142.65 1215.84 1139.49 1214 1136.59C1212.15 1133.71 1210.36 1130.94 1208.66 1128.29C1205.38 1122.92 1201.88 1118.42 1199 1114.33C1197.53 1112.31 1196.22 1110.39 1194.92 1108.69C1193.59 1107.03 1192.37 1105.5 1191.26 1104.12C1189.14 1101.43 1187.46 1099.31 1186.23 1097.75C1185.72 1097.08 1185.3 1096.52 1184.95 1096.07C1184.67 1095.69 1184.54 1095.48 1184.56 1095.47C1184.58 1095.45 1184.75 1095.62 1185.07 1095.97C1185.45 1096.39 1185.91 1096.92 1186.47 1097.55C1187.75 1099.06 1189.51 1101.13 1191.73 1103.74C1192.87 1105.1 1194.13 1106.6 1195.5 1108.24C1196.83 1109.92 1198.19 1111.82 1199.7 1113.82C1202.65 1117.87 1206.22 1122.34 1209.57 1127.69C1211.31 1130.33 1213.12 1133.09 1215.01 1135.97C1216.89 1138.86 1218.59 1142.02 1220.49 1145.2C1224.38 1151.54 1227.86 1158.67 1231.67 1166.1C1238.86 1181.16 1245.77 1198.22 1251.34 1216.68C1256.74 1235.19 1260.24 1253.25 1262.43 1269.8C1263.28 1278.1 1264.24 1285.98 1264.44 1293.41C1264.58 1297.12 1264.88 1300.69 1264.88 1304.14C1264.86 1307.58 1264.85 1310.88 1264.83 1314.04C1264.94 1320.36 1264.38 1326.05 1264.11 1331.05C1263.94 1333.55 1263.84 1335.88 1263.64 1338.02C1263.38 1340.14 1263.14 1342.09 1262.92 1343.85C1262.49 1347.25 1262.14 1349.94 1261.89 1351.9C1261.77 1352.75 1261.67 1353.43 1261.58 1353.99C1261.51 1354.46 1261.45 1354.7 1261.43 1354.7Z" />
						</g>
					</g>
				</g>
				<g id="&lt;Group&gt;">
					<g id="&lt;Group&gt;">
						<g id="&lt;Group&gt;">
							<path id="&lt;Path&gt;" class="shp5" d="M1322.68 1001.68C1322.7 1001.69 1322.6 1001.92 1322.38 1002.35C1322.11 1002.86 1321.77 1003.48 1321.36 1004.24C1320.38 1005.99 1319.04 1008.39 1317.34 1011.42C1316.48 1012.98 1315.44 1014.68 1314.44 1016.6C1313.47 1018.56 1312.42 1020.67 1311.3 1022.93C1310.16 1025.21 1308.95 1027.63 1307.67 1030.2C1306.44 1032.8 1305.27 1035.61 1303.98 1038.53C1302.72 1041.46 1301.3 1044.49 1300 1047.72C1298.75 1050.97 1297.44 1054.35 1296.09 1057.85C1295.42 1059.6 1294.73 1061.38 1294.04 1063.19C1293.42 1065.03 1292.79 1066.9 1292.15 1068.79C1290.87 1072.58 1289.55 1076.48 1288.21 1080.47C1283.22 1096.6 1278.5 1114.56 1274.5 1133.63C1270.64 1152.73 1267.93 1171.11 1265.93 1187.87C1264.21 1204.67 1262.94 1219.84 1262.6 1232.61C1262.27 1238.99 1262.21 1244.76 1262.19 1249.84C1262.11 1254.91 1262.09 1259.28 1262.21 1262.85C1262.26 1266.33 1262.29 1269.07 1262.32 1271.08C1262.32 1271.95 1262.32 1272.65 1262.31 1273.22C1262.3 1273.71 1262.28 1273.96 1262.26 1273.96C1262.23 1273.96 1262.2 1273.71 1262.16 1273.23C1262.12 1272.66 1262.07 1271.96 1262.01 1271.1C1261.91 1269.09 1261.78 1266.34 1261.61 1262.87C1261.4 1259.29 1261.33 1254.92 1261.33 1249.84C1261.27 1244.75 1261.26 1238.96 1261.51 1232.57C1261.72 1219.77 1262.88 1204.56 1264.52 1187.72C1266.45 1170.9 1269.12 1152.47 1273 1133.32C1277 1114.2 1281.78 1096.19 1286.85 1080.04C1288.23 1076.04 1289.57 1072.14 1290.87 1068.34C1291.52 1066.45 1292.17 1064.58 1292.8 1062.74C1293.51 1060.93 1294.21 1059.15 1294.9 1057.4C1296.28 1053.9 1297.62 1050.52 1298.9 1047.26C1300.24 1044.04 1301.69 1041.01 1302.98 1038.08C1304.32 1035.17 1305.52 1032.37 1306.78 1029.78C1308.11 1027.22 1309.36 1024.81 1310.53 1022.54C1311.7 1020.29 1312.79 1018.19 1313.8 1016.25C1314.84 1014.34 1315.92 1012.66 1316.82 1011.12C1318.63 1008.15 1320.05 1005.79 1321.1 1004.08C1321.56 1003.35 1321.94 1002.75 1322.24 1002.27C1322.51 1001.86 1322.65 1001.66 1322.68 1001.68Z" />
						</g>
					</g>
				</g>
				<g id="&lt;Group&gt;">
					<g id="&lt;Group&gt;">
						<g id="&lt;Group&gt;">
							<path id="&lt;Path&gt;" class="shp5" d="M1314.68 1222.49C1314.77 1222.55 1313.87 1224.11 1312.18 1226.88C1310.46 1229.63 1308.1 1233.7 1305.33 1238.78C1302.54 1243.86 1299.5 1250.06 1296.42 1257.07C1293.41 1264.12 1290.41 1271.98 1287.77 1280.42C1285.19 1288.87 1283.23 1297.07 1281.74 1304.58C1280.33 1312.11 1279.34 1318.94 1278.78 1324.71C1278.2 1330.47 1277.86 1335.16 1277.72 1338.4C1277.56 1341.64 1277.42 1343.44 1277.31 1343.44C1277.21 1343.44 1277.15 1341.64 1277.13 1338.39C1277.07 1335.13 1277.25 1330.42 1277.7 1324.61C1278.12 1318.8 1279 1311.91 1280.34 1304.32C1281.77 1296.74 1283.7 1288.48 1286.3 1279.96C1288.95 1271.47 1292.02 1263.56 1295.12 1256.5C1298.29 1249.48 1301.45 1243.29 1304.38 1238.25C1307.28 1233.21 1309.8 1229.22 1311.68 1226.56C1313.53 1223.88 1314.59 1222.43 1314.68 1222.49Z" />
						</g>
					</g>
				</g>
			</g>
			<g id="&lt;Group&gt;">
				<g id="&lt;Group&gt;">
					<g id="&lt;Group&gt;">
						<path id="&lt;Path&gt;" class="shp6" d="M1216.05 1331.97L1319.4 1331.97L1306.89 1437.52L1228.92 1437.52L1216.05 1331.97Z" />
					</g>
				</g>
			</g>
			<g id="&lt;Group&gt;">
				<g id="&lt;Group&gt;">
					<path id="&lt;Path&gt;" class="shp5" d="M1219.82 1426.13L1228.6 1437.52L1306.89 1437.52L1315.92 1426.49L1219.82 1426.13Z" />
				</g>
			</g>
			<g id="&lt;Group&gt;">
				<g id="&lt;Group&gt;">
					<g id="&lt;Group&gt;">
						<path id="&lt;Path&gt;" class="shp3" d="M1315.37 1363.01C1315.37 1363.44 1293.92 1363.78 1267.47 1363.78C1241.02 1363.78 1219.57 1363.44 1219.57 1363.01C1219.57 1362.59 1241.02 1362.24 1267.47 1362.24C1293.92 1362.24 1315.37 1362.59 1315.37 1363.01Z" />
					</g>
				</g>
			</g>
			<g id="&lt;Group&gt;">
				<g id="&lt;Group&gt;">
					<g id="&lt;Group&gt;">
						<path id="&lt;Path&gt;" class="shp3" d="M1315.37 1370.04C1315.37 1370.46 1293.92 1370.81 1267.47 1370.81C1241.02 1370.81 1219.57 1370.46 1219.57 1370.04C1219.57 1369.61 1241.02 1369.27 1267.47 1369.27C1293.92 1369.27 1315.37 1369.61 1315.37 1370.04Z" />
					</g>
				</g>
			</g>
			<g id="&lt;Group&gt;">
				<g id="&lt;Group&gt;">
					<g id="&lt;Group&gt;">
						<path id="&lt;Path&gt;" class="shp3" d="M1314.08 1376.84C1314.08 1377.27 1293.39 1377.61 1267.86 1377.61C1242.33 1377.61 1221.64 1377.27 1221.64 1376.84C1221.64 1376.42 1242.33 1376.07 1267.86 1376.07C1293.39 1376.07 1314.08 1376.42 1314.08 1376.84Z" />
					</g>
				</g>
			</g>
		</g>
	</g>
	<g id="Character">
		<g id="&lt;Group&gt;">
			<g id="&lt;Group&gt;">
				<g id="&lt;Group&gt;">
					<g id="&lt;Group&gt;">
						<path id="&lt;Compound Path&gt;" class="shp5" d="M238.6 1324.41L190.77 1437.82L157.08 1437.52L171.93 1324.32L238.6 1324.41Z" />
					</g>
					<g id="&lt;Group&gt;">
						<path id="&lt;Compound Path&gt;" class="shp5" d="M421.8 1324.78L374.6 1437.67L340.91 1437.37L355.64 1324.65L421.8 1324.78Z" />
					</g>
					<g id="&lt;Group&gt;">
						<g id="&lt;Group&gt;">
							<path id="&lt;Path&gt;" class="shp6" d="M159.97 644.31C178.46 616.57 543.49 612.51 559.11 641.4L692.47 894.87L893.05 885.65C893.05 885.58 920.01 884.37 946.41 909.61C959.43 922.05 958.77 1000.57 955.1 1030.91C953.47 1044.37 942.41 1142.67 921.9 1325.8L166.18 1324.27C149.71 889.45 147.64 662.79 159.97 644.31Z" />
						</g>
					</g>
					<g id="&lt;Group&gt;">
						<g id="&lt;Group&gt;">
							<path id="&lt;Path&gt;" class="shp5" d="M380.48 1331.44C380.53 1330.9 380.58 1330.09 380.62 1329.03C380.67 1327.37 380.74 1325.02 380.83 1321.95C380.99 1315.67 381.21 1306.53 381.49 1294.81C381.98 1271.24 382.69 1237.33 383.56 1195.76L382.93 1196.37C444.76 1196.82 525.01 1197.39 612.44 1198.01C703.74 1198.51 787.21 1198.98 850.24 1199.32L849.64 1198.82C856.12 1237.51 855.41 1269.61 853.85 1291.54C853.05 1302.53 851.99 1311.04 851.24 1316.8C850.84 1319.64 850.53 1321.82 850.32 1323.36C850.18 1324.35 850.1 1325.09 850.06 1325.61C851.78 1317.6 853.28 1306.26 854.53 1291.59C856.29 1269.64 857.2 1237.46 850.84 1198.62L850.76 1198.11L850.25 1198.11C787.21 1197.66 703.75 1197.06 612.45 1196.41C525.02 1195.92 444.77 1195.47 382.94 1195.13L382.32 1195.13L382.31 1195.74C381.67 1237.31 381.15 1271.22 380.79 1294.8C380.65 1306.52 380.54 1315.66 380.47 1321.94C380.45 1325.01 380.44 1327.37 380.43 1329.02C380.43 1330.09 380.45 1330.9 380.48 1331.44Z" />
						</g>
					</g>
					<g id="&lt;Group&gt;">
						<g id="&lt;Group&gt;">
							<path id="&lt;Path&gt;" class="shp5" d="M403.66 906.09C403.32 906.07 402.81 906.06 402.13 906.06C401.11 906.08 399.58 906.01 397.6 906.3C393.63 906.69 387.7 907.95 380.84 911.54C374.01 915.12 366.35 921.16 359.75 930.15C353.06 939.08 348.02 951.17 345.41 965.14C342.67 979.13 342.28 994.9 342.34 1011.86C342.36 1028.83 342.93 1047.13 344.06 1066.57C346.31 1105.45 351.13 1148.82 356.32 1195.6L356.4 1196.26L357.06 1196.26C415.87 1196.66 480.48 1197.1 548.15 1197.56C682.32 1198.35 804.42 1199.06 894.74 1199.59L895.3 1199.6L895.33 1199.05C896.8 1173.48 895.36 1150.23 891.93 1130.17C888.39 1110.16 882.37 1093.25 873.99 1081.5C869.86 1075.63 865.2 1071.08 860.54 1068.09C859.97 1067.7 859.41 1067.31 858.86 1066.93C858.27 1066.63 857.69 1066.32 857.13 1066.03C855.99 1065.44 854.91 1064.88 853.87 1064.34C851.66 1063.59 849.71 1062.74 847.87 1062.29C846.03 1061.9 844.4 1061.55 842.99 1061.25C841.57 1061.08 840.36 1061.04 839.4 1060.96C838.11 1060.87 837.14 1060.81 836.48 1060.79C837.14 1060.89 838.1 1061 839.38 1061.13C840.34 1061.24 841.54 1061.31 842.95 1061.51C844.35 1061.83 845.96 1062.2 847.78 1062.61C849.59 1063.09 851.52 1063.96 853.7 1064.73C854.72 1065.27 855.79 1065.84 856.9 1066.43C857.46 1066.73 858.03 1067.03 858.61 1067.34C859.15 1067.72 859.7 1068.11 860.26 1068.5C864.84 1071.5 869.41 1076.04 873.46 1081.88C881.67 1093.56 887.57 1110.4 891 1130.33C894.33 1150.31 895.69 1173.53 894.15 1198.96L894.74 1198.42C804.43 1197.77 682.33 1196.91 548.16 1195.96C480.49 1195.54 415.88 1195.14 357.07 1194.77L357.81 1195.44C352.55 1148.66 347.65 1105.33 345.31 1066.5C344.13 1047.08 343.51 1028.81 343.44 1011.85C343.32 994.91 343.64 979.21 346.3 965.31C348.84 951.42 353.76 939.45 360.32 930.57C366.8 921.62 374.34 915.58 381.07 911.97C387.83 908.34 393.69 907.01 397.63 906.54C401.58 906.04 403.67 906.22 403.66 906.09Z" />
						</g>
					</g>
					<g id="&lt;Group&gt;">
						<path id="&lt;Path&gt;" class="shp5" d="M910.81 1325.77L921.76 1437.52L888.07 1437.22L845.89 1325.64L910.81 1325.77Z" />
					</g>
				</g>
				<g id="&lt;Group&gt;">
					<g id="&lt;Group&gt;">
						<path id="&lt;Path&gt;" class="shp5" d="M847.87 1062.29C847.85 1062.39 846.66 1062.26 844.52 1061.93C842.06 1061.52 839.05 1061.02 835.5 1060.43C827.89 1059.14 817.39 1057.28 805.71 1056.02C794.02 1054.77 783.37 1054.56 775.66 1054.6C772.07 1054.65 769.02 1054.69 766.53 1054.72C764.37 1054.75 763.17 1054.71 763.16 1054.6C763.15 1054.49 764.34 1054.33 766.49 1054.11C768.65 1053.88 771.77 1053.68 775.64 1053.5C783.37 1053.17 794.1 1053.21 805.87 1054.46C817.63 1055.73 828.14 1057.78 835.71 1059.34C839.49 1060.14 842.54 1060.82 844.64 1061.34C846.74 1061.85 847.89 1062.18 847.87 1062.29Z" />
					</g>
				</g>
				<g id="&lt;Group&gt;">
					<g id="&lt;Group&gt;">
						<path id="&lt;Path&gt;" class="shp5" d="M901.12 886.12C901.18 886.27 898.68 887.35 894.41 889.72C890.11 892.05 884.19 896 877.76 901.9C871.31 907.78 864.64 915.87 858.76 925.79C852.89 935.73 847.95 947.54 844.66 960.44C838.28 986.42 838.69 1010.93 839.09 1028.38C839.34 1037.15 839.69 1044.24 839.89 1049.14C839.97 1051.47 840.04 1053.34 840.09 1054.79C840.12 1056.09 840.11 1056.77 840.06 1056.77C840 1056.77 839.91 1056.1 839.78 1054.81C839.65 1053.36 839.49 1051.5 839.28 1049.18C838.89 1044.29 838.38 1037.2 837.99 1028.42C837.6 1019.65 837.35 1009.17 837.91 997.54C838.45 985.93 839.92 973.14 843.15 960.06C846.48 947.01 851.52 935.07 857.52 925.06C863.55 915.06 870.39 906.93 877.02 901.09C883.62 895.22 889.7 891.37 894.12 889.18C896.26 887.97 898.1 887.36 899.27 886.81C900.46 886.31 901.1 886.07 901.12 886.12Z" />
					</g>
				</g>
				<g id="&lt;Group&gt;" style="opacity: 0.302">
					<g id="&lt;Group&gt;">
						<path id="&lt;Path&gt;" class="shp7" d="M506.03 1096.21C528.77 1101.53 552.22 1103.86 575.56 1103.15C577.28 1176.12 583.59 1248.98 594.44 1321.16C600.28 1323.74 606.31 1326.38 612.7 1326.54C619.09 1326.71 625.99 1323.8 628.62 1317.98C630.18 1314.52 630.06 1310.57 629.9 1306.78C626.75 1234.1 619.27 1161.61 607.51 1089.83C606.64 1084.51 605.39 1078.61 600.93 1075.59C596.68 1072.71 591.03 1073.5 585.98 1074.44C557.82 1079.7 529.89 1086.22 502.31 1093.98" />
					</g>
				</g>
				<g id="&lt;Group&gt;">
					<path id="&lt;Path&gt;" class="shp8" d="M472.75 1090.12L479.79 1189.96C495.53 1153.96 501.38 1129.07 497.35 1115.29C493.31 1101.51 485.12 1093.12 472.75 1090.12Z" />
				</g>
			</g>
			<g id="&lt;Group&gt;">
				<g id="&lt;Group&gt;">
					<g id="&lt;Group&gt;">
						<g id="&lt;Group&gt;">
							<path id="&lt;Path&gt;" class="shp5" d="M466.71 693.03C464.37 614.32 462.03 535.61 459.69 456.89L452.06 443.31C445.35 437.38 434.46 438.41 427.19 443.64C419.93 448.87 415.68 457.31 412.76 465.78C398.74 506.41 409.83 551.03 406.87 593.91C406.22 603.21 404.75 612.87 399.35 620.47C392.01 630.77 378.4 635.86 372.78 647.19C367.71 657.42 371.48 671.17 381.06 677.37C374.18 681.38 367.07 685.58 362.5 692.11C357.94 698.64 356.66 708.19 361.72 714.34C367.2 720.99 377.2 721.08 385.78 720.31C410.07 718.12 434.16 713.55 457.41 706.19C460.32 705.27 463.42 704.16 465.15 701.64C466.83 699.19 466.8 696 466.71 693.03Z" />
						</g>
						<g id="&lt;Group&gt;">
							<g id="&lt;Group&gt;">
								<path id="&lt;Path&gt;" class="shp9" d="M416.6 652.36C416.47 652.13 419.63 651.72 423.16 647.9C426.68 644.12 429.35 636.82 430.15 627.61C431.48 609.08 432.02 583.28 429.8 554.97C428.71 540.8 427.01 527.38 425.1 515.21C423.11 503.1 422.08 491.65 424.71 482.46C427.24 473.29 432.57 467.15 436.94 464.26C439.13 462.76 441.07 462.05 442.36 461.58C443.7 461.21 444.4 461.06 444.42 461.11C444.5 461.3 441.51 461.75 437.29 464.76C433.14 467.73 428.1 473.8 425.77 482.75C423.36 491.71 424.45 502.9 426.52 514.99C428.52 527.16 430.27 540.64 431.35 554.85C433.58 583.27 432.87 609.11 431.25 627.72C430.3 637.05 427.4 644.52 423.6 648.32C421.76 650.25 419.88 651.19 418.63 651.77C417.31 652.22 416.62 652.4 416.6 652.36Z" />
							</g>
						</g>
					</g>
					<g id="&lt;Group&gt;">
						<g id="&lt;Group&gt;">
							<g id="&lt;Group&gt;">
								<path id="&lt;Path&gt;" class="shp10" d="M470.31 455.81C469.61 459.13 471.93 453.02 470.31 455.81Z" />
							</g>
							<g id="&lt;Group&gt;">
								<path id="&lt;Path&gt;" class="shp10" d="M467.68 442.59C464.96 439.73 460.75 440.94 457.63 443.18C452.27 447.01 448.21 453.34 445.54 460.33C442.88 467.33 441.54 474.99 440.73 482.64C440.26 487.06 440.25 492.36 443.11 494.91C445.16 496.72 448.06 496.36 450.27 494.8C452.48 493.24 454.14 490.7 455.67 488.15C461.64 478.22 466.57 467.31 470.31 455.81C471.01 452.48 469.76 444.77 467.68 442.59Z" />
							</g>
						</g>
						<g id="&lt;Group&gt;">
							<g id="&lt;Group&gt;">
								<g id="&lt;Group&gt;">
									<path id="&lt;Path&gt;" class="shp5" d="M445.45 501.63C451.47 476.03 462.25 449.87 483.46 434.32C502.36 420.47 529.93 415.19 553.3 416.93C564.81 417.79 577.65 423.53 587.5 429.54C601.01 437.78 606.32 453.77 612.5 468.33C624.86 497.52 621.91 536.4 612.55 546.93L490.33 606.47C469.43 594.71 446.77 578.87 441.9 555.38C438.58 539.39 441.7 517.53 445.45 501.63Z" />
								</g>
								<g id="&lt;Group&gt;">
									<g id="&lt;Group&gt;">
										<path id="&lt;Path&gt;" class="shp11" d="M491.72 456.21L568.07 436.36C592.54 433.61 609.03 463.65 610.75 488.22C612.65 515.52 613.91 548.92 610.81 569.31C606.66 596.66 594.12 613.58 573.19 620.07C573.18 619.93 573.12 655.68 572.97 667.86L537.37 776.33L486.72 667.86L478.93 470.92C478.73 463.44 484.29 457.05 491.72 456.21Z" />
									</g>
									<g id="&lt;Group&gt;">
										<g id="&lt;Group&gt;">
											<path id="&lt;Path&gt;" class="shp5" d="M597.11 521.29C597.23 524.06 594.97 526.45 592.08 526.62C589.19 526.8 586.75 524.7 586.63 521.92C586.51 519.15 588.77 516.76 591.65 516.58C594.55 516.41 596.99 518.51 597.11 521.29Z" />
										</g>
									</g>
									<g id="&lt;Group&gt;">
										<g id="&lt;Group&gt;">
											<path id="&lt;Path&gt;" class="shp5" d="M603.62 505.65C602.97 506.34 598.97 503.42 593.32 503.47C587.67 503.45 583.54 506.38 582.92 505.7C582.62 505.39 583.27 504.15 585.07 502.82C586.84 501.5 589.86 500.2 593.39 500.2C596.91 500.19 599.88 501.47 601.59 502.78C603.34 504.1 603.94 505.34 603.62 505.65Z" />
										</g>
									</g>
									<g id="&lt;Group&gt;">
										<g id="&lt;Group&gt;">
											<path id="&lt;Path&gt;" class="shp5" d="M545.8 521.29C545.92 524.06 543.67 526.45 540.77 526.62C537.88 526.8 535.44 524.7 535.32 521.92C535.2 519.15 537.46 516.76 540.35 516.58C543.24 516.41 545.68 518.51 545.8 521.29Z" />
										</g>
									</g>
									<g id="&lt;Group&gt;">
										<g id="&lt;Group&gt;">
											<path id="&lt;Path&gt;" class="shp5" d="M548.05 507.08C547.4 507.77 543.39 504.85 537.74 504.91C532.1 504.88 527.97 507.82 527.35 507.13C527.05 506.82 527.69 505.58 529.5 504.26C531.27 502.93 534.29 501.64 537.81 501.63C541.34 501.63 544.31 502.9 546.02 504.22C547.76 505.54 548.36 506.77 548.05 507.08Z" />
										</g>
									</g>
									<g id="&lt;Group&gt;">
										<g id="&lt;Group&gt;">
											<path id="&lt;Path&gt;" class="shp5" d="M568.85 548.88C568.82 548.55 572.33 547.92 578.02 547.16C579.47 547 580.83 546.7 581.07 545.71C581.4 544.67 580.79 543.12 580.08 541.44C578.69 537.96 577.25 534.3 575.73 530.48C569.7 514.86 565.32 502.02 565.95 501.78C566.58 501.55 571.98 514.01 578.02 529.62C579.47 533.47 580.86 537.14 582.18 540.65C582.74 542.29 583.69 544.15 582.97 546.32C582.59 547.4 581.54 548.19 580.61 548.44C579.69 548.73 578.88 548.75 578.16 548.8C572.43 549.15 568.88 549.2 568.85 548.88Z" />
										</g>
									</g>
									<g id="&lt;Group&gt;">
										<path id="&lt;Path&gt;" class="shp12" d="M573.29 620.37L573.06 630.58C545.74 633.32 527.49 625.16 518.32 606.11C536.6 616.93 554.92 621.69 573.29 620.37Z" />
									</g>
									<g id="&lt;Group&gt;">
										<path id="&lt;Path&gt;" class="shp12" d="M550.25 559.56C551.85 556.91 554.77 555.51 557.77 555.39C562.1 555.22 565.73 556.68 568.57 560.65C569.54 561.8 569.48 565.05 569.08 565.95C568.69 566.85 569 566.41 568.3 567.03C565.79 569.28 563.13 571.53 559.89 572.33C556.65 573.12 552.65 572.1 550.5 568.94C548.6 566.14 548.64 562.2 550.25 559.56Z" />
									</g>
									<g id="&lt;Group&gt;">
										<g id="&lt;Group&gt;">
											<path id="&lt;Path&gt;" class="shp5" d="M552.24 552.9C553.16 552.84 553.21 558.98 558.5 563.3C563.77 567.63 570.31 566.9 570.36 567.76C570.45 568.14 568.91 568.96 566.15 569.05C563.44 569.16 559.48 568.32 556.25 565.68C553.03 563.03 551.62 559.47 551.4 556.96C551.15 554.39 551.82 552.87 552.24 552.9Z" />
										</g>
									</g>
									<g id="&lt;Group&gt;">
										<g id="&lt;Group&gt;">
											<path id="&lt;Path&gt;" class="shp5" d="M550.58 488.96C550.03 490.51 544.38 489.82 537.76 490.66C531.11 491.37 525.77 493.35 524.88 491.98C524.49 491.32 525.41 489.87 527.56 488.36C529.7 486.86 533.11 485.43 537.09 484.96C541.07 484.5 544.72 485.1 547.14 486.07C549.58 487.03 550.82 488.23 550.58 488.96Z" />
										</g>
									</g>
									<g id="&lt;Group&gt;">
										<g id="&lt;Group&gt;">
											<path id="&lt;Path&gt;" class="shp5" d="M601.43 486.12C600.44 487.41 596.54 486.11 591.85 486.07C587.17 485.88 583.21 487 582.29 485.66C581.88 485.01 582.5 483.72 584.22 482.49C585.92 481.27 588.77 480.26 591.99 480.33C595.21 480.41 598.01 481.56 599.65 482.86C601.31 484.17 601.86 485.49 601.43 486.12Z" />
										</g>
									</g>
									<g id="&lt;Group&gt;">
										<g id="&lt;Group&gt;">
											<path id="&lt;Path&gt;" class="shp11" d="M489.96 520.78C489.39 520.52 467.14 513.46 467.35 536.33C467.55 559.2 490.47 554.28 490.5 553.62C490.52 553.18 490.34 542.24 489.96 520.78Z" />
										</g>
									</g>
									<g id="&lt;Group&gt;">
										<g id="&lt;Group&gt;">
											<path id="&lt;Path&gt;" class="shp12" d="M483.44 545.02C483.34 544.95 483.04 545.3 482.37 545.62C481.72 545.92 480.59 546.14 479.4 545.7C476.97 544.84 474.9 541.02 474.76 536.9C474.68 534.82 475.1 532.83 475.82 531.19C476.5 529.51 477.58 528.33 478.79 528.1C480 527.81 480.87 528.53 481.15 529.17C481.46 529.81 481.32 530.27 481.44 530.31C481.51 530.36 481.93 529.92 481.74 528.97C481.64 528.52 481.37 527.98 480.83 527.55C480.27 527.11 479.46 526.89 478.62 526.99C476.85 527.12 475.28 528.76 474.49 530.57C473.6 532.39 473.08 534.62 473.16 536.96C473.35 541.56 475.75 545.85 479.06 546.78C480.67 547.19 482.01 546.69 482.7 546.14C483.4 545.57 483.52 545.06 483.44 545.02Z" />
										</g>
									</g>
								</g>
								<g id="&lt;Group&gt;">
									<g id="&lt;Group&gt;">
										<path id="&lt;Path&gt;" class="shp1" d="M475.88 552.64C475.78 552.53 474.9 553.61 475.02 555.65C475.1 556.62 475.43 557.96 476.64 558.85C477.87 559.73 479.58 559.73 481.03 559.17C482.48 558.63 483.79 557.46 484.07 556C484.38 554.6 483.97 553.34 483.44 552.48C482.31 550.72 480.87 550.55 480.88 550.67C480.79 550.84 481.96 551.29 482.73 552.88C483.09 553.65 483.32 554.7 483.04 555.74C482.79 556.76 481.82 557.62 480.62 558.09C479.42 558.55 478.09 558.53 477.25 557.98C476.39 557.42 475.99 556.39 475.84 555.55C475.52 553.79 476.04 552.71 475.88 552.64Z" />
									</g>
								</g>
								<g id="&lt;Group&gt;">
									<path id="&lt;Path&gt;" class="shp5" d="M612.58 494.71C609.51 488.08 603.51 483.24 597.15 479.63C590.8 476.01 583.92 473.38 577.6 469.71C563.08 461.28 551.89 447.28 546.87 431.27C558.12 425.46 572.14 426.12 583.48 431.74C594.83 437.36 603.57 447.54 608.79 459.08C614.01 470.62 615.9 483.46 615.77 496.12" />
								</g>
								<g id="&lt;Group&gt;">
									<g id="&lt;Group&gt;">
										<path id="&lt;Path&gt;" class="shp5" d="M484.7 450.1C501.61 434.03 533.57 425.16 555.61 432.69C552.34 451.94 537.81 473.56 525.03 488.33C512.17 503.18 504.4 529.22 476.42 520.37C474.5 519.76 472.29 521.52 470.55 520.5C469.07 519.63 468.38 517.89 467.85 516.26C460.48 493.42 467.31 466.63 484.7 450.1Z" />
									</g>
								</g>
							</g>
							<g id="&lt;Group&gt;">
								<g id="&lt;Group&gt;">
									<path id="&lt;Path&gt;" class="shp13" d="M475.09 446.37C475.06 446.39 475.22 446.65 475.56 447.14C475.92 447.61 476.39 448.35 477.14 449.2C478.57 450.94 480.87 453.3 484.09 455.75C487.3 458.2 491.52 460.64 496.59 462.42C501.63 464.21 507.55 465.23 513.75 464.93C519.95 464.55 525.72 462.88 530.54 460.56C535.38 458.23 539.31 455.34 542.24 452.55C545.17 449.77 547.2 447.17 548.42 445.28C549.08 444.36 549.46 443.57 549.77 443.06C550.05 442.54 550.19 442.26 550.16 442.24C549.94 442.08 547.65 446.63 541.72 451.99C538.78 454.67 534.88 457.44 530.12 459.66C525.38 461.89 519.73 463.49 513.69 463.86C507.65 464.15 501.87 463.19 496.91 461.49C491.93 459.8 487.75 457.47 484.54 455.14C478.06 450.45 475.28 446.18 475.09 446.37Z" />
								</g>
							</g>
							<g id="&lt;Group&gt;">
								<g id="&lt;Group&gt;">
									<path id="&lt;Path&gt;" class="shp9" d="M464.11 477.5C464.09 477.53 464.35 477.79 464.88 478.28C465.43 478.73 466.14 479.53 467.27 480.3C469.41 481.99 472.85 484.03 477.47 485.65C482.08 487.28 487.93 488.21 494.4 487.93C500.85 487.62 507.92 486 514.64 482.72C521.33 479.38 527.02 474.99 531.59 470.45C536.18 465.92 539.74 461.31 542.47 457.29C545.2 453.27 547.15 449.85 548.41 447.45C549.06 446.26 549.5 445.3 549.82 444.66C550.13 444.01 550.27 443.66 550.24 443.65C550.2 443.63 550 443.94 549.63 444.55C549.21 445.27 548.68 446.16 548.05 447.24C546.68 449.58 544.64 452.92 541.85 456.86C539.06 460.8 535.47 465.31 530.9 469.75C526.35 474.19 520.73 478.48 514.17 481.76C507.59 484.97 500.67 486.59 494.34 486.95C488.01 487.27 482.26 486.44 477.71 484.93C473.15 483.44 469.7 481.53 467.51 479.96C465.31 478.42 464.19 477.41 464.11 477.5Z" />
								</g>
							</g>
						</g>
						<g id="&lt;Group&gt;">
							<g id="&lt;Group&gt;">
								<path id="&lt;Path&gt;" class="shp9" d="M484.18 602.65C484.15 602.69 483.73 602.5 482.96 602.09C482.2 601.66 481.05 601.08 479.65 600.19C476.82 598.47 472.81 595.79 468.26 591.96C463.7 588.14 458.71 583.02 454.16 576.56C449.67 570.08 445.73 562.22 443.23 553.46C438.08 535.88 439.28 518.89 442.12 507.42C443.51 501.63 445.17 497.1 446.49 494.05C447.11 492.52 447.73 491.38 448.11 490.59C448.5 489.82 448.73 489.42 448.78 489.44C448.9 489.5 448.2 491.19 447.05 494.28C445.91 497.37 444.44 501.91 443.2 507.66C440.67 519.07 439.68 535.76 444.73 553.02C447.19 561.62 451 569.34 455.34 575.75C459.75 582.12 464.57 587.25 468.99 591.12C473.39 595.01 477.26 597.82 479.98 599.68C482.71 601.54 484.24 602.54 484.18 602.65Z" />
							</g>
						</g>
					</g>
				</g>
				<g id="&lt;Group&gt;">
					<g id="&lt;Group&gt;">
						<g id="&lt;Group&gt;">
							<g id="&lt;Group&gt;">
								<g id="&lt;Group&gt;">
									<g id="&lt;Group&gt;">
										<g id="&lt;Group&gt;">
											<path id="&lt;Path&gt;" class="shp10" d="M817.28 1179.15L855.49 1248.58C909.06 1234.97 938.62 1232.21 944.16 1240.3L815.24 1324.12L751.27 1218.39L817.28 1179.15Z" />
										</g>
									</g>
								</g>
							</g>
							<g id="&lt;Group&gt;" style="opacity: 0.6">
								<g id="&lt;Group&gt;">
									<g id="&lt;Group&gt;">
										<g id="&lt;Group&gt;">
											<g id="&lt;Group&gt;">
												<path id="&lt;Path&gt;" class="shp13" d="M811.26 1267.26C809.13 1269.49 809.08 1273.42 811.22 1275.64C813.35 1277.87 817.34 1277.95 819.52 1275.76C821.69 1273.57 821.9 1268.86 819.52 1266.89C817.15 1264.92 812.46 1265.08 810.87 1267.72" />
											</g>
										</g>
									</g>
								</g>
							</g>
							<g id="&lt;Group&gt;" style="opacity: 0.6">
								<g id="&lt;Group&gt;">
									<g id="&lt;Group&gt;">
										<g id="&lt;Group&gt;">
											<path id="&lt;Path&gt;" class="shp13" d="M815.24 1324.12L808.8 1313.46L936.1 1236.87C939.64 1236.29 942.75 1237.61 945.42 1240.82L815.24 1324.12Z" />
										</g>
									</g>
								</g>
							</g>
							<g id="&lt;Group&gt;">
								<g id="&lt;Group&gt;">
									<g id="&lt;Group&gt;">
										<g id="&lt;Group&gt;">
											<g id="&lt;Group&gt;">
												<path id="&lt;Path&gt;" class="shp5" d="M857.22 1246.63C857.59 1247.29 854.54 1249.5 852.61 1253.47C850.57 1257.39 850.61 1261.16 849.86 1261.26C849.19 1261.49 847.85 1257.06 850.27 1252.3C852.65 1247.51 857.01 1245.95 857.22 1246.63Z" />
											</g>
										</g>
									</g>
								</g>
							</g>
							<g id="&lt;Group&gt;">
								<g id="&lt;Group&gt;">
									<g id="&lt;Group&gt;">
										<g id="&lt;Group&gt;">
											<g id="&lt;Group&gt;">
												<path id="&lt;Path&gt;" class="shp5" d="M874.49 1244.08C875.01 1244.61 872.87 1247.38 872.31 1251.41C871.64 1255.43 872.85 1258.71 872.19 1259.06C871.64 1259.52 868.94 1256.02 869.73 1251.01C870.48 1246.01 874.1 1243.47 874.49 1244.08Z" />
											</g>
										</g>
									</g>
								</g>
							</g>
							<g id="&lt;Group&gt;">
								<g id="&lt;Group&gt;">
									<g id="&lt;Group&gt;">
										<g id="&lt;Group&gt;">
											<g id="&lt;Group&gt;">
												<path id="&lt;Path&gt;" class="shp5" d="M892.25 1255.94C891.75 1256.43 888.93 1253.74 888.47 1249.22C887.98 1244.71 890.19 1241.5 890.78 1241.87C891.46 1242.19 890.64 1245.25 891.07 1248.95C891.41 1252.67 892.86 1255.49 892.25 1255.94Z" />
											</g>
										</g>
									</g>
								</g>
							</g>
							<g id="&lt;Group&gt;">
								<g id="&lt;Group&gt;">
									<g id="&lt;Group&gt;">
										<g id="&lt;Group&gt;">
											<g id="&lt;Group&gt;">
												<path id="&lt;Path&gt;" class="shp5" d="M846.76 1231.77C846.84 1232.52 843.35 1233.4 839.86 1235.83C836.32 1238.18 834.21 1241.1 833.55 1240.75C832.9 1240.5 834.24 1236.46 838.39 1233.66C842.52 1230.83 846.77 1231.08 846.76 1231.77Z" />
											</g>
										</g>
									</g>
								</g>
							</g>
						</g>
						<g id="&lt;Group&gt;" style="opacity: 0.302">
							<g id="&lt;Group&gt;">
								<g id="&lt;Group&gt;">
									<g id="&lt;Group&gt;">
										<path id="&lt;Path&gt;" class="shp7" d="M824.83 1192.91L831.65 1205.28L766.45 1243.47L759.84 1232.61L824.83 1192.91Z" />
									</g>
								</g>
							</g>
						</g>
						<g id="&lt;Group&gt;">
							<g id="&lt;Group&gt;">
								<g id="&lt;Group&gt;">
									<g id="&lt;Group&gt;">
										<g id="&lt;Group&gt;">
											<path id="&lt;Path&gt;" class="shp5" d="M838.79 1217.91C838.96 1218.17 836.65 1220.09 832.16 1221.83C829.93 1222.69 827.15 1223.45 823.98 1223.84C822.4 1224.03 820.72 1224.13 818.98 1224.09C818.14 1224.07 817.18 1224.1 816.06 1223.73C814.94 1223.49 813.51 1222.02 813.71 1220.48C813.78 1219.06 814.71 1217.91 815.65 1217.32C816.61 1216.71 817.51 1216.43 818.34 1216.18C820.02 1215.66 821.69 1215.32 823.29 1215.13C826.49 1214.77 829.41 1215 831.77 1215.49C836.53 1216.49 839.01 1218.27 838.87 1218.53C838.7 1218.92 836.01 1217.79 831.49 1217.31C829.24 1217.08 826.54 1217.06 823.61 1217.52C822.15 1217.75 820.64 1218.11 819.12 1218.62C817.5 1219.09 816.31 1219.79 816.32 1220.62C816.33 1220.94 816.37 1221.04 816.91 1221.28C817.44 1221.47 818.22 1221.5 819.05 1221.53C820.68 1221.6 822.25 1221.56 823.74 1221.44C826.72 1221.21 829.39 1220.67 831.59 1220.07C836 1218.86 838.6 1217.55 838.79 1217.91Z" />
										</g>
									</g>
								</g>
							</g>
						</g>
						<g id="&lt;Group&gt;">
							<g id="&lt;Group&gt;">
								<g id="&lt;Group&gt;">
									<g id="&lt;Group&gt;">
										<g id="&lt;Group&gt;">
											<path id="&lt;Path&gt;" class="shp5" d="M838.51 1219.33C838.34 1219.57 835.68 1218.03 832.95 1213.99C831.6 1211.99 830.31 1209.35 829.52 1206.22C829.13 1204.65 828.88 1202.96 828.8 1201.2C828.8 1199.43 828.7 1197.12 831.02 1195.34C832.3 1194.51 834 1194.88 834.89 1195.53C835.86 1196.17 836.4 1196.88 837.01 1197.55C838.18 1198.95 839.05 1200.48 839.68 1202C840.94 1205.06 841.19 1208.08 840.94 1210.51C840.41 1215.48 838.18 1217.85 837.99 1217.67C837.59 1217.47 839.09 1214.89 839.1 1210.42C839.1 1208.22 838.69 1205.57 837.47 1202.96C836.87 1201.66 836.08 1200.38 835.07 1199.21C834.02 1197.94 832.82 1197.12 832.38 1197.58C831.72 1197.96 831.23 1199.68 831.36 1201.12C831.39 1202.71 831.58 1204.24 831.87 1205.68C832.47 1208.56 833.47 1211.06 834.53 1213.04C836.67 1217.03 838.8 1219.03 838.51 1219.33Z" />
										</g>
									</g>
								</g>
							</g>
						</g>
					</g>
					<g id="&lt;Group&gt;">
						<g id="&lt;Group&gt;">
							<g id="&lt;Group&gt;">
								<g id="&lt;Group&gt;">
									<g id="&lt;Group&gt;">
										<g id="&lt;Group&gt;">
											<path id="&lt;Path&gt;" class="shp10" d="M700.51 1313.91L696.58 1393.06C751.22 1409.36 778.09 1423.98 777.2 1436.91L622.98 1436.71L623.74 1312.65L700.51 1313.91Z" />
										</g>
									</g>
								</g>
							</g>
							<g id="&lt;Group&gt;" style="opacity: 0.6">
								<g id="&lt;Group&gt;">
									<g id="&lt;Group&gt;">
										<g id="&lt;Group&gt;">
											<g id="&lt;Group&gt;">
												<path id="&lt;Path&gt;" class="shp13" d="M649.13 1385.74C646.15 1386.52 644.05 1389.83 644.69 1392.85C645.34 1395.86 648.7 1398.03 651.7 1397.31C654.7 1396.59 657.34 1392.69 656.36 1389.76C655.38 1386.84 651.3 1384.51 648.56 1385.93" />
											</g>
										</g>
									</g>
								</g>
							</g>
							<g id="&lt;Group&gt;" style="opacity: 0.6">
								<g id="&lt;Group&gt;">
									<g id="&lt;Group&gt;">
										<g id="&lt;Group&gt;">
											<path id="&lt;Path&gt;" class="shp13" d="M622.98 1436.71L622.78 1423.77L769.94 1425.4C774.79 1428.82 777.21 1432.66 777.2 1436.91L622.98 1436.71Z" />
										</g>
									</g>
								</g>
							</g>
							<g id="&lt;Group&gt;">
								<g id="&lt;Group&gt;">
									<g id="&lt;Group&gt;">
										<g id="&lt;Group&gt;">
											<g id="&lt;Group&gt;">
												<path id="&lt;Path&gt;" class="shp5" d="M699.08 1392.31C699.05 1393.06 695.29 1393.35 691.56 1395.71C687.77 1397.98 685.82 1401.2 685.14 1400.9C684.45 1400.74 685.63 1396.27 690.19 1393.49C694.73 1390.66 699.26 1391.62 699.08 1392.31Z" />
											</g>
										</g>
									</g>
								</g>
							</g>
							<g id="&lt;Group&gt;">
								<g id="&lt;Group&gt;">
									<g id="&lt;Group&gt;">
										<g id="&lt;Group&gt;">
											<g id="&lt;Group&gt;">
												<path id="&lt;Path&gt;" class="shp5" d="M715.12 1399.2C715.28 1399.93 712.01 1401.16 709.42 1404.3C706.73 1407.37 706.04 1410.79 705.29 1410.75C704.59 1410.86 704.13 1406.45 707.43 1402.61C710.69 1398.74 715.11 1398.48 715.12 1399.2Z" />
											</g>
										</g>
									</g>
								</g>
							</g>
							<g id="&lt;Group&gt;">
								<g id="&lt;Group&gt;">
									<g id="&lt;Group&gt;">
										<g id="&lt;Group&gt;">
											<g id="&lt;Group&gt;">
												<path id="&lt;Path&gt;" class="shp5" d="M724.01 1418.62C723.33 1418.78 722.33 1415.01 724.32 1410.93C726.27 1406.83 729.83 1405.25 730.14 1405.88C730.56 1406.51 728.25 1408.68 726.67 1412.06C725.01 1415.4 724.76 1418.56 724.01 1418.62Z" />
											</g>
										</g>
									</g>
								</g>
							</g>
							<g id="&lt;Group&gt;">
								<g id="&lt;Group&gt;">
									<g id="&lt;Group&gt;">
										<g id="&lt;Group&gt;">
											<g id="&lt;Group&gt;">
												<path id="&lt;Path&gt;" class="shp5" d="M697.98 1374.17C697.65 1374.85 694.22 1373.77 689.98 1374C685.72 1374.14 682.4 1375.52 682.02 1374.87C681.59 1374.32 684.86 1371.59 689.86 1371.39C694.86 1371.15 698.36 1373.59 697.98 1374.17Z" />
											</g>
										</g>
									</g>
								</g>
							</g>
						</g>
						<g id="&lt;Group&gt;" style="opacity: 0.302">
							<g id="&lt;Group&gt;">
								<g id="&lt;Group&gt;">
									<g id="&lt;Group&gt;">
										<path id="&lt;Path&gt;" class="shp7" d="M697.84 1369.96L696.94 1385.71L623.13 1383.78L623.21 1371.06L697.84 1369.96Z" />
									</g>
								</g>
							</g>
						</g>
						<g id="&lt;Group&gt;">
							<g id="&lt;Group&gt;">
								<g id="&lt;Group&gt;">
									<g id="&lt;Group&gt;">
										<g id="&lt;Group&gt;">
											<path id="&lt;Path&gt;" class="shp5" d="M698.48 1358.19C698.48 1358.5 695.51 1358.92 690.78 1358.05C688.42 1357.6 685.65 1356.79 682.76 1355.46C681.31 1354.79 679.83 1353.99 678.37 1353.05C677.66 1352.59 676.83 1352.12 676.07 1351.21C675.25 1350.42 674.8 1348.42 675.78 1347.21C676.58 1346.04 677.98 1345.55 679.09 1345.54C680.22 1345.52 681.14 1345.76 681.97 1345.98C683.68 1346.42 685.28 1347.01 686.74 1347.69C689.66 1349.06 692.02 1350.79 693.77 1352.44C697.29 1355.8 698.47 1358.62 698.21 1358.76C697.87 1359 696.17 1356.63 692.57 1353.85C690.78 1352.47 688.49 1351.04 685.76 1349.89C684.39 1349.32 682.92 1348.83 681.36 1348.46C679.74 1348.02 678.35 1347.98 677.92 1348.7C677.77 1348.98 677.75 1349.09 678.08 1349.57C678.43 1350.01 679.08 1350.45 679.77 1350.91C681.12 1351.82 682.48 1352.61 683.81 1353.29C686.47 1354.66 689.02 1355.6 691.21 1356.25C695.6 1357.54 698.49 1357.78 698.48 1358.19Z" />
										</g>
									</g>
								</g>
							</g>
						</g>
						<g id="&lt;Group&gt;">
							<g id="&lt;Group&gt;">
								<g id="&lt;Group&gt;">
									<g id="&lt;Group&gt;">
										<g id="&lt;Group&gt;">
											<path id="&lt;Path&gt;" class="shp5" d="M697.48 1359.25C697.22 1359.37 695.76 1356.65 695.56 1351.79C695.46 1349.38 695.75 1346.46 696.72 1343.37C697.21 1341.84 697.88 1340.26 698.75 1338.73C699.67 1337.22 700.8 1335.2 703.71 1334.91C705.23 1334.87 706.48 1336.07 706.9 1337.1C707.39 1338.14 707.48 1339.04 707.65 1339.93C707.91 1341.73 707.85 1343.49 707.58 1345.12C707.05 1348.38 705.68 1351.09 704.19 1353.02C701.13 1356.97 697.98 1357.82 697.92 1357.57C697.68 1357.19 700.31 1355.77 702.66 1351.98C703.82 1350.1 704.87 1347.63 705.2 1344.77C705.37 1343.35 705.37 1341.84 705.12 1340.32C704.9 1338.69 704.31 1337.36 703.69 1337.52C702.93 1337.5 701.61 1338.71 700.96 1340C700.16 1341.37 699.51 1342.77 699 1344.15C698 1346.92 697.54 1349.57 697.4 1351.81C697.13 1356.32 697.89 1359.14 697.48 1359.25Z" />
										</g>
									</g>
								</g>
							</g>
						</g>
					</g>
					<g id="&lt;Group&gt;">
						<g id="&lt;Group&gt;">
							<path id="&lt;Path&gt;" class="shp2" d="M476.76 638.15L485.4 634.49C482.77 630.29 503.36 670.5 531.42 670.76C556.98 671 571.04 658.39 573.6 632.92L575.61 633.17L638.66 698.49L646.98 881.38L640.13 904.85L504.72 954.03L457.49 860L453.33 802.07L476.76 638.15Z" />
						</g>
						<g id="&lt;Group&gt;">
							<g id="&lt;Group&gt;">
								<path id="&lt;Path&gt;" class="shp4" d="M480.88 636.11C429.62 647.78 399.81 664.55 391.45 686.43C387.76 696.09 385.32 778.83 384.14 934.64C377.77 948.9 374.79 970.74 375.2 1000.16C375.8 1042.46 403.78 1069.81 438.68 1077.72C444.81 1033.41 460.14 1000.16 484.67 977.95C507.92 956.91 520.61 947.66 522.75 950.21L514.34 873.99L505.63 807.63C496.9 760.22 506.72 708.8 490.57 663.37L480.88 636.11Z" />
							</g>
						</g>
						<g id="&lt;Group&gt;">
							<g id="&lt;Group&gt;">
								<path id="&lt;Path&gt;" class="shp4" d="M643.21 682.58L695.65 913.26L639.27 900.45L621.32 762.04L575.06 632.95C580.25 633.62 586.19 634.48 592.87 635.52C617.7 639.39 637.63 658.07 643.21 682.58Z" />
							</g>
						</g>
						<g id="&lt;Group&gt;" style="opacity: 0.302">
							<g id="&lt;Group&gt;">
								<path id="&lt;Path&gt;" class="shp7" d="M384.7 974.24C384.48 977.03 386.16 979.71 388.44 981.33C390.71 982.95 393.5 983.68 396.25 984.16C409.22 986.43 422.59 983.98 435.11 979.94C449.52 975.29 463.15 968.56 476.72 961.86C496.63 952.02 502.88 947.55 521.65 935.68C502.14 943.68 495.68 944.68 475.12 949.39C444.43 956.42 412.27 959.92 384.48 974.72" />
							</g>
						</g>
						<g id="&lt;Group&gt;">
							<g id="&lt;Group&gt;">
								<g id="&lt;Group&gt;">
									<g id="&lt;Group&gt;">
										<g id="&lt;Group&gt;">
											<path id="&lt;Path&gt;" class="shp11" d="M497.51 887.11L531.82 879.7C558.09 865.06 574.17 857.75 580.07 857.77C588.04 857.81 619.51 872.03 625.68 874.85C626.37 875.17 626.94 875.69 627.31 876.35C628.95 879.23 628.01 882.89 625.19 884.64L624.64 884.98L625.03 885.78C625.52 886.77 625.88 887.93 626.01 889.1C626.46 893.12 621.3 895.21 618.69 892.11L620.08 893.84C620.64 894.54 620.99 895.39 621.08 896.28L621.27 898.02C621.48 899.96 620.48 901.83 618.75 902.72C617.1 903.57 615.11 903.39 613.66 902.24C609.41 898.86 600.34 892.2 594.93 892.18C590.13 892.17 582.31 893.34 577.61 894.13C575.21 894.53 573.32 896.36 572.81 898.73C575.97 898.45 599.58 906.24 607.95 909.04C610.53 909.91 612.69 911.88 613.44 914.51C614.11 916.87 613.31 919.6 608.36 919.26C601.28 918.78 591.14 916.72 577.94 913.09C571.32 912.31 566.19 913.71 562.56 917.27C554.9 924.79 551.31 927.68 543.47 926.43C538.25 925.59 533.62 924.3 529.58 922.54L517.16 924.89L497.51 887.11Z" />
										</g>
									</g>
								</g>
							</g>
							<g id="&lt;Group&gt;">
								<g id="&lt;Group&gt;">
									<g id="&lt;Group&gt;">
										<g id="&lt;Group&gt;">
											<g id="&lt;Group&gt;">
												<path id="&lt;Path&gt;" class="shp12" d="M569.72 880.77C569.78 880.93 572.56 879.51 577.4 878.4C582.21 877.27 589.21 876.7 596.57 878.52C603.93 880.33 609.87 884.08 613.61 887.31C617.38 890.54 619.19 893.09 619.31 892.98C619.35 892.95 618.93 892.3 618.07 891.2C617.2 890.09 615.84 888.57 613.98 886.88C610.29 883.5 604.28 879.59 596.76 877.74C589.25 875.89 582.11 876.56 577.27 877.85C574.84 878.48 572.93 879.19 571.65 879.77C570.37 880.35 569.69 880.73 569.72 880.77Z" />
											</g>
										</g>
									</g>
								</g>
							</g>
							<g id="&lt;Group&gt;">
								<g id="&lt;Group&gt;">
									<g id="&lt;Group&gt;">
										<g id="&lt;Group&gt;">
											<g id="&lt;Group&gt;">
												<path id="&lt;Path&gt;" class="shp12" d="M572.49 869.88C572.57 870.06 575.31 868.12 580.44 867.11C585.53 866.06 592.97 866.42 600.37 869.39C607.77 872.38 613.65 876.74 617.84 879.87C619.83 881.4 621.49 882.67 622.78 883.65C623.94 884.54 624.6 885.02 624.64 884.98C624.67 884.93 624.08 884.38 622.97 883.41C621.86 882.44 620.24 881.07 618.19 879.42C614.08 876.18 608.19 871.69 600.67 868.65C593.13 865.62 585.49 865.33 580.33 866.56C577.74 867.14 575.73 867.96 574.43 868.66C573.76 868.98 573.3 869.33 572.96 869.52C572.64 869.73 572.47 869.85 572.49 869.88Z" />
											</g>
										</g>
									</g>
								</g>
							</g>
						</g>
						<g id="&lt;Group&gt;">
							<path id="&lt;Path&gt;" class="shp4" d="M437.87 693.48L420.74 877.72L415.9 877.72L493.55 879.26L521.65 935.68C453.77 968.71 405.32 980.67 376.31 971.57C324.73 955.39 339.45 897.84 339.83 877.5C339.9 873.92 368.84 702.78 396.89 677.13C421.56 678.77 435.22 684.22 437.87 693.48Z" />
						</g>
						<g id="&lt;Group&gt;">
							<g id="&lt;Group&gt;">
								<g id="&lt;Group&gt;">
									<path id="&lt;Path&gt;" class="shp5" d="M440.29 744.91C440.4 744.93 440.24 746.69 439.85 749.88C439.38 753.34 438.76 757.87 438.02 763.35C436.28 774.96 433.94 790.49 431.36 807.66C428.72 824.97 426.42 840.64 424.82 852C424.04 857.46 423.39 861.99 422.89 865.44C422.42 868.61 422.1 870.36 421.99 870.35C421.88 870.34 421.99 868.56 422.27 865.37C422.55 862.17 423.03 857.55 423.69 851.85C425.01 840.45 427.13 824.73 429.77 807.42C432.42 790.12 435 774.48 436.9 763.17C437.85 757.73 438.63 753.22 439.23 749.79C439.81 746.63 440.18 744.89 440.29 744.91Z" />
								</g>
							</g>
							<g id="&lt;Group&gt;">
								<g id="&lt;Group&gt;">
									<path id="&lt;Path&gt;" class="shp5" d="M434.4 665.55C434.49 665.49 435.03 666.18 435.91 667.48C436.81 668.78 437.96 670.76 439.18 673.3C440.46 675.83 441.62 679 442.72 682.58C443.74 686.18 444.56 690.22 445.06 694.5C446.06 703.08 445.64 710.89 445.16 716.48C444.64 722.08 444.03 725.5 443.83 725.47C443.59 725.45 443.8 721.99 444.03 716.41C444.21 710.83 444.45 703.11 443.47 694.69C442.98 690.48 442.22 686.52 441.3 682.97C440.29 679.45 439.27 676.31 438.15 673.77C435.99 668.65 434.16 665.7 434.4 665.55Z" />
								</g>
							</g>
							<g id="&lt;Group&gt;">
								<g id="&lt;Group&gt;">
									<path id="&lt;Path&gt;" class="shp5" d="M376.31 971.57C376.32 971.54 376.58 971.59 377.08 971.71C377.66 971.85 378.38 972.03 379.27 972.26C381.2 972.71 384.08 973.23 387.83 973.52C395.35 974.1 406.28 973.18 419.5 970.43C426.08 969.04 433.39 967.5 441.07 965.73C448.7 963.69 456.69 960.78 465.06 957.68C481.77 951.4 499.97 943.99 518.96 935.96C519.76 935.62 520.56 935.28 521.34 934.95L520.93 936.04C510.84 915.7 501.3 896.49 492.9 879.58L493.55 879.98C481.06 879.88 469.63 879.19 459.44 878.87C449.26 878.49 440.35 878.29 433 878.35C425.64 878.39 419.84 878.69 415.9 879.11C411.96 879.47 409.88 879.91 409.85 879.78C409.84 879.75 410.36 879.62 411.37 879.41C412.38 879.2 413.88 878.88 415.85 878.65C419.79 878.1 425.61 877.65 432.98 877.49C440.36 877.31 449.29 877.39 459.48 877.67C469.67 877.9 481.14 878.5 493.54 878.53L493.99 878.54L494.19 878.93C502.63 895.83 512.22 915.01 522.37 935.33L522.75 936.09L521.97 936.42C521.19 936.76 520.39 937.1 519.59 937.44C500.58 945.47 482.35 952.85 465.57 959.07C457.16 962.13 449.15 965.01 441.4 967.02C433.58 968.76 426.38 970.21 419.72 971.54C406.42 974.16 395.36 974.93 387.78 974.14C382.72 973.64 378.9 972.78 376.31 971.57Z" />
								</g>
							</g>
							<g id="&lt;Group&gt;">
								<g id="&lt;Group&gt;">
									<path id="&lt;Path&gt;" class="shp5" d="M429.83 878.18C429.63 878.36 427.9 876.39 424.4 874.2C420.94 871.98 415.57 869.8 409.33 868.91C403.08 868.01 397.29 868.25 393.12 868.4C388.93 868.57 386.33 868.66 386.3 868.43C386.29 868.22 388.84 867.73 393.03 867.27C397.21 866.83 403.1 866.39 409.56 867.32C416.03 868.24 421.6 870.7 425.03 873.26C428.52 875.79 429.97 878.08 429.83 878.18Z" />
								</g>
							</g>
							<g id="&lt;Group&gt;" style="opacity: 0.302">
								<g id="&lt;Group&gt;">
									<path id="&lt;Path&gt;" class="shp7" d="M428.53 877.95C417.53 876.28 406.16 877.1 395.51 880.33C388.98 882.32 382.37 885.49 378.71 891.26C377.53 893.12 376.8 895.81 378.39 897.34C379.78 898.67 382.06 898.24 383.82 897.48C387.63 895.83 390.84 893.09 394.14 890.56C399.38 886.53 405.03 882.93 411.21 880.57C417.39 878.21 424.14 877.12 430.68 878.14" />
								</g>
							</g>
							<g id="&lt;Group&gt;" style="opacity: 0.302">
								<g id="&lt;Group&gt;">
									<path id="&lt;Path&gt;" class="shp7" d="M425.11 873.99C422.78 867.52 414.27 861.46 408.78 859.59C396.28 855.32 381.88 853.73 370.8 860.92C369.6 861.7 368.35 862.75 368.29 864.18C368.22 866.16 370.42 867.37 372.33 867.9C380.23 870.07 388.6 868.75 396.76 867.96C404.91 867.17 413.64 867.05 420.69 871.22" />
								</g>
							</g>
							<g id="&lt;Group&gt;" style="opacity: 0.302">
								<g id="&lt;Group&gt;">
									<path id="&lt;Path&gt;" class="shp7" d="M422.52 865.9C438.61 832.96 445.83 789.55 439.33 751.18L422.52 865.9Z" />
								</g>
							</g>
						</g>
					</g>
					<g id="&lt;Group&gt;">
						<g id="&lt;Group&gt;">
							<path id="&lt;Path&gt;" class="shp5" d="M438.68 1077.72C457.2 1090.01 484.86 1096.15 521.65 1096.15C558.45 1096.15 581.06 1094.88 589.48 1092.33L641.16 1045.39L754.55 1243.97C814.55 1206.77 844.74 1188.77 845.14 1189.97C846.22 1191.05 761.19 1001.85 742.58 969.13C736.63 958.66 730.89 950.73 721.48 938.55C702.57 914.08 671.16 902.71 640.94 909.29C625.61 912.62 608.8 916.98 593.8 922.47C552.64 937.54 517.75 947.67 487.97 974.07C453.56 1004.57 432.71 1063.81 438.68 1077.72Z" />
						</g>
						<g id="&lt;Group&gt;">
							<path id="&lt;Path&gt;" class="shp5" d="M628.26 1022.52C601.06 1041.34 587.83 1058.29 588.56 1073.37C589.17 1086.01 597.89 1185.35 614.7 1371.37L715.12 1369.67L722.01 1186.95L628.26 1022.52Z" />
						</g>
						<g id="&lt;Group&gt;">
							<g id="&lt;Group&gt;">
								<path id="&lt;Path&gt;" class="shp9" d="M730.08 1201.11C730.05 1201.12 729.9 1200.89 729.62 1200.43C729.3 1199.89 728.91 1199.22 728.42 1198.38C727.33 1196.45 725.83 1193.79 723.92 1190.42C720.02 1183.36 714.48 1173.33 707.66 1160.99C694.01 1135.98 675.26 1101.6 654.55 1063.63C647.16 1049.99 640.02 1036.82 633.43 1024.65L634.19 1025.05C618.13 1027 604.96 1036.83 597.85 1048.11C594.28 1053.79 592.09 1059.85 591.07 1065.66C590.01 1071.47 589.86 1076.97 589.95 1081.94C590.23 1091.89 591.14 1099.82 591.39 1105.27C591.53 1108 591.61 1110.11 591.61 1111.53C591.62 1112.96 591.6 1113.7 591.56 1113.7C591.51 1113.7 591.44 1112.96 591.34 1111.54C591.23 1110.01 591.07 1107.94 590.87 1105.31C590.46 1099.87 589.4 1091.99 588.98 1081.96C588.82 1076.96 588.91 1071.39 589.93 1065.45C590.91 1059.52 593.11 1053.27 596.74 1047.41C603.97 1035.77 617.42 1025.59 634.01 1023.52L634.53 1023.45L634.78 1023.91C641.4 1036.08 648.55 1049.24 655.96 1062.86C676.51 1100.92 695.12 1135.38 708.66 1160.45C715.29 1172.89 720.68 1183 724.47 1190.12C726.26 1193.56 727.68 1196.26 728.7 1198.23C729.13 1199.09 729.48 1199.79 729.76 1200.36C730 1200.84 730.1 1201.09 730.08 1201.11Z" />
							</g>
						</g>
						<g id="&lt;Group&gt;">
							<g id="&lt;Group&gt;">
								<path id="&lt;Path&gt;" class="shp9" d="M646.17 984.56C646.61 984.87 638.97 992.05 635.42 1003.98C631.69 1015.85 634.01 1026.07 633.47 1026.09C633.3 1026.13 632.47 1023.68 632.11 1019.55C631.73 1015.43 632.04 1009.6 633.89 1003.51C635.76 997.43 638.77 992.42 641.38 989.22C644 985.99 646.05 984.43 646.17 984.56Z" />
							</g>
						</g>
						<g id="&lt;Group&gt;">
							<g id="&lt;Group&gt;">
								<path id="&lt;Path&gt;" class="shp9" d="M625.06 976.86C625.32 976.94 624.5 979.73 623.9 984.33C623.29 988.92 623.11 995.38 624.4 1002.33C625.72 1009.27 628.23 1015.23 630.46 1019.28C632.69 1023.35 634.47 1025.66 634.25 1025.83C634.13 1025.94 632.02 1023.87 629.48 1019.86C626.94 1015.86 624.18 1009.78 622.83 1002.62C621.49 995.47 621.86 988.8 622.78 984.15C623.69 979.49 624.9 976.8 625.06 976.86Z" />
							</g>
						</g>
					</g>
					<g id="&lt;Group&gt;">
						<g id="&lt;Group&gt;">
							<path id="&lt;Path&gt;" class="shp5" d="M546.78 848.7C546.55 848.51 549.62 845.01 553.53 838.66C555.5 835.51 557.55 831.57 559.52 827.07C561.41 822.54 563.18 817.42 564.49 811.91C565.75 806.37 566.42 801 566.72 796.1C566.93 791.19 566.82 786.75 566.44 783.05C565.73 775.63 564.52 771.14 564.81 771.07C564.91 771.04 565.27 772.15 565.84 774.17C566.14 775.19 566.46 776.43 566.71 777.91C566.98 779.38 567.37 781.05 567.54 782.93C568.07 786.67 568.29 791.17 568.15 796.16C567.93 801.15 567.29 806.63 566.02 812.26C564.68 817.87 562.84 823.07 560.84 827.65C558.77 832.19 556.58 836.13 554.46 839.26C553.47 840.87 552.39 842.19 551.5 843.4C550.63 844.61 549.79 845.59 549.07 846.36C547.67 847.94 546.86 848.77 546.78 848.7Z" />
						</g>
					</g>
				</g>
			</g>
			<g id="&lt;Group&gt;">
				<path id="&lt;Path&gt;" class="shp4" d="M639.08 670.51C711.66 795.19 748.77 862.31 750.39 871.89C752.2 882.57 748.74 913.02 738.98 916.96C711.69 928 680.13 915.18 651.3 895.23L646.98 892.24L639.08 670.51Z" />
			</g>
			<g id="&lt;Group&gt;">
				<g id="&lt;Group&gt;">
					<path id="&lt;Path&gt;" class="shp6" d="M159.97 644.31C171.34 637.69 178.38 643.6 181.08 662.02C183.79 680.44 194.48 757.18 213.16 892.24L387.31 890.59C411.83 889.66 432.42 914.19 449.07 964.18C460.71 999.15 472.48 1076.13 484.36 1195.13L481.06 1324.32L166.18 1324.27C159.7 1143.75 155.91 1013.35 154.83 933.08C153.2 812.67 149.75 681.34 159.97 644.31Z" />
				</g>
				<g id="&lt;Group&gt;">
					<g id="&lt;Group&gt;">
						<path id="&lt;Path&gt;" class="shp5" d="M175.68 642.5C175.67 642.52 175.99 642.8 176.63 643.33C177.24 643.89 178.16 644.73 179.2 645.98C181.26 648.43 183.96 652.73 184.5 659.04C186.02 671.65 188.21 689.84 190.94 712.45C196.55 757.83 204.35 820.95 213.16 892.24L213.25 892.95L213.95 892.93C225.58 892.69 237.84 892.43 250.28 892.17C289.56 891.54 326.99 891.27 360.99 892.24C369.49 892.51 377.77 892.85 385.79 893.49C387.8 893.66 389.78 893.83 391.76 894C393.73 894.19 395.65 894.52 397.58 894.77C401.52 895.05 404.9 896.57 407.98 898.76C414.01 903.25 418.68 909.1 422.74 914.9C426.81 920.73 430.28 926.65 433.39 932.41C445.69 955.55 452.84 975.74 457.15 989.78C459.28 996.82 460.58 1002.4 461.16 1006.23C461.47 1008.14 461.58 1009.62 461.62 1010.61C461.62 1011.27 461.62 1011.77 461.65 1012.11C461.7 1011.78 461.74 1011.28 461.78 1010.61C461.79 1009.61 461.73 1008.11 461.47 1006.18C460.99 1002.31 459.78 996.69 457.73 989.6C455.71 982.5 452.85 973.94 449.07 964.18C445.24 954.44 440.54 943.48 434.36 931.86C431.27 926.06 427.81 920.09 423.73 914.18C419.64 908.3 414.96 902.35 408.72 897.67L406.25 896.08C405.4 895.59 404.47 895.22 403.58 894.78C402.67 894.38 401.67 894.18 400.71 893.88C399.74 893.66 398.77 893.58 397.79 893.42C395.84 893.16 393.88 892.81 391.9 892.61C389.92 892.44 387.92 892.26 385.9 892.08C377.85 891.42 369.55 891.05 361.04 890.76C326.99 889.71 289.55 889.93 250.26 890.56C237.81 890.83 225.55 891.09 213.91 891.34L214.7 892.04C205.69 820.77 197.7 757.68 191.97 712.32C189.04 689.73 186.69 671.56 185.05 658.97C184.42 652.56 181.57 648.19 179.42 645.78C177.95 644.15 176.7 643.05 175.68 642.5Z" />
					</g>
				</g>
				<g id="&lt;Group&gt;">
					<g id="&lt;Group&gt;">
						<path id="&lt;Path&gt;" class="shp5" d="M403.66 906.09C403.67 906.13 403.28 906.16 402.52 906.29C401.77 906.41 400.65 906.59 399.19 906.92C396.28 907.52 392 908.62 386.82 910.87C381.6 913.01 375.49 916.44 369.46 921.71C366.3 924.19 363.57 927.51 360.58 930.91C359.29 932.78 357.97 934.7 356.61 936.67C356.28 937.17 355.92 937.65 355.6 938.17L354.76 939.8C354.2 940.89 353.64 942 353.06 943.12C352.49 944.24 351.91 945.37 351.32 946.52C350.79 947.69 350.42 948.95 349.95 950.18C349.09 952.67 348.08 955.18 347.29 957.81C346.18 963.2 344.46 968.7 344.1 974.65C343.8 977.6 343.35 980.59 343.17 983.65C343.15 986.72 343.12 989.83 343.09 993C342.86 999.31 343.43 1005.86 343.63 1012.55C344.81 1039.34 346.76 1068.76 349.12 1099.62C351.84 1134.41 354.82 1167.31 357.76 1196.19L357.07 1195.56C394.75 1195.88 426.53 1196.15 448.99 1196.34C460.11 1196.48 468.92 1196.6 475.05 1196.68C477.99 1196.74 480.29 1196.79 481.94 1196.82C482.67 1196.85 483.25 1196.87 483.71 1196.89C484.11 1196.91 484.31 1196.93 484.31 1196.95C484.31 1196.97 484.11 1196.99 483.71 1197C483.25 1197.02 482.67 1197.03 481.94 1197.05C480.29 1197.07 477.99 1197.09 475.04 1197.12C468.92 1197.13 460.11 1197.15 448.99 1197.18C426.53 1197.13 394.74 1197.05 357.06 1196.97L356.43 1196.97L356.36 1196.34C353.32 1167.45 350.29 1134.55 347.56 1099.74C345.2 1068.87 343.3 1039.43 342.19 1012.62C342.01 1005.91 341.47 999.39 341.71 993C341.76 989.81 341.8 986.67 341.84 983.57C342.03 980.49 342.5 977.46 342.81 974.48C343.21 968.48 344.97 962.91 346.13 957.47C346.94 954.81 347.99 952.28 348.87 949.76C349.36 948.52 349.74 947.25 350.29 946.06C350.89 944.9 351.49 943.76 352.08 942.62C352.67 941.49 353.25 940.37 353.83 939.26L354.69 937.62C355.01 937.1 355.38 936.61 355.73 936.11C357.12 934.12 358.48 932.18 359.8 930.29C362.87 926.87 365.67 923.53 368.9 921.04C375.06 915.77 381.28 912.38 386.58 910.31C391.85 908.13 396.19 907.12 399.13 906.61C400.6 906.33 401.74 906.2 402.5 906.13C403.01 906.08 403.4 906.07 403.66 906.09Z" />
					</g>
				</g>
				<g id="&lt;Group&gt;">
					<g id="&lt;Group&gt;">
						<path id="&lt;Path&gt;" class="shp5" d="M401.74 1326.04C401.31 1326.04 400.96 1297.94 400.96 1263.29C400.96 1228.62 401.31 1200.53 401.74 1200.53C402.18 1200.53 402.52 1228.62 402.52 1263.29C402.52 1297.94 402.18 1326.04 401.74 1326.04Z" />
					</g>
				</g>
			</g>
			<g id="&lt;Group&gt;">
				<g id="&lt;Group&gt;">
					<g id="&lt;Group&gt;">
						<path id="&lt;Path&gt;" class="shp1" d="M793.15 779.74L615.94 795.74C614.3 795.89 612.91 797.02 612.43 798.59L573.03 925.08C572.66 926.32 571.71 927.3 570.5 927.73L502.44 946.25C500.86 946.8 499.78 948.27 499.72 949.94C499.63 952.62 502.12 954.65 504.72 954.03L577.95 938.51L742.66 917.96C744.15 917.79 745.43 916.81 745.98 915.42L797.3 785.27C798.41 782.46 796.16 779.46 793.15 779.74Z" />
					</g>
					<g id="&lt;Group&gt;">
						<g id="&lt;Group&gt;">
							<path id="&lt;Path&gt;" class="shp5" d="M793.15 779.74C793.52 779.63 794.04 779.66 794.74 779.83C795.71 780.09 797.35 781.09 797.69 783.25C797.89 784.33 797.4 785.49 796.94 786.64C796.49 787.82 795.99 789.11 795.45 790.51C794.36 793.32 793.11 796.56 791.7 800.21C785.98 814.85 777.7 836.06 767.37 862.54C762.17 875.79 756.46 890.36 750.3 906.08C749.53 908.05 748.75 910.03 747.96 912.03L746.78 915.05C746.47 916.05 745.72 917.31 744.64 917.92C744.1 918.25 743.49 918.47 742.87 918.55L741.22 918.77L737.92 919.18C735.71 919.46 733.49 919.74 731.24 920.02C722.27 921.16 713.02 922.32 703.5 923.52C665.41 928.3 623.12 933.61 578.05 939.27L578.11 939.26C565.62 941.91 552.91 944.61 540.01 947.35C533.56 948.71 527.06 950.09 520.52 951.48C517.25 952.17 513.96 952.87 510.67 953.56L505.73 954.61C504.98 954.77 503.91 955.06 502.91 954.84C501.91 954.67 500.99 954.15 500.29 953.43C499.16 952.27 498.69 950.51 499.08 948.95C499.44 947.37 500.66 946.04 502.18 945.51L502.21 945.5L502.23 945.49C525.5 939.16 548.26 932.98 570.29 926.99L570.24 927C571.36 926.59 572.14 925.71 572.44 924.42L573.7 920.37C574.54 917.68 575.38 915 576.21 912.33C577.88 906.98 579.53 901.68 581.17 896.43C584.45 885.93 587.67 875.62 590.82 865.52C597.13 845.32 603.18 825.96 608.92 807.61C609.63 805.32 610.35 803.04 611.05 800.78C611.47 799.64 611.6 798.58 612.3 797.3C613.02 796.14 614.26 795.32 615.6 795.13C620.27 794.71 624.86 794.3 629.38 793.89C638.4 793.09 647.14 792.32 655.56 791.57C672.41 790.08 688.02 788.7 702.22 787.45C730.58 784.98 753.29 783.01 768.98 781.65C776.76 781 782.78 780.5 786.92 780.16C788.93 780.01 790.48 779.89 791.57 779.81C792.27 779.76 792.8 779.74 793.15 779.74C792.8 779.8 792.28 779.87 791.58 779.95C790.49 780.06 788.95 780.22 786.95 780.43C782.81 780.84 776.79 781.43 769.02 782.18C753.35 783.65 730.65 785.78 702.31 788.44C688.11 789.75 672.51 791.19 655.67 792.75C647.25 793.52 638.51 794.32 629.5 795.15C625 795.57 620.43 795.99 615.8 796.42C614.83 796.56 613.93 797.15 613.42 797.99C612.96 798.77 612.69 800.1 612.31 801.17C611.61 803.44 610.91 805.72 610.19 808.01C604.5 826.37 598.49 845.74 592.21 865.95C589.07 876.05 585.87 886.37 582.6 896.88C580.97 902.13 579.32 907.43 577.66 912.77C576.83 915.45 576 918.13 575.16 920.82L573.9 924.87C573.59 926.35 572.36 927.94 570.75 928.45L570.7 928.46L570.7 928.46C548.66 934.46 525.91 940.66 502.64 947L502.7 946.98C501.67 947.34 500.84 948.24 500.6 949.31C500.34 950.38 500.65 951.56 501.42 952.35C501.9 952.83 502.52 953.19 503.19 953.3C503.88 953.45 504.5 953.28 505.38 953.09L510.33 952.04C513.62 951.34 516.91 950.65 520.18 949.96C526.72 948.57 533.22 947.19 539.68 945.83C552.58 943.1 565.3 940.4 577.79 937.76L577.82 937.75L577.86 937.75C622.94 932.16 665.24 926.92 703.34 922.2C712.86 921.02 722.12 919.88 731.09 918.77C733.34 918.49 735.56 918.22 737.77 917.95L741.07 917.54C742.21 917.38 743.24 917.39 744 916.87C744.83 916.36 745.3 915.65 745.65 914.6L746.84 911.59C747.63 909.59 748.42 907.61 749.2 905.65C755.42 889.95 761.19 875.4 766.44 862.17C776.96 835.76 785.38 814.61 791.2 800.01C792.65 796.38 793.95 793.16 795.07 790.36C795.63 788.97 796.15 787.69 796.62 786.51C797.11 785.33 797.58 784.3 797.41 783.29C797.14 781.26 795.63 780.26 794.7 779.96C793.71 779.67 793.15 779.79 793.15 779.74Z" />
						</g>
					</g>
				</g>
				<g id="&lt;Group&gt;">
					<g id="&lt;Group&gt;">
						<path id="&lt;Path&gt;" class="shp5" d="M622.55 795.14C622.6 795.16 622.51 795.68 622.27 796.65C621.97 797.79 621.61 799.19 621.16 800.89C620.17 804.56 618.66 809.84 616.73 816.36C612.89 829.39 607.3 847.32 601 867.06C594.72 886.7 589.03 904.48 584.83 917.62C582.81 923.92 581.15 929.1 579.92 932.94C579.37 934.6 578.91 935.97 578.54 937.09C578.2 938.04 578 938.53 577.95 938.51C577.9 938.5 578 937.98 578.23 937C578.53 935.86 578.9 934.46 579.34 932.77C580.33 929.1 581.84 923.81 583.77 917.3C587.62 904.26 593.2 886.34 599.51 866.59C605.79 846.95 611.47 829.18 615.68 816.03C617.69 809.73 619.35 804.55 620.58 800.71C621.13 799.05 621.59 797.68 621.97 796.56C622.3 795.62 622.5 795.13 622.55 795.14Z" />
					</g>
				</g>
				<g id="&lt;Group&gt;">
					<path id="&lt;Path&gt;" class="shp13" d="M690.58 846.78C687.99 846.69 686.15 847.42 683.65 850.03C681.87 851.89 680.61 854.64 681.72 856.95C682.53 858.63 684.37 859.67 686.23 859.83C688.09 859.99 689.94 859.37 691.55 858.43C693.79 857.13 695.76 854.96 695.84 852.37C695.92 849.79 693.52 846.73 690.58 846.78Z" />
				</g>
			</g>
			<g id="&lt;Group&gt;">
				<g id="&lt;Group&gt;">
					<path id="&lt;Path&gt;" class="shp5" d="M668.86 790C668.75 790.03 668.25 788.7 667.44 786.27C666.53 783.54 665.39 780.09 664.02 775.96C661.13 767.26 657.01 755.3 652.04 742.23C647.06 729.17 642.17 717.49 638.53 709.08C636.81 705.09 635.37 701.75 634.23 699.12C633.22 696.76 632.7 695.43 632.8 695.38C632.9 695.34 633.6 696.58 634.78 698.86C635.96 701.13 637.6 704.47 639.54 708.63C643.44 716.94 648.51 728.58 653.5 741.68C658.49 754.77 662.45 766.83 665.07 775.63C666.39 780.03 667.39 783.61 668.02 786.1C668.66 788.58 668.96 789.97 668.86 790Z" />
				</g>
			</g>
		</g>
	</g>
</svg>