<svg id="Flat" xmlns="http://www.w3.org/2000/svg" viewBox="0 0 128 128"><title>eyelash, eyes, makeup, beauty, cosmetic, mascara</title><path d="M40.2,6.5h9.923a2.035,2.035,0,0,1,2.035,2.035V26.022a0,0,0,0,1,0,0H38.162a0,0,0,0,1,0,0V8.537A2.035,2.035,0,0,1,40.2,6.5Z" style="fill:#ff889c"/><rect x="34.727" y="22.022" width="20.864" height="103.47" rx="3.053" ry="3.053" style="fill:#ffa4ba"/><path d="M82.774,45.43a1.5,1.5,0,0,1-1.5-1.5V2.5a1.5,1.5,0,0,1,3,0V43.93A1.5,1.5,0,0,1,82.774,45.43Z" style="fill:#a05879"/><path d="M87.2,12.778H78.484a1.5,1.5,0,0,1,0-3H87.2a1.5,1.5,0,0,1,0,3Z" style="fill:#b26b88"/><path d="M88.933,18.1H76.749a1.5,1.5,0,0,1,0-3H88.933a1.5,1.5,0,0,1,0,3Z" style="fill:#b26b88"/><path d="M85.827,39.387H79.854a1.5,1.5,0,0,1,0-3h5.973a1.5,1.5,0,0,1,0,3Z" style="fill:#b26b88"/><path d="M87.2,34.065H78.484a1.5,1.5,0,0,1,0-3H87.2a1.5,1.5,0,1,1,0,3Z" style="fill:#b26b88"/><path d="M88.933,28.743H76.749a1.5,1.5,0,0,1,0-3H88.933a1.5,1.5,0,0,1,0,3Z" style="fill:#b26b88"/><path d="M90.024,23.421H75.657a1.5,1.5,0,0,1,0-3H90.024a1.5,1.5,0,0,1,0,3Z" style="fill:#b26b88"/><rect x="79.169" y="43.93" width="7.343" height="41.77" rx="2.023" ry="2.023" style="fill:#ff889c"/><rect x="72.409" y="72.808" width="20.864" height="52.668" rx="3.053" ry="3.053" style="fill:#ffa4ba"/><path d="M55.591,36.686H34.727a1.5,1.5,0,0,1,0-3H55.591a1.5,1.5,0,0,1,0,3Z" style="fill:#ffe1e1"/><path d="M85.827,7.456H79.854a1.5,1.5,0,0,1,0-3h5.973a1.5,1.5,0,0,1,0,3Z" style="fill:#b26b88"/></svg>