<svg id="Outline" xmlns="http://www.w3.org/2000/svg" viewBox="0 0 128 128"><title>hair, dry, Electrical, product, beauty</title><path d="M122.515,25.965h-.724A7.793,7.793,0,0,0,118.466,21C92.249,3.436,70.73,11.908,56.49,17.514c-1.019.4-2.009.791-2.968,1.159-2.66,1.021-13.9,4.93-15.662,4.93H34.307a4.38,4.38,0,0,0-4.464,4.28v25.1a4.38,4.38,0,0,0,4.464,4.279H37.86c1.755,0,13,3.911,15.661,4.931.96.368,1.95.758,2.969,1.159,7.669,3.02,17.452,6.86,28.939,7.028-.093,2.6-1.286,5.047-2.75,8.028a48.293,48.293,0,0,0-4.623,12.7c-1.913,9.828-2.475,15.931-1.768,19.207a9.19,9.19,0,0,0,8.937,7.212h9.211a8.739,8.739,0,0,0,8.675-7.707c2.087-17.6,2.416-31.911.992-42.592a65.616,65.616,0,0,0,14.362-7.36,7.793,7.793,0,0,0,3.326-4.97h.724a4.315,4.315,0,0,0,4.31-4.31V30.275A4.315,4.315,0,0,0,122.515,25.965ZM32.843,52.982v-25.1a1.383,1.383,0,0,1,1.464-1.28H36.36V54.261H34.307A1.383,1.383,0,0,1,32.843,52.982Zm67.289,56.486a5.738,5.738,0,0,1-5.7,5.061H85.225a6.173,6.173,0,0,1-6-4.845c-.6-2.787,0-8.844,1.779-18a45.133,45.133,0,0,1,4.372-11.953c1.592-3.242,2.991-6.1,3.064-9.387a52.134,52.134,0,0,0,12.769-2.157C102.511,78.555,102.153,92.426,100.132,109.468Zm18.817-56.035a4.766,4.766,0,0,1-2.153,3.945c-24.911,16.685-44.733,8.88-59.207,3.182-1.027-.4-2.025-.8-2.993-1.169-.117-.045-10.711-3.957-15.236-4.918V26.391c4.526-.96,15.119-4.871,15.237-4.917.967-.371,1.965-.764,2.992-1.169,14.473-5.7,34.3-13.5,59.207,3.183a4.764,4.764,0,0,1,2.153,3.944v26Zm4.876-2.843a1.312,1.312,0,0,1-1.31,1.31h-.566V28.965h.566a1.312,1.312,0,0,1,1.31,1.31Z"/><path d="M97.785,30.482a9.95,9.95,0,1,0,9.95,9.95A9.962,9.962,0,0,0,97.785,30.482Zm0,16.9a6.95,6.95,0,1,1,6.95-6.95A6.958,6.958,0,0,1,97.785,47.382Z"/><path d="M11.383,40.272a20.828,20.828,0,0,0,7.3,1.633,17.419,17.419,0,0,0,5.9-1.135,1.5,1.5,0,0,0-1-2.828c-4.743,1.683-7.212.95-11.171-.49-5.047-1.833-10.142.441-10.356.54a1.5,1.5,0,0,0,1.241,2.73C3.335,40.7,7.507,38.862,11.383,40.272Z"/><path d="M24.116,29.281c-3.424.224-4.917-.726-7.266-2.422a11.149,11.149,0,0,0-7.51-1.717,1.5,1.5,0,0,0,.448,2.966,8.211,8.211,0,0,1,5.306,1.184c2.495,1.8,4.478,3.021,8.068,3.021.365,0,.747-.013,1.148-.038a1.5,1.5,0,1,0-.194-2.994Z"/><path d="M23.444,47.626c-3.044,1.579-4.795,1.313-7.627.705a11.179,11.179,0,0,0-7.565,1.448,1.5,1.5,0,0,0,1.6,2.536,8.2,8.2,0,0,1,5.333-1.051c3.316.711,5.778,1.028,9.638-.976a1.5,1.5,0,1,0-1.382-2.662Z"/></svg>