<svg id="Outline" xmlns="http://www.w3.org/2000/svg" viewBox="0 0 128 128"><title>eyelash, eyes, makeup, beauty, cosmetic, mascara</title><path d="M90.219,71.316H88.01V45.959a3.525,3.525,0,0,0-3.52-3.52h-.216V39.4h1.553a1.5,1.5,0,0,0,0-3H84.274V34.073H87.2a1.5,1.5,0,0,0,0-3H84.274V28.751h4.659a1.5,1.5,0,0,0,0-3H84.274V23.429h5.75a1.5,1.5,0,0,0,0-3h-5.75V18.107h4.659a1.5,1.5,0,0,0,0-3H84.274V12.786H87.2a1.5,1.5,0,0,0,0-3H84.274V7.464h1.553a1.5,1.5,0,0,0,0-3H84.274V2.508a1.5,1.5,0,1,0-3,0V4.464h-1.42a1.5,1.5,0,0,0,0,3h1.42V9.786h-2.79a1.5,1.5,0,0,0,0,3h2.79v2.321H76.749a1.5,1.5,0,0,0,0,3h4.525v2.322H75.657a1.5,1.5,0,0,0,0,3h5.617v2.322H76.749a1.5,1.5,0,0,0,0,3h4.525v2.322h-2.79a1.5,1.5,0,0,0,0,3h2.79V36.4h-1.42a1.5,1.5,0,0,0,0,3h1.42v3.044H81.19a3.524,3.524,0,0,0-3.52,3.52V71.316H75.462a4.558,4.558,0,0,0-4.553,4.554v46.561a4.558,4.558,0,0,0,4.553,4.553H90.219a4.558,4.558,0,0,0,4.554-4.553V75.87A4.559,4.559,0,0,0,90.219,71.316ZM80.67,45.959a.52.52,0,0,1,.52-.52h3.3a.515.515,0,0,1,.52.52V71.316H80.67Zm11.1,76.472a1.555,1.555,0,0,1-1.554,1.553H75.462a1.555,1.555,0,0,1-1.553-1.553V75.87a1.555,1.555,0,0,1,1.553-1.554H90.219a1.556,1.556,0,0,1,1.554,1.554Z"/><path d="M53.656,20.678V8.537A3.539,3.539,0,0,0,50.121,5H40.2a3.539,3.539,0,0,0-3.536,3.535V20.678a4.55,4.55,0,0,0-3.435,4.4v97.363a4.558,4.558,0,0,0,4.554,4.553H52.538a4.558,4.558,0,0,0,4.553-4.553V25.076A4.549,4.549,0,0,0,53.656,20.678ZM39.662,8.537A.536.536,0,0,1,40.2,8h9.923a.536.536,0,0,1,.535.535V20.522H39.662ZM37.781,23.522H52.538a1.555,1.555,0,0,1,1.553,1.554v8.61H36.227v-8.61A1.556,1.556,0,0,1,37.781,23.522Zm14.757,100.47H37.781a1.555,1.555,0,0,1-1.554-1.553V36.686H54.091v85.753A1.555,1.555,0,0,1,52.538,123.992Z"/></svg>