<svg id="Flat" xmlns="http://www.w3.org/2000/svg" viewBox="0 0 128 128"><title>spa, hair, beauty, cosmetic, woman, shower</title><path d="M91.1,55.808,88.611,73.424c4.431.723,9.506-4.38,10.241-8.809C99.755,59.172,96.653,55.349,91.1,55.808Z" style="fill:#ffa39c"/><path d="M29.148,64.615c.735,4.429,5.81,9.532,10.241,8.809L36.9,55.808C31.347,55.349,28.245,59.172,29.148,64.615Z" style="fill:#ffa39c"/><path d="M89.554,66.132A1.5,1.5,0,0,1,88.2,64c.937-2,3.726-3.142,5.758-2.944a1.5,1.5,0,1,1-.291,2.986,3.312,3.312,0,0,0-2.75,1.23A1.5,1.5,0,0,1,89.554,66.132Z" style="fill:#ff6c73"/><path d="M38.446,66.132a1.5,1.5,0,0,1-1.359-.864,3.313,3.313,0,0,0-2.75-1.23,1.5,1.5,0,1,1-.291-2.986c2.028-.2,4.82.94,5.758,2.944a1.5,1.5,0,0,1-1.358,2.136Z" style="fill:#ff6c73"/><path d="M106.8,126.11H21.2a2.007,2.007,0,0,1-1.778-2.929,25.334,25.334,0,0,1,5.362-7.111c4.71-4.37,16.67-6.55,22.78-9.65a11.888,11.888,0,0,0,6.54-8.79,57.712,57.712,0,0,0,.57-6.67H73.33a57.712,57.712,0,0,0,.57,6.67,11.888,11.888,0,0,0,6.54,8.79c6.11,3.1,18.07,5.28,22.78,9.65a25.334,25.334,0,0,1,5.362,7.111A2.007,2.007,0,0,1,106.8,126.11Z" style="fill:#ffa39c"/><path d="M73.9,97.63a29.343,29.343,0,0,1-8.47,3.25,6.57,6.57,0,0,1-2.86,0,29.343,29.343,0,0,1-8.47-3.25,57.712,57.712,0,0,0,.57-6.67H73.33A57.712,57.712,0,0,0,73.9,97.63Z" style="fill:#ff6c73"/><path d="M36.9,55.808c-.015,13.335,3.5,24.006,9.543,29.862,3.732,3.616,8.48,7.524,16.13,9.211a6.623,6.623,0,0,0,2.858,0c7.65-1.687,12.4-5.595,16.13-9.211C87.6,79.814,91.117,69.143,91.1,55.808,87.783,4.75,39.39,8,36.9,55.808Z" style="fill:#ffb3a9"/><circle cx="101.48" cy="91.046" r="6.27" style="fill:#ffe1e1"/><circle cx="10.461" cy="65.195" r="5.668" style="fill:#ffe1e1"/><circle cx="117.925" cy="68.436" r="3.873" style="fill:#ffe1e1"/><circle cx="11.858" cy="43.697" r="3.873" style="fill:#ffe1e1"/><circle cx="25.718" cy="95.605" r="3.05" style="fill:#ffe1e1"/><circle cx="116.708" cy="35.692" r="3.745" style="fill:#ffe1e1"/><path d="M64,70.427A5.616,5.616,0,0,1,60.335,68.9a1.4,1.4,0,0,1,1.821-2.115,2.434,2.434,0,0,0,3.688,0A1.4,1.4,0,0,1,67.665,68.9,5.616,5.616,0,0,1,64,70.427Z" style="fill:#ff6c73"/><path d="M72.469,76.493a1.077,1.077,0,0,0-1.261-.853l-.018,0a9.838,9.838,0,0,1-3.376.088c-.28-.041-.553-.095-.88-.158a3.991,3.991,0,0,0-1.425-.069,3.522,3.522,0,0,0-1.386.567.241.241,0,0,1-.246,0,3.522,3.522,0,0,0-1.386-.567,3.991,3.991,0,0,0-1.425.069c-.326.063-.6.117-.88.158a9.831,9.831,0,0,1-3.375-.088l-.019,0a1.076,1.076,0,0,0-.631,2.045,9.963,9.963,0,0,0,4.248.822c.362-.01.728-.04,1.039-.064.292-.026.417.022.851.277a3.159,3.159,0,0,0,1.589.46c.032,0,.18,0,.224,0a3.159,3.159,0,0,0,1.589-.46c.434-.255.559-.3.851-.277.311.024.677.054,1.039.064a9.963,9.963,0,0,0,4.248-.822A1.077,1.077,0,0,0,72.469,76.493Z" style="fill:#ff6c73"/><path d="M64,84.1a5.066,5.066,0,0,1-2.213-.523,1.5,1.5,0,0,1,1.3-2.7,1.941,1.941,0,0,0,1.824,0,1.5,1.5,0,1,1,1.3,2.7A5.073,5.073,0,0,1,64,84.1Z" style="fill:#ff6c73"/><path d="M71.773,46.674a12.762,12.762,0,0,1,4.164-1.068,17.119,17.119,0,0,1,4.16.045,33.9,33.9,0,0,1,4.054.8,16.478,16.478,0,0,1,3.919,1.492.67.67,0,0,1-.531,1.223l-.043-.013a18.51,18.51,0,0,0-3.71-.687,32.426,32.426,0,0,0-3.841-.115l-3.787.09a29.668,29.668,0,0,0-3.632.4l-.052.01a1.153,1.153,0,0,1-.7-2.178Z" style="fill:#9e5969"/><path d="M73.211,57.668a5.841,5.841,0,0,0,2.448.246,12.593,12.593,0,0,0,2.69-.544c.448-.141.9-.287,1.333-.467.224-.077,1.381-.589,1.381-.589a4.56,4.56,0,0,1,2.023-.386,2.389,2.389,0,0,1,1.919,1.116.656.656,0,0,1-.681.96l-.159-.026a1.761,1.761,0,0,0-.978.122,4.973,4.973,0,0,0-.972.5c-.093.065-1.161.707-1.422.831a12.956,12.956,0,0,1-1.612.633,10.747,10.747,0,0,1-3.487.506,5.8,5.8,0,0,1-3.571-1.234,1,1,0,0,1,.967-1.709Z" style="fill:#9e5969"/><path d="M55.878,59.335a5.8,5.8,0,0,1-3.572,1.234,10.747,10.747,0,0,1-3.487-.506,12.956,12.956,0,0,1-1.612-.633c-.261-.124-.515-.271-.77-.412,0,0-.559-.354-.652-.419a4.973,4.973,0,0,0-.972-.5,1.761,1.761,0,0,0-.978-.122L43.677,58A.655.655,0,0,1,43,57.044a2.389,2.389,0,0,1,1.919-1.116,4.56,4.56,0,0,1,2.023.386l.418.182s.739.33.963.407c.434.18.885.326,1.333.467a12.593,12.593,0,0,0,2.69.544,5.84,5.84,0,0,0,2.448-.246l.119-.041a1,1,0,0,1,.97,1.708Z" style="fill:#9e5969"/><path d="M55.474,48.842a29.668,29.668,0,0,0-3.632-.4l-3.787-.09a32.426,32.426,0,0,0-3.841.115,18.51,18.51,0,0,0-3.71.687l-.042.013a.671.671,0,0,1-.532-1.223,16.478,16.478,0,0,1,3.919-1.492,33.9,33.9,0,0,1,4.054-.8,17.119,17.119,0,0,1,4.16-.045,12.762,12.762,0,0,1,4.164,1.068,1.152,1.152,0,0,1-.7,2.178Z" style="fill:#9e5969"/><path d="M100.773,51.245c2.318-7.668,1.267-24.239-6.964-35.62C88.057,7.672,73.562-1.313,64,3.378,51.63,8.45,55.673,17.523,64,27.64,85.037,51.9,94.727,59.833,97.835,62.074a1.991,1.991,0,0,0,2.457-.092C103.271,59.435,102.005,55.635,100.773,51.245Z" style="fill:#ffcfcf"/><path d="M100.774,52.744a1.5,1.5,0,0,1-1.288-.728,26.557,26.557,0,0,0-3.507-4.681,1.5,1.5,0,0,1,2.036-2.2,29.945,29.945,0,0,1,4.046,5.342,1.5,1.5,0,0,1-.517,2.056A1.48,1.48,0,0,1,100.774,52.744Z" style="fill:#ffaeb2"/><path d="M93.81,35.78a1.5,1.5,0,0,1-1.158-.544c-.124-.15-12.526-15-22.248-15a1.5,1.5,0,0,1,0-3c11.132,0,24.018,15.437,24.561,16.093A1.5,1.5,0,0,1,93.81,35.78Z" style="fill:#ffaeb2"/><path d="M61.88,10.914C61.715,7.757,64,3.378,64,3.378,54.438-1.313,39.943,7.672,34.191,15.625c-8.231,11.381-9.282,27.952-6.964,35.62-1.047,3.732-2.12,7.039-.586,9.511a2.969,2.969,0,0,0,4.317.729c3.8-2.9,13.549-11.362,33.042-33.845C69.079,21.991,62.125,15.625,61.88,10.914Z" style="fill:#ffe1e1"/><path d="M27.226,52.744a1.5,1.5,0,0,1-1.287-2.27,29.945,29.945,0,0,1,4.046-5.342,1.5,1.5,0,0,1,2.036,2.2,26.588,26.588,0,0,0-3.507,4.68A1.5,1.5,0,0,1,27.226,52.744Z" style="fill:#ffcfcf"/><path d="M34.19,35.78a1.5,1.5,0,0,1-1.155-2.456c.543-.656,13.429-16.093,24.561-16.093a1.5,1.5,0,0,1,0,3c-9.735,0-22.124,14.855-22.248,15A1.5,1.5,0,0,1,34.19,35.78Z" style="fill:#ffcfcf"/></svg>