<svg id="Outline" xmlns="http://www.w3.org/2000/svg" viewBox="0 0 128 128"><title>spa, hair, beauty, cosmetic, woman, shower</title><path d="M98.546,83.852a7.768,7.768,0,1,0,5.947.032A7.717,7.717,0,0,0,98.546,83.852Zm7.35,5.393a4.781,4.781,0,1,1-2.567-2.6A4.74,4.74,0,0,1,105.9,89.245Z"/><path d="M17.386,63.346A7.169,7.169,0,1,0,12.31,72.12,7.173,7.173,0,0,0,17.386,63.346Zm-5.85,5.876a4.168,4.168,0,1,1,2.951-5.1A4.137,4.137,0,0,1,11.536,69.222Z"/><path d="M122.9,66.408a5.374,5.374,0,1,0-.023,4.112A5.338,5.338,0,0,0,122.9,66.408Zm-2.789,2.948h0a2.372,2.372,0,1,1,.011-1.817A2.354,2.354,0,0,1,120.111,69.357Z"/><path d="M11.859,49.071a5.373,5.373,0,1,0-5.193-3.987A5.377,5.377,0,0,0,11.859,49.071ZM11.245,41.4a2.37,2.37,0,0,1,2.905,1.681A2.373,2.373,0,1,1,11.245,41.4Z"/><path d="M23.44,99.544a4.533,4.533,0,0,0,2.271.613,4.556,4.556,0,0,0,4.4-5.725,4.549,4.549,0,1,0-6.673,5.112Zm.936-4.715a1.547,1.547,0,0,1,.942-.721,1.592,1.592,0,0,1,.4-.052,1.548,1.548,0,1,1-1.345.773Z"/><path d="M114.674,40.527a5.247,5.247,0,0,0,6.869-2.8h0a5.245,5.245,0,1,0-6.869,2.8Zm-.035-5.706a2.234,2.234,0,0,1,1.221-1.209,2.261,2.261,0,0,1,.849-.167,2.248,2.248,0,1,1-2.07,1.376Z"/><path d="M64,70.534a5.72,5.72,0,0,0,3.733-1.554,1.5,1.5,0,1,0-1.957-2.273,2.324,2.324,0,0,1-3.552,0,1.5,1.5,0,1,0-1.957,2.273A5.72,5.72,0,0,0,64,70.534Z"/><path d="M71.208,75.64l-.018,0a9.838,9.838,0,0,1-3.376.088c-.28-.041-.553-.095-.88-.158a3.991,3.991,0,0,0-1.425-.069,3.522,3.522,0,0,0-1.386.567.241.241,0,0,1-.246,0,3.522,3.522,0,0,0-1.386-.567,3.991,3.991,0,0,0-1.425.069c-.326.063-.6.117-.88.158a9.831,9.831,0,0,1-3.375-.088l-.019,0a1.076,1.076,0,0,0-.631,2.045,9.963,9.963,0,0,0,4.248.822c.362-.01.728-.04,1.039-.064.292-.026.417.022.851.277a3.159,3.159,0,0,0,1.589.46c.032,0,.18,0,.224,0a3.159,3.159,0,0,0,1.589-.46c.434-.255.559-.3.851-.277.311.024.677.054,1.039.064a9.963,9.963,0,0,0,4.248-.822,1.076,1.076,0,0,0-.631-2.045Z"/><path d="M64.912,80.877a1.944,1.944,0,0,1-1.824,0,1.5,1.5,0,0,0-1.3,2.7,4.943,4.943,0,0,0,4.426,0,1.5,1.5,0,1,0-1.3-2.7Z"/><path d="M81.609,59.107l.381-.232c.12-.076.176-.125.268-.191a5.5,5.5,0,0,1,.933-.5,1.722,1.722,0,0,1,.943-.168l.2.022a.705.705,0,0,0,.7-1.026,2.423,2.423,0,0,0-1.954-1.162,4.6,4.6,0,0,0-2.062.382l-.423.181-.311.143c-.214.087-.423.181-.646.256-.43.176-.878.321-1.322.461a12.913,12.913,0,0,1-2.661.545,5.983,5.983,0,0,1-2.405-.209l-.146-.048a1.073,1.073,0,0,0-1.024,1.84,5.844,5.844,0,0,0,3.613,1.27,10.691,10.691,0,0,0,3.517-.505,12.614,12.614,0,0,0,1.622-.639C81.1,59.4,81.352,59.25,81.609,59.107Z"/><path d="M56.245,58.247a1.073,1.073,0,0,0-1.352-.688l-.145.047a5.983,5.983,0,0,1-2.4.209,12.913,12.913,0,0,1-2.661-.545c-.444-.14-.892-.285-1.322-.461-.223-.075-.432-.169-.646-.256L47.4,56.41l-.423-.181a4.6,4.6,0,0,0-2.062-.382,2.423,2.423,0,0,0-1.954,1.162.69.69,0,0,0-.075.4.706.706,0,0,0,.779.623l.2-.022a1.722,1.722,0,0,1,.943.168,5.461,5.461,0,0,1,.932.5c.093.066.149.115.269.191l.381.232c.257.143.512.292.775.417a12.614,12.614,0,0,0,1.622.639,10.691,10.691,0,0,0,3.517.505,5.844,5.844,0,0,0,3.613-1.27A1.076,1.076,0,0,0,56.245,58.247Z"/><path d="M104.243,114.966c-3.148-2.915-8.9-4.8-14.456-6.631a67.319,67.319,0,0,1-8.664-3.249c-5.686-2.885-6-8.172-6.224-12.032,0-.094-.011-.173-.017-.264A40.031,40.031,0,0,0,82.6,86.746a29.8,29.8,0,0,0,7.087-11.775c4.907-.157,9.859-5.394,10.637-10.108a12.131,12.131,0,0,0,.162-1.554,4.317,4.317,0,0,0,2.147-1.762c1.789-2.9.8-6.387-.244-10.079l-.064-.223c2.172-7.864,1.363-24.51-7.3-36.5C88.86,6.218,74.261-2.62,64,1.742c-10.262-4.363-24.86,4.475-31.025,13-8.667,11.994-9.476,28.64-7.3,36.5l-.064.223c-1.045,3.692-2.033,7.179-.245,10.079a4.315,4.315,0,0,0,2.148,1.76,11.947,11.947,0,0,0,.161,1.547c.779,4.722,5.731,9.96,10.638,10.117A29.8,29.8,0,0,0,45.4,86.746a40.062,40.062,0,0,0,7.722,6.044c-.006.091-.012.17-.017.264-.228,3.86-.539,9.147-6.224,12.032a67.319,67.319,0,0,1-8.664,3.249c-5.56,1.826-11.308,3.716-14.456,6.631a28.546,28.546,0,0,0-7.075,10.578,1.5,1.5,0,0,0,2.777,1.135,25.665,25.665,0,0,1,6.337-9.512c2.667-2.471,8.345-4.336,13.353-5.982a69.185,69.185,0,0,0,9.085-3.423c6.629-3.364,7.509-9.366,7.793-13.474a31.67,31.67,0,0,0,6.216,2.056,8.138,8.138,0,0,0,3.51,0,31.777,31.777,0,0,0,6.22-2.057c.284,4.108,1.164,10.11,7.793,13.474a69.185,69.185,0,0,0,9.085,3.423c5.008,1.646,10.686,3.511,13.353,5.982a25.665,25.665,0,0,1,6.337,9.512,1.5,1.5,0,0,0,2.777-1.135A28.546,28.546,0,0,0,104.243,114.966ZM94.171,61.1a1.412,1.412,0,0,0-.217-.043,4.563,4.563,0,0,0-1.546.121c.036-.5.065-1,.091-1.51Q93.372,60.43,94.171,61.1Zm-3.5,10.73A54.818,54.818,0,0,0,92,65.111c.617-1.161,1.4-1.1,1.663-1.073A1.5,1.5,0,0,0,95.3,62.69a1.488,1.488,0,0,0-.142-.783c.329.263.659.529.964.762a4.509,4.509,0,0,0,1.357.709,9.277,9.277,0,0,1-.111.988C96.869,67.405,93.732,71.041,90.668,71.825ZM92.594,16.5c6.838,9.463,8.564,22.783,7.438,30.962a17.673,17.673,0,0,0-2.017-2.329,1.5,1.5,0,0,0-2.036,2.2,18.71,18.71,0,0,1,3.4,4.51c.817,1.869,1.8,6.35.7,8.128a1.384,1.384,0,0,1-1.135.637,1.726,1.726,0,0,1-1-.322c-1.1-.843-3.013-2.395-5.837-5-2.771-2.546-5.908-5.637-9.325-9.187-5.021-5.2-10.69-11.434-16.85-18.516,2.849-4.177.793-8.533-.894-12.088a14.454,14.454,0,0,1-1.667-4.66c-.1-1.992,1.059-4.893,1.727-6.3C73.748.792,87.271,9.139,92.594,16.5ZM28.619,51.844a18.653,18.653,0,0,1,3.4-4.509,1.5,1.5,0,0,0-2.036-2.2,17.673,17.673,0,0,0-2.017,2.329c-1.126-8.179.6-21.5,7.438-30.962C39.823,10.393,49.889,3.6,58.125,3.6a12.446,12.446,0,0,1,3.853.574,17.116,17.116,0,0,0-1.6,6.81,16.226,16.226,0,0,0,1.953,5.794c1.965,4.139,3.064,7.061.55,9.857l-.019.02C56.392,34.128,50.451,40.669,45.209,46.1c-3.415,3.548-6.552,6.639-9.326,9.188-2.821,2.605-4.73,4.157-5.839,5a1.574,1.574,0,0,1-.966.319,1.4,1.4,0,0,1-1.162-.638C26.82,58.2,27.8,53.712,28.619,51.844ZM35.5,59.663c.026.507.055,1.011.091,1.51a4.561,4.561,0,0,0-1.546-.121,1.412,1.412,0,0,0-.217.043Q34.629,60.429,35.5,59.663Zm-4.872,4.694a9.252,9.252,0,0,1-.11-.979,4.485,4.485,0,0,0,1.352-.7c.307-.235.639-.5.969-.766a1.491,1.491,0,0,0,1.5,2.131c.261-.028,1.045-.088,1.662,1.073a55.239,55.239,0,0,0,1.332,6.712C34.27,71.035,31.131,67.4,30.629,64.357ZM65.1,93.416a5.112,5.112,0,0,1-2.209,0c-7.191-1.588-11.656-5.178-15.409-8.821a27.9,27.9,0,0,1-6.647-11.488,1.315,1.315,0,0,0-.058-.174,49.489,49.489,0,0,1-1.852-8.517,64.766,64.766,0,0,1-.514-7.388c2.638-2.445,5.574-5.341,8.754-8.639a69.666,69.666,0,0,1,8.3.487l.051.01a1.189,1.189,0,0,0,.725-2.245,13.144,13.144,0,0,0-4.172-1.088,18.733,18.733,0,0,0-2.1-.095c4.294-4.545,9-9.753,14.033-15.534,5.036,5.781,9.741,10.989,14.033,15.534a18.973,18.973,0,0,0-2.1.095,13.144,13.144,0,0,0-4.172,1.088,1.189,1.189,0,0,0,.726,2.245l.05-.01a69.626,69.626,0,0,1,8.3-.486c3.181,3.3,6.118,6.2,8.753,8.638a64.7,64.7,0,0,1-.514,7.386,49.572,49.572,0,0,1-1.816,8.394,1.512,1.512,0,0,0-.1.32,27.884,27.884,0,0,1-6.639,11.467C76.762,88.237,72.3,91.827,65.1,93.416Z"/><path d="M34.19,35.78a1.5,1.5,0,0,0,1.158-.544c.124-.15,12.513-15,22.248-15a1.5,1.5,0,0,0,0-3c-11.132,0-24.018,15.437-24.561,16.093A1.5,1.5,0,0,0,34.19,35.78Z"/><path d="M70.4,20.231c9.722,0,22.124,14.855,22.248,15a1.5,1.5,0,1,0,2.313-1.912c-.543-.656-13.429-16.093-24.561-16.093a1.5,1.5,0,0,0,0,3Z"/></svg>