<svg id="Outline" xmlns="http://www.w3.org/2000/svg" viewBox="0 0 128 128"><title>nail, polish, beauty, finger, cosmetic, product, paint</title><path d="M108.011,68.625H70.037a5.432,5.432,0,0,0-5.425,5.425V113.8a5.432,5.432,0,0,0,5.425,5.425h37.974a5.431,5.431,0,0,0,5.425-5.425V74.05A5.431,5.431,0,0,0,108.011,68.625Zm-37.27,47.6,12.332-12.34a4.145,4.145,0,0,0,5.661,5.3l-7.045,7.038Zm21.772-14.7-4.754,4.752a1.166,1.166,0,1,1-1.649-1.65l4.753-4.753a1.167,1.167,0,0,1,1.65,1.651Zm-11.1-4.1-4.753,4.753a1.167,1.167,0,0,1-1.651-1.65l4.754-4.753a1.167,1.167,0,0,1,1.65,1.65Zm-8.525,6.874a4.118,4.118,0,0,0,4.74.8l-9.764,9.771a2.4,2.4,0,0,1-.253-1.058v-9.646l4.361-4.367a4.16,4.16,0,0,0,.916,4.5Zm37.547,9.509a2.428,2.428,0,0,1-2.425,2.425H85.934l7.152-7.145a6.779,6.779,0,0,0,1.923-5.894,4.146,4.146,0,0,0-5.855-5.776,6.9,6.9,0,0,0-4.968,1.25,4.143,4.143,0,0,0-6.131-5.354,6.873,6.873,0,0,0-5.792,1.944l-4.651,4.658V74.05a2.428,2.428,0,0,1,2.425-2.425h37.974a2.428,2.428,0,0,1,2.425,2.425Z"/><path d="M43.99,1.2H26.24a7.509,7.509,0,0,0-7.5,7.5V59.728a4.5,4.5,0,0,0,4.5,4.5h6.7V91.751a3.879,3.879,0,0,0,.752,2.287c-.237,2.2-.585,4.452-.9,6.465a41.039,41.039,0,0,0-.728,6.319,2.547,2.547,0,0,0,2.316,2.371,27.213,27.213,0,0,0,3.732.22,27.285,27.285,0,0,0,3.736-.22,2.542,2.542,0,0,0,2.313-2.341,40.916,40.916,0,0,0-.727-6.349c-.314-2.013-.662-4.268-.9-6.464a3.885,3.885,0,0,0,.752-2.288V64.228h6.7a4.505,4.505,0,0,0,4.5-4.5V8.7A7.509,7.509,0,0,0,43.99,1.2ZM33.064,106.349a.994.994,0,0,1-.917-1.105c.124-1.161.363-2.691.611-4.278.26-1.663.545-3.49.774-5.332.109.009,3.057.009,3.166,0,.229,1.842.514,3.669.774,5.332.249,1.591.488,3.125.611,4.3a.99.99,0,0,1-.919,1.09A33.787,33.787,0,0,1,33.064,106.349Zm4.225-14.6a.917.917,0,0,1-.916.916H33.857a.917.917,0,0,1-.916-.916V64.228h4.348Zm11.2-32.023a1.5,1.5,0,0,1-1.5,1.5H23.24a1.5,1.5,0,0,1-1.5-1.5V8.7a4.5,4.5,0,0,1,4.5-4.5H43.99a4.505,4.505,0,0,1,4.5,4.5Z"/><path d="M45.531,29.332a5.646,5.646,0,0,0-4.774-1.058,10.737,10.737,0,0,0-5.61,3.213.172.172,0,0,1-.256,0,10.746,10.746,0,0,0-5.611-3.214,5.661,5.661,0,0,0-4.773,1.059,5.5,5.5,0,0,0,0,8.415,5.36,5.36,0,0,0,3.458,1.188,6.885,6.885,0,0,0,1.315-.13,9.57,9.57,0,0,0,2.665-.956c-.338.317-.729.653-1.175,1.03a15.465,15.465,0,0,0-5.083,6.5,1.5,1.5,0,0,0,1.371,2.114,1.5,1.5,0,0,0,1.4-.97,12.543,12.543,0,0,1,4.244-5.352c.55-.465,1.106-.934,1.617-1.446a.983.983,0,0,1,1.392,0c.511.512,1.066.981,1.617,1.446a12.577,12.577,0,0,1,4.228,5.312,1.5,1.5,0,1,0,2.822-1.02,15.42,15.42,0,0,0-5.114-6.583c-.447-.378-.838-.714-1.177-1.031a9.588,9.588,0,0,0,2.666.956,6.826,6.826,0,0,0,1.316.131,5.355,5.355,0,0,0,3.457-1.188,5.5,5.5,0,0,0,0-8.415ZM28.705,35.86a2.661,2.661,0,0,1-2.29-.428,2.5,2.5,0,0,1,0-3.785,2.34,2.34,0,0,1,1.532-.507,3.976,3.976,0,0,1,.759.078,7.75,7.75,0,0,1,4,2.322A7.751,7.751,0,0,1,28.705,35.86Zm14.918-.428a2.653,2.653,0,0,1-2.29.427,7.744,7.744,0,0,1-4-2.319,7.745,7.745,0,0,1,4-2.321,2.648,2.648,0,0,1,2.291.428,2.506,2.506,0,0,1,0,3.785Z"/><path d="M19.9,124.97a8.175,8.175,0,0,1-.972-.058,8.045,8.045,0,0,1-6.981-9.071,5.779,5.779,0,1,1,6.2-7.8,5.532,5.532,0,0,1,.262,1.01,8.031,8.031,0,0,1,7.162,13.581A8,8,0,0,1,19.9,124.97Zm-6.751-12.086a2.015,2.015,0,0,1,1.937,2.609,4.953,4.953,0,0,0-.21,1.616,5.106,5.106,0,0,0,4.4,4.825,5.032,5.032,0,0,0,5.618-5.6,5.083,5.083,0,0,0-4.946-4.426,5.155,5.155,0,0,0-1.73.29,2.008,2.008,0,0,1-1.849-.246,2.037,2.037,0,0,1-.858-1.676,3.928,3.928,0,0,0-.167-1.159,2.782,2.782,0,0,0-4.68-.839A2.767,2.767,0,0,0,10,110.487,2.853,2.853,0,0,0,12.82,112.9l.162-.007h0C13.04,112.886,13.1,112.884,13.151,112.884Zm.075,3h0Z"/><path d="M15.8,101.092a4.546,4.546,0,1,1,4.546-4.545A4.55,4.55,0,0,1,15.8,101.092ZM15.8,95a1.546,1.546,0,1,0,1.546,1.546A1.547,1.547,0,0,0,15.8,95Z"/><path d="M109.481,127.125H69.141a11.844,11.844,0,0,1-11.83-11.83V75.8c0-11.457,7.531-14.133,11.577-15.57l.72-.258c4.141-1.517,6.613-3.358,6.613-4.924v-11.8a5.506,5.506,0,0,1,5.5-5.5H96.9a5.506,5.506,0,0,1,5.5,5.5v11.8c0,1.567,2.473,3.407,6.613,4.924l.719.258c4.047,1.437,11.578,4.113,11.578,15.57v39.5A11.844,11.844,0,0,1,109.481,127.125Zm-27.76-86.38a2.5,2.5,0,0,0-2.5,2.5v11.8c0,3.052-2.887,5.655-8.582,7.74l-.746.269c-4.044,1.436-9.582,3.4-9.582,12.743v39.5a8.84,8.84,0,0,0,8.83,8.83h40.34a8.84,8.84,0,0,0,8.83-8.83V75.8c0-9.34-5.538-11.307-9.582-12.743l-.746-.269C102.289,60.7,99.4,58.1,99.4,55.043v-11.8a2.5,2.5,0,0,0-2.5-2.5Z"/></svg>