<svg xmlns="http://www.w3.org/2000/svg" viewBox="0 0 48 48"><defs><style>.cls-1{fill:#db5669;}.cls-2{fill:#6fabe6;}.cls-3{fill:#82bcf4;}.cls-4{fill:#fc6;}.cls-5{fill:#ffde76;}.cls-6{fill:#919191;}.cls-7{fill:#f26674;}</style></defs><title>7. diagram</title><g id="_7._diagram" data-name="7. diagram"><rect class="cls-1" x="17" y="1" width="14" height="10"/><rect class="cls-2" x="1" y="29" width="14" height="10"/><path class="cls-3" d="M15,29v8H12a8,8,0,0,1-8-8Z"/><rect class="cls-4" x="39" y="31" width="8" height="6"/><rect class="cls-4" x="39" y="41" width="8" height="6"/><rect class="cls-4" x="39" y="21" width="8" height="6"/><path class="cls-5" d="M47,21v4H45a4,4,0,0,1-4-4Z"/><path class="cls-6" d="M35,35a1,1,0,0,0,0-2H25V25H35a1,1,0,0,0,0-2H25V15a1,1,0,0,0-2,0v2H8a1,1,0,0,0-1,1v7a1,1,0,0,0,2,0V19H23V33H19a1,1,0,0,0,0,2h4v9a1,1,0,0,0,1,1H35a1,1,0,0,0,0-2H25V35Z"/><path class="cls-7" d="M31,1V9H28a8,8,0,0,1-8-8Z"/><path class="cls-5" d="M47,31v4H45a4,4,0,0,1-4-4Z"/><path class="cls-5" d="M47,41v4H45a4,4,0,0,1-4-4Z"/></g></svg>