<svg id="Flat" xmlns="http://www.w3.org/2000/svg" viewBox="0 0 128 128"><title>skincare, makeup, beauty, product, drop, cosmetic, moisturized</title><path d="M94.028,85.859h0c-2.744,0-4.968-5.4-4.968-7.4L88.024,38.778c0-2,3.26-3.622,6-3.622h0c2.743,0,6,1.622,6,3.622L99,78.457C99,80.458,96.771,85.859,94.028,85.859Z" style="fill:#f7f0e8"/><path d="M99.812,8.574a5.754,5.754,0,1,0-11.507,0c-.074,5.506-.5,19.2-3.473,22.176h18.452C100.314,27.779,99.886,14.08,99.812,8.574Z" style="fill:#a05879"/><polygon points="94.013 113.584 94.012 113.584 94.01 113.584 94.013 113.584" style="fill:#54a0fc"/><path d="M102.06,105.534c-.106-3.738-3.974-9.234-6.319-12.25a2.19,2.19,0,0,0-3.458,0c-2.345,3.016-6.213,8.512-6.32,12.25a8.049,8.049,0,1,0,16.1,0Z" style="fill:#84d3d3"/><path d="M51.805,49.693l-.635,1.821a5.081,5.081,0,0,0,1.776,5.758h0A17.1,17.1,0,0,1,60.238,71.25v48.186a6.036,6.036,0,0,1-6.036,6.036H23.539a6.037,6.037,0,0,1-6.037-6.036V71.25a17.1,17.1,0,0,1,7.292-13.978h0a5.078,5.078,0,0,0,1.776-5.758l-.635-1.821Z" style="fill:#4a96a8"/><rect x="26.495" y="72.73" width="24.75" height="39.417" rx="3.7" ry="3.7" style="fill:#f7f0e8"/><rect x="76.732" y="30.323" width="34.653" height="18.177" rx="4.899" ry="4.899" style="fill:#b26b88"/><path d="M52.343,49.981a2.789,2.789,0,0,0,2.694-2.875h0a2.788,2.788,0,0,0-2.694-2.874H25.4A2.789,2.789,0,0,0,22.7,47.106h0a2.79,2.79,0,0,0,2.7,2.875Z" style="fill:#59a5b2"/></svg>