<svg id="Outline" xmlns="http://www.w3.org/2000/svg" viewBox="0 0 128 128"><title>skincare, makeup, beauty, product, drop, cosmetic, moisturized</title><path d="M94.014,115.084h0a1.5,1.5,0,1,1,1.5-1.5A1.5,1.5,0,0,1,94.01,115.084Z"/><path d="M94.012,115.084a9.712,9.712,0,0,1-6.927-2.926,9.127,9.127,0,0,1-2.621-6.667c.113-3.944,3.671-9.316,6.636-13.128a3.689,3.689,0,0,1,5.826,0c2.964,3.812,6.52,9.185,6.634,13.127h0a9.128,9.128,0,0,1-2.622,6.667A9.709,9.709,0,0,1,94.012,115.084Zm0-21.146a.679.679,0,0,0-.545.267c-3.747,4.818-5.937,8.963-6.006,11.372a6.155,6.155,0,0,0,1.775,4.49,6.659,6.659,0,0,0,9.549,0,6.156,6.156,0,0,0,1.776-4.49c-.071-2.408-2.258-6.553-6-11.372A.68.68,0,0,0,94.013,93.938Z"/><path d="M106.486,28.823h-2.474c-1.254-1.973-2.538-8.137-2.7-20.269a7.254,7.254,0,0,0-14.507,0c-.162,12.132-1.445,18.3-2.7,20.269H81.631a6.406,6.406,0,0,0-6.4,6.4V43.6a6.407,6.407,0,0,0,6.4,6.4h5.186l.744,28.458c0,2.567,2.578,8.9,6.467,8.9s6.467-6.334,6.466-8.862l.745-28.5h5.247a6.406,6.406,0,0,0,6.4-6.4V35.222A6.406,6.406,0,0,0,106.486,28.823ZM89.805,8.594a4.254,4.254,0,1,1,8.507,0c.13,9.737.936,16.5,2.4,20.229h-13.3C88.868,25.1,89.675,18.33,89.805,8.594ZM97.5,78.458c0,1.757-2.052,5.9-3.467,5.9s-3.467-4.144-3.468-5.941L89.817,50h8.422ZM109.885,43.6a3.4,3.4,0,0,1-3.4,3.4H81.631a3.4,3.4,0,0,1-3.4-3.4V35.222a3.4,3.4,0,0,1,3.4-3.4h24.855a3.4,3.4,0,0,1,3.4,3.4Z"/><path d="M59.647,62.953a19.575,19.575,0,0,0-5.806-6.89,3.57,3.57,0,0,1-1.257-4.054l.2-.575a4.375,4.375,0,0,0-.444-8.7H25.4a4.376,4.376,0,0,0-.44,8.7l.2.563a3.629,3.629,0,0,1,.2,1.182A3.561,3.561,0,0,1,23.9,56.064,19.572,19.572,0,0,0,16,71.73v47.71a7.544,7.544,0,0,0,7.54,7.53H54.2a7.544,7.544,0,0,0,7.54-7.53V71.73A19.572,19.572,0,0,0,59.647,62.953ZM25.4,45.732H52.343a1.388,1.388,0,0,1,0,2.749H25.4a1.388,1.388,0,0,1,0-2.749ZM58.74,119.44a4.54,4.54,0,0,1-4.54,4.53H23.54A4.54,4.54,0,0,1,19,119.44V71.73a16.558,16.558,0,0,1,6.684-13.255,6.463,6.463,0,0,0,2.421-6.994H49.633a6.54,6.54,0,0,0,2.427,7A16.512,16.512,0,0,1,58.74,71.73Z"/><path d="M47.545,71.229H30.2a5.207,5.207,0,0,0-5.2,5.2v32.016a5.206,5.206,0,0,0,5.2,5.2h17.35a5.206,5.206,0,0,0,5.2-5.2V76.43A5.207,5.207,0,0,0,47.545,71.229Zm2.2,37.217a2.2,2.2,0,0,1-2.2,2.2H30.2a2.2,2.2,0,0,1-2.2-2.2V76.43a2.2,2.2,0,0,1,2.2-2.2h17.35a2.2,2.2,0,0,1,2.2,2.2Z"/></svg>