<svg xmlns="http://www.w3.org/2000/svg" viewBox="0 0 48 48"><defs><style>.cls-1{fill:#6fabe6;}.cls-2{fill:#82bcf4;}.cls-3{fill:#7c7d7d;}.cls-4{fill:#919191;}.cls-5{fill:#db5669;}.cls-6{fill:#f26674;}.cls-7{fill:#edebf2;}</style></defs><title>16. social media</title><g id="_16._social_media" data-name="16. social media"><path class="cls-1" d="M43,11V34H5V11A2,2,0,0,1,7,9H41A2,2,0,0,1,43,11Z"/><path class="cls-2" d="M43,11V32H31A23,23,0,0,1,8,9H41A2,2,0,0,1,43,11Z"/><path class="cls-3" d="M43,34v2a2,2,0,0,1-2,2H7a2,2,0,0,1-2-2V34Z"/><path class="cls-4" d="M43,34v2H10a2,2,0,0,1-2-2Z"/><rect class="cls-5" x="18" y="3" width="12" height="12" rx="2"/><rect class="cls-5" x="1" y="15" width="12" height="12" rx="2"/><path class="cls-6" d="M13,17c0,8.55-.1,8,0,8a9,9,0,0,1-9-9V15h7A2,2,0,0,1,13,17Z"/><path class="cls-6" d="M30,5c0,8.55-.1,8,0,8a9,9,0,0,1-9-9V3h7A2,2,0,0,1,30,5Z"/><rect class="cls-5" x="35" y="15" width="12" height="12" rx="2"/><path class="cls-6" d="M47,17c0,8.55-.1,8,0,8a9,9,0,0,1-9-9V15h7A2,2,0,0,1,47,17Z"/><path class="cls-7" d="M24,12a3,3,0,1,1,3-3A3,3,0,0,1,24,12Zm0-4a1,1,0,0,0,0,2A1,1,0,0,0,24,8Z"/><path class="cls-7" d="M5,24V19a2,2,0,0,1,2-2H8a1,1,0,0,1,0,2H7v5A1,1,0,0,1,5,24Z"/><path class="cls-7" d="M8,22H6a1,1,0,0,1,0-2H8A1,1,0,0,1,8,22Z"/><path class="cls-7" d="M39,24a1,1,0,0,1-1-1c0-4.32-.15-4.47.47-4.85s.77-.15,5,2a1,1,0,0,1,0,1.78C39.14,24.05,39.33,24,39,24Zm1-3.38v.76l.76-.38Z"/><path class="cls-3" d="M28,45H20l1-7h6C27.85,44,27.61,42.33,28,45Z"/><path class="cls-4" d="M27.71,43a4.1,4.1,0,0,1-4-5H27Z"/><path class="cls-3" d="M31,46H17a1,1,0,0,1,0-2H31A1,1,0,0,1,31,46Z"/></g></svg>