<svg id="Outline" xmlns="http://www.w3.org/2000/svg" viewBox="0 0 128 128"><title>gift, set, collection, beauty, cosmetics, promotion</title><path d="M125.281,116.512h-7.266v-95.9a6.959,6.959,0,0,0-6.952-6.951H16.937a6.959,6.959,0,0,0-6.952,6.951v95.9H2.719a1.5,1.5,0,1,0,0,3H18.95v2.179a3.665,3.665,0,0,0,3.661,3.661H49.6a3.665,3.665,0,0,0,3.66-3.661v-2.179h8.724v2.433a3.5,3.5,0,0,0,3.5,3.5H78.728a3.5,3.5,0,0,0,3.5-3.5v-2.433h7.149v1.93a3.913,3.913,0,0,0,3.908,3.91h12.237a3.914,3.914,0,0,0,3.909-3.91v-1.93h15.849a1.5,1.5,0,0,0,0-3ZM61.232,35.017h53.783v2.451H61.188a7.893,7.893,0,0,0,.044-2.451Zm53.783-14.4v11.4H60.286A8.435,8.435,0,0,0,58.192,29.4a8.875,8.875,0,0,0-7.673-1.667,16.932,16.932,0,0,0-6.642,2.95V16.663h67.186A3.956,3.956,0,0,1,115.015,20.614ZM50.64,102.057a.6.6,0,0,1-.594.594H22.162a.6.6,0,0,1-.594-.594V98.308a.6.6,0,0,1,.594-.594H50.046a.6.6,0,0,1,.594.594ZM12.985,35.017h5.447a7.893,7.893,0,0,0,.044,2.451H12.985Zm8.372,1.093a5.725,5.725,0,0,1,2.022-4.395,5.517,5.517,0,0,1,3.592-1.2,8.372,8.372,0,0,1,1.6.162,15.364,15.364,0,0,1,7.963,4.612,1.191,1.191,0,0,1,0,1.647,15.363,15.363,0,0,1-7.962,4.611,6.065,6.065,0,0,1-5.192-1.039A5.728,5.728,0,0,1,21.357,36.11Zm19.52-2.784a4.15,4.15,0,0,0-.885,1.594,1.421,1.421,0,0,0-.16-.016,1.4,1.4,0,0,0-.159.016,4.158,4.158,0,0,0-.972-1.7c-.085-.089-.186-.183-.275-.274V16.663h2.451ZM38.426,94.714V43.747A17.862,17.862,0,0,0,39.832,41.6a17.093,17.093,0,0,0,1.045,1.657V94.714Zm4.706-59.427a15.362,15.362,0,0,1,7.962-4.611,6.069,6.069,0,0,1,5.191,1.038,5.791,5.791,0,0,1,0,8.793,6.079,6.079,0,0,1-5.191,1.038,15.363,15.363,0,0,1-7.962-4.611A1.191,1.191,0,0,1,43.132,35.287ZM16.937,16.663H35.426V30.434a16.785,16.785,0,0,0-6.28-2.7A8.89,8.89,0,0,0,21.472,29.4a8.435,8.435,0,0,0-2.094,2.619H12.985v-11.4A3.956,3.956,0,0,1,16.937,16.663Zm-3.952,99.849V40.468h6.533a8.244,8.244,0,0,0,7.425,4.244,11.434,11.434,0,0,0,2.2-.222,17.4,17.4,0,0,0,7.727-3.785,33.487,33.487,0,0,1-4.353,5.207c-3.046,3.2-6.5,6.82-8.586,12.346a1.5,1.5,0,1,0,2.806,1.06c1.873-4.957,5.1-8.346,7.951-11.338q.37-.387.735-.772V94.714H22.162a3.6,3.6,0,0,0-3.594,3.594v3.749a3.565,3.565,0,0,0,.918,2.375,3.624,3.624,0,0,0-.536,1.88v10.2Zm37.272,5.179a.661.661,0,0,1-.66.661H22.611a.662.662,0,0,1-.661-.661V106.312a.662.662,0,0,1,.661-.661H49.6a.661.661,0,0,1,.66.661ZM87.375,67.654H56.836L56.65,65.9H87.56Zm-1.642,3-2.316,38.691a2.64,2.64,0,0,1-2.633,2.477H63.426a2.641,2.641,0,0,1-2.633-2.476L58.477,70.654Zm-7.005,51.792H65.482a.5.5,0,0,1-.5-.5V116.71c.04-.064.063-.137.107-.2h-.107v-1.69H79.229v7.123A.5.5,0,0,1,78.728,122.446Zm27.7-1a.911.911,0,0,1-.909.91H93.286a.91.91,0,0,1-.908-.91V102.406a5.7,5.7,0,0,1,2.3-4.565,3.507,3.507,0,0,0,1.431-2.731H102.7a3.509,3.509,0,0,0,1.433,2.731,5.7,5.7,0,0,1,2.3,4.565ZM94.445,87.856h8.632a.118.118,0,0,0,.02,0,.142.142,0,0,0,.02,0h1.247a.456.456,0,0,1,.455.456v3.343a.455.455,0,0,1-.455.455H94.445a.455.455,0,0,1-.455-.455V88.312A.456.456,0,0,1,94.445,87.856Zm3.52-3a35.124,35.124,0,0,0,.643-7.158.8.8,0,1,1,1.593,0,35.107,35.107,0,0,0,.644,7.159Zm11.467,31.656V102.406a8.713,8.713,0,0,0-3.519-6.978.524.524,0,0,1-.183-.6l0,0a3.458,3.458,0,0,0,2.087-3.17V88.312a3.459,3.459,0,0,0-3.455-3.456h-.416a26.627,26.627,0,0,1-.747-7.2,3.8,3.8,0,0,0-7.593,0,26.834,26.834,0,0,1-.742,7.2h-.421a3.459,3.459,0,0,0-3.455,3.456v3.343a3.459,3.459,0,0,0,2.088,3.171l0,.005a.525.525,0,0,1-.184.6,8.711,8.711,0,0,0-3.518,6.977v14.106H82.229v-1.9a5.628,5.628,0,0,0,4.182-5.086L88.753,70.4a2.725,2.725,0,0,0,1.581-2.191l.24-2.283a2.736,2.736,0,0,0-2.72-3.021h-31.5a2.734,2.734,0,0,0-2.719,3.022l.24,2.28a2.72,2.72,0,0,0,1.58,2.193L57.8,109.526a5.632,5.632,0,0,0,4.182,5.084v1.9H53.257v-10.2a3.618,3.618,0,0,0-.536-1.879,3.564,3.564,0,0,0,.919-2.376V98.308a3.6,3.6,0,0,0-3.594-3.594H43.877V46.822q.541.578,1.1,1.158c2.849,2.992,6.079,6.381,7.952,11.338a1.5,1.5,0,1,0,2.806-1.06c-2.088-5.526-5.54-9.15-8.585-12.347a33.373,33.373,0,0,1-4.354-5.206A17.412,17.412,0,0,0,50.52,44.49a11.417,11.417,0,0,0,2.2.222,8.244,8.244,0,0,0,7.424-4.244h54.869v76.044Z"/><rect x="68.645" y="116.889" width="6.659" height="3.491" rx="1.092" ry="1.092"/><path d="M72.105,99.542a9.061,9.061,0,1,1,9.061-9.062A9.072,9.072,0,0,1,72.105,99.542Zm0-15.122a6.061,6.061,0,1,0,6.061,6.06A6.068,6.068,0,0,0,72.105,84.42Z"/><path d="M99.405,115.788a6.057,6.057,0,1,1,6.057-6.057A6.064,6.064,0,0,1,99.405,115.788Zm0-9.114a3.057,3.057,0,1,0,3.057,3.057A3.061,3.061,0,0,0,99.405,106.674Z"/><path d="M36.1,120.977a6.959,6.959,0,1,1,6.958-6.959A6.967,6.967,0,0,1,36.1,120.977Zm0-10.918a3.959,3.959,0,1,0,3.958,3.959A3.963,3.963,0,0,0,36.1,110.059Z"/></svg>